 0
SECTION
 2
ENTITIES
  0
LINE
 8
Layer0
10
45.0
20
0.0
30
0.0
11
132.99999999999994
21
0.0
31
0.0
  0
LINE
 8
Layer0
10
132.99999999999994
20
0.0
30
0.0
11
132.99999999999994
21
80.0
31
0.0
  0
LINE
 8
Layer0
10
132.99999999999994
20
80.0
30
0.0
11
45.0
21
80.0
31
0.0
  0
LINE
 8
Layer0
10
45.0
20
80.0
30
0.0
11
45.0
21
0.0
31
0.0
  0
LINE
 8
Layer0
10
45.0
20
80.0
30
0.0
11
9.999999999999998
21
80.0
31
0.0
  0
LINE
 8
Layer0
10
9.999999999999998
20
80.0
30
0.0
11
9.999999999999998
21
0.0
31
0.0
  0
LINE
 8
Layer0
10
9.999999999999998
20
0.0
30
0.0
11
45.0
21
0.0
31
0.0
  0
LINE
 8
Layer0
10
132.99999999999994
20
80.0
30
0.0
11
167.99999999999991
21
80.0
31
0.0
  0
LINE
 8
Layer0
10
167.99999999999991
20
80.0
30
0.0
11
167.99999999999991
21
66.99999999999999
31
0.0
  0
LINE
 8
Layer0
10
167.99999999999991
20
1.127986593019159e-14
30
0.0
11
132.99999999999994
21
0.0
31
0.0
  0
LINE
 8
Layer0
10
9.999999999999998
20
80.0
30
0.0
11
0.0
21
80.0
31
0.0
  0
LINE
 8
Layer0
10
0.0
20
80.0
30
0.0
11
0.0
21
0.0
31
0.0
  0
LINE
 8
Layer0
10
0.0
20
0.0
30
0.0
11
9.999999999999998
21
0.0
31
0.0
  0
LINE
 8
Layer0
10
167.99999999999991
20
80.0
30
0.0
11
177.9999999999999
21
80.0
31
0.0
  0
LINE
 8
Layer0
10
177.9999999999999
20
80.0
30
0.0
11
177.9999999999999
21
0.0
31
0.0
  0
LINE
 8
Layer0
10
177.9999999999999
20
0.0
30
0.0
11
167.99999999999991
21
1.127986593019159e-14
31
0.0
  0
LINE
 8
Layer0
10
3.0
20
65.0
30
0.0
11
3.0681483474218636
21
64.48236190979495
31
0.0
  0
LINE
 8
Layer0
10
3.0681483474218636
20
64.48236190979495
30
0.0
11
3.2679491924311237
21
63.99999999999999
31
0.0
  0
LINE
 8
Layer0
10
3.2679491924311237
20
63.99999999999999
30
0.0
11
3.5857864376269037
21
63.58578643762689
31
0.0
  0
LINE
 8
Layer0
10
3.5857864376269037
20
63.58578643762689
30
0.0
11
3.9999999999999982
21
63.26794919243112
31
0.0
  0
LINE
 8
Layer0
10
3.9999999999999982
20
63.26794919243112
30
0.0
11
4.482361909794962
21
63.06814834742185
31
0.0
  0
LINE
 8
Layer0
10
4.482361909794962
20
63.06814834742185
30
0.0
11
5.000000000000002
21
63.0
31
0.0
  0
LINE
 8
Layer0
10
5.000000000000002
20
63.0
30
0.0
11
5.517638090205042
21
63.06814834742185
31
0.0
  0
LINE
 8
Layer0
10
5.517638090205042
20
63.06814834742185
30
0.0
11
6.0
21
63.26794919243112
31
0.0
  0
LINE
 8
Layer0
10
6.0
20
63.26794919243112
30
0.0
11
6.4142135623731
21
63.58578643762689
31
0.0
  0
LINE
 8
Layer0
10
6.4142135623731
20
63.58578643762689
30
0.0
11
6.73205080756888
21
63.99999999999999
31
0.0
  0
LINE
 8
Layer0
10
6.73205080756888
20
63.99999999999999
30
0.0
11
6.931851652578141
21
64.48236190979495
31
0.0
  0
LINE
 8
Layer0
10
6.931851652578141
20
64.48236190979495
30
0.0
11
7.000000000000004
21
65.0
31
0.0
  0
LINE
 8
Layer0
10
7.000000000000004
20
65.0
30
0.0
11
6.931851652578141
21
65.51763809020504
31
0.0
  0
LINE
 8
Layer0
10
6.931851652578141
20
65.51763809020504
30
0.0
11
6.73205080756888
21
65.99999999999999
31
0.0
  0
LINE
 8
Layer0
10
6.73205080756888
20
65.99999999999999
30
0.0
11
6.4142135623731
21
66.41421356237309
31
0.0
  0
LINE
 8
Layer0
10
6.4142135623731
20
66.41421356237309
30
0.0
11
6.000000000000006
21
66.73205080756887
31
0.0
  0
LINE
 8
Layer0
10
6.000000000000006
20
66.73205080756887
30
0.0
11
5.517638090205048
21
66.93185165257813
31
0.0
  0
LINE
 8
Layer0
10
5.517638090205048
20
66.93185165257813
30
0.0
11
5.000000000000002
21
66.99999999999999
31
0.0
  0
LINE
 8
Layer0
10
5.000000000000002
20
66.99999999999999
30
0.0
11
4.482361909794962
21
66.93185165257813
31
0.0
  0
LINE
 8
Layer0
10
4.482361909794962
20
66.93185165257813
30
0.0
11
4.0000000000000036
21
66.73205080756887
31
0.0
  0
LINE
 8
Layer0
10
4.0000000000000036
20
66.73205080756887
30
0.0
11
3.5857864376269037
21
66.41421356237309
31
0.0
  0
LINE
 8
Layer0
10
3.5857864376269037
20
66.41421356237309
30
0.0
11
3.2679491924311237
21
65.99999999999999
31
0.0
  0
LINE
 8
Layer0
10
3.2679491924311237
20
65.99999999999999
30
0.0
11
3.0681483474218636
21
65.51763809020504
31
0.0
  0
LINE
 8
Layer0
10
3.0681483474218636
20
65.51763809020504
30
0.0
11
3.0
21
65.0
31
0.0
  0
LINE
 8
Layer0
10
3.0
20
15.0
30
0.0
11
3.0681483474218636
21
14.482361909794959
31
0.0
  0
LINE
 8
Layer0
10
3.0681483474218636
20
14.482361909794959
30
0.0
11
3.2679491924311237
21
14.0
31
0.0
  0
LINE
 8
Layer0
10
3.2679491924311237
20
14.0
30
0.0
11
3.5857864376269037
21
13.585786437626904
31
0.0
  0
LINE
 8
Layer0
10
3.5857864376269037
20
13.585786437626904
30
0.0
11
3.9999999999999982
21
13.267949192431123
31
0.0
  0
LINE
 8
Layer0
10
3.9999999999999982
20
13.267949192431123
30
0.0
11
4.482361909794962
21
13.068148347421863
31
0.0
  0
LINE
 8
Layer0
10
4.482361909794962
20
13.068148347421863
30
0.0
11
5.000000000000002
21
12.999999999999998
31
0.0
  0
LINE
 8
Layer0
10
5.000000000000002
20
12.999999999999998
30
0.0
11
5.517638090205042
21
13.068148347421863
31
0.0
  0
LINE
 8
Layer0
10
5.517638090205042
20
13.068148347421863
30
0.0
11
6.0
21
13.267949192431123
31
0.0
  0
LINE
 8
Layer0
10
6.0
20
13.267949192431123
30
0.0
11
6.4142135623731
21
13.585786437626904
31
0.0
  0
LINE
 8
Layer0
10
6.4142135623731
20
13.585786437626904
30
0.0
11
6.73205080756888
21
14.0
31
0.0
  0
LINE
 8
Layer0
10
6.73205080756888
20
14.0
30
0.0
11
6.931851652578141
21
14.482361909794959
31
0.0
  0
LINE
 8
Layer0
10
6.931851652578141
20
14.482361909794959
30
0.0
11
7.000000000000004
21
15.0
31
0.0
  0
LINE
 8
Layer0
10
7.000000000000004
20
15.0
30
0.0
11
6.931851652578141
21
15.517638090205041
31
0.0
  0
LINE
 8
Layer0
10
6.931851652578141
20
15.517638090205041
30
0.0
11
6.73205080756888
21
16.0
31
0.0
  0
LINE
 8
Layer0
10
6.73205080756888
20
16.0
30
0.0
11
6.4142135623731
21
16.414213562373096
31
0.0
  0
LINE
 8
Layer0
10
6.4142135623731
20
16.414213562373096
30
0.0
11
6.000000000000006
21
16.73205080756888
31
0.0
  0
LINE
 8
Layer0
10
6.000000000000006
20
16.73205080756888
30
0.0
11
5.517638090205048
21
16.93185165257814
31
0.0
  0
LINE
 8
Layer0
10
5.517638090205048
20
16.93185165257814
30
0.0
11
5.000000000000002
21
17.000000000000004
31
0.0
  0
LINE
 8
Layer0
10
5.000000000000002
20
17.000000000000004
30
0.0
11
4.482361909794962
21
16.93185165257814
31
0.0
  0
LINE
 8
Layer0
10
4.482361909794962
20
16.93185165257814
30
0.0
11
4.0000000000000036
21
16.73205080756888
31
0.0
  0
LINE
 8
Layer0
10
4.0000000000000036
20
16.73205080756888
30
0.0
11
3.5857864376269037
21
16.414213562373096
31
0.0
  0
LINE
 8
Layer0
10
3.5857864376269037
20
16.414213562373096
30
0.0
11
3.2679491924311237
21
16.0
31
0.0
  0
LINE
 8
Layer0
10
3.2679491924311237
20
16.0
30
0.0
11
3.0681483474218636
21
15.517638090205043
31
0.0
  0
LINE
 8
Layer0
10
3.0681483474218636
20
15.517638090205043
30
0.0
11
3.0
21
15.0
31
0.0
  0
LINE
 8
Layer0
10
171.06814834742178
20
65.51763809020504
30
0.0
11
170.99999999999991
21
65.0
31
0.0
  0
LINE
 8
Layer0
10
171.06814834742178
20
64.48236190979495
30
0.0
11
171.26794919243105
21
63.99999999999999
31
0.0
  0
LINE
 8
Layer0
10
173.51763809020497
20
66.93185165257813
30
0.0
11
172.99999999999991
21
66.99999999999999
31
0.0
  0
LINE
 8
Layer0
10
171.26794919243105
20
65.99999999999999
30
0.0
11
171.06814834742178
21
65.51763809020504
31
0.0
  0
LINE
 8
Layer0
10
174.93185165257802
20
64.48236190979495
30
0.0
11
174.99999999999991
21
65.0
31
0.0
  0
LINE
 8
Layer0
10
173.51763809020497
20
63.06814834742186
30
0.0
11
173.99999999999991
21
63.26794919243112
31
0.0
  0
LINE
 8
Layer0
10
173.99999999999991
20
66.73205080756887
30
0.0
11
173.51763809020497
21
66.93185165257813
31
0.0
  0
LINE
 8
Layer0
10
172.99999999999991
20
63.0
30
0.0
11
173.51763809020497
21
63.06814834742186
31
0.0
  0
LINE
 8
Layer0
10
173.99999999999991
20
63.26794919243112
30
0.0
11
174.41421356237302
21
63.58578643762691
31
0.0
  0
LINE
 8
Layer0
10
174.41421356237302
20
66.41421356237308
30
0.0
11
173.99999999999991
21
66.73205080756887
31
0.0
  0
LINE
 8
Layer0
10
174.73205080756878
20
65.99999999999999
30
0.0
11
174.41421356237302
21
66.41421356237308
31
0.0
  0
LINE
 8
Layer0
10
174.73205080756878
20
63.99999999999999
30
0.0
11
174.93185165257802
21
64.48236190979495
31
0.0
  0
LINE
 8
Layer0
10
171.99999999999991
20
63.26794919243112
30
0.0
11
172.4823619097949
21
63.06814834742186
31
0.0
  0
LINE
 8
Layer0
10
170.99999999999991
20
65.0
30
0.0
11
171.06814834742178
21
64.48236190979495
31
0.0
  0
LINE
 8
Layer0
10
172.4823619097949
20
66.93185165257813
30
0.0
11
171.99999999999991
21
66.73205080756887
31
0.0
  0
LINE
 8
Layer0
10
174.93185165257808
20
65.51763809020503
30
0.0
11
174.73205080756878
21
65.99999999999999
31
0.0
  0
LINE
 8
Layer0
10
172.4823619097949
20
63.06814834742186
30
0.0
11
172.99999999999991
21
63.0
31
0.0
  0
LINE
 8
Layer0
10
174.99999999999991
20
65.0
30
0.0
11
174.93185165257808
21
65.51763809020503
31
0.0
  0
LINE
 8
Layer0
10
172.99999999999991
20
66.99999999999999
30
0.0
11
172.4823619097949
21
66.93185165257813
31
0.0
  0
LINE
 8
Layer0
10
171.99999999999991
20
66.73205080756887
30
0.0
11
171.5857864376268
21
66.41421356237308
31
0.0
  0
LINE
 8
Layer0
10
174.41421356237302
20
63.58578643762691
30
0.0
11
174.73205080756878
21
63.99999999999999
31
0.0
  0
LINE
 8
Layer0
10
171.26794919243105
20
63.99999999999999
30
0.0
11
171.5857864376268
21
63.58578643762691
31
0.0
  0
LINE
 8
Layer0
10
171.5857864376268
20
66.41421356237308
30
0.0
11
171.26794919243105
21
65.99999999999999
31
0.0
  0
LINE
 8
Layer0
10
171.5857864376268
20
63.58578643762691
30
0.0
11
171.99999999999991
21
63.26794919243112
31
0.0
  0
POLYLINE
 8
Layer0
 66
     1
10
0.0
 20
 0.0
 30
0.0
70
    64
71
24
72
   1
  0
VERTEX
  8
Layer0
10
171.06814834742178
20
15.517638090205043
30
0.0
 70
     192
  0
VERTEX
  8
Layer0
10
171.06814834742178
20
14.48236190979496
30
0.0
 70
     192
  0
VERTEX
  8
Layer0
10
170.99999999999991
20
15.0
30
0.0
 70
     192
  0
VERTEX
  8
Layer0
10
171.26794919243105
20
15.999999999999998
30
0.0
 70
     192
  0
VERTEX
  8
Layer0
10
171.26794919243105
20
14.000000000000002
30
0.0
 70
     192
  0
VERTEX
  8
Layer0
10
171.5857864376268
20
16.414213562373092
30
0.0
 70
     192
  0
VERTEX
  8
Layer0
10
171.5857864376268
20
13.585786437626908
30
0.0
 70
     192
  0
VERTEX
  8
Layer0
10
171.99999999999991
20
16.732050807568875
30
0.0
 70
     192
  0
VERTEX
  8
Layer0
10
171.99999999999991
20
13.267949192431129
30
0.0
 70
     192
  0
VERTEX
  8
Layer0
10
172.4823619097949
20
16.931851652578132
30
0.0
 70
     192
  0
VERTEX
  8
Layer0
10
172.4823619097949
20
13.068148347421868
30
0.0
 70
     192
  0
VERTEX
  8
Layer0
10
172.99999999999991
20
16.999999999999996
30
0.0
 70
     192
  0
VERTEX
  8
Layer0
10
172.99999999999991
20
13.000000000000004
30
0.0
 70
     192
  0
VERTEX
  8
Layer0
10
173.51763809020497
20
16.931851652578132
30
0.0
 70
     192
  0
VERTEX
  8
Layer0
10
173.51763809020497
20
13.068148347421868
30
0.0
 70
     192
  0
VERTEX
  8
Layer0
10
173.99999999999991
20
16.732050807568875
30
0.0
 70
     192
  0
VERTEX
  8
Layer0
10
173.99999999999991
20
13.267949192431129
30
0.0
 70
     192
  0
VERTEX
  8
Layer0
10
174.41421356237302
20
16.414213562373092
30
0.0
 70
     192
  0
VERTEX
  8
Layer0
10
174.41421356237302
20
13.585786437626908
30
0.0
 70
     192
  0
VERTEX
  8
Layer0
10
174.73205080756878
20
15.999999999999998
30
0.0
 70
     192
  0
VERTEX
  8
Layer0
10
174.73205080756878
20
14.000000000000002
30
0.0
 70
     192
  0
VERTEX
  8
Layer0
10
174.93185165257808
20
15.517638090205041
30
0.0
 70
     192
  0
VERTEX
  8
Layer0
10
174.93185165257802
20
14.48236190979496
30
0.0
 70
     192
  0
VERTEX
  8
Layer0
10
174.99999999999991
20
15.0
30
0.0
 70
     192
  0
VERTEX
  8
Layer0
10
0.0
 20
 0.0
 30
0.0
 70
     128
 71
-1
 72
2
 73
3
  0
VERTEX
  8
Layer0
10
0.0
 20
 0.0
 30
0.0
 70
     128
 71
-2
 72
1
 73
-4
  0
VERTEX
  8
Layer0
10
0.0
 20
 0.0
 30
0.0
 70
     128
 71
-2
 72
-4
 73
5
  0
VERTEX
  8
Layer0
10
0.0
 20
 0.0
 30
0.0
 70
     128
 71
-5
 72
4
 73
-6
  0
VERTEX
  8
Layer0
10
0.0
 20
 0.0
 30
0.0
 70
     128
 71
-5
 72
-6
 73
7
  0
VERTEX
  8
Layer0
10
0.0
 20
 0.0
 30
0.0
 70
     128
 71
-7
 72
6
 73
-8
  0
VERTEX
  8
Layer0
10
0.0
 20
 0.0
 30
0.0
 70
     128
 71
-7
 72
-8
 73
9
  0
VERTEX
  8
Layer0
10
0.0
 20
 0.0
 30
0.0
 70
     128
 71
-9
 72
8
 73
-10
  0
VERTEX
  8
Layer0
10
0.0
 20
 0.0
 30
0.0
 70
     128
 71
-9
 72
-10
 73
11
  0
VERTEX
  8
Layer0
10
0.0
 20
 0.0
 30
0.0
 70
     128
 71
-11
 72
10
 73
-12
  0
VERTEX
  8
Layer0
10
0.0
 20
 0.0
 30
0.0
 70
     128
 71
-11
 72
-12
 73
13
  0
VERTEX
  8
Layer0
10
0.0
 20
 0.0
 30
0.0
 70
     128
 71
-13
 72
12
 73
-14
  0
VERTEX
  8
Layer0
10
0.0
 20
 0.0
 30
0.0
 70
     128
 71
-13
 72
-14
 73
15
  0
VERTEX
  8
Layer0
10
0.0
 20
 0.0
 30
0.0
 70
     128
 71
-15
 72
14
 73
-16
  0
VERTEX
  8
Layer0
10
0.0
 20
 0.0
 30
0.0
 70
     128
 71
-15
 72
-16
 73
17
  0
VERTEX
  8
Layer0
10
0.0
 20
 0.0
 30
0.0
 70
     128
 71
-17
 72
16
 73
-18
  0
VERTEX
  8
Layer0
10
0.0
 20
 0.0
 30
0.0
 70
     128
 71
-17
 72
-18
 73
19
  0
VERTEX
  8
Layer0
10
0.0
 20
 0.0
 30
0.0
 70
     128
 71
-19
 72
18
 73
-20
  0
VERTEX
  8
Layer0
10
0.0
 20
 0.0
 30
0.0
 70
     128
 71
-19
 72
-20
 73
21
  0
VERTEX
  8
Layer0
10
0.0
 20
 0.0
 30
0.0
 70
     128
 71
-21
 72
20
 73
-22
  0
VERTEX
  8
Layer0
10
0.0
 20
 0.0
 30
0.0
 70
     128
 71
-21
 72
-22
 73
23
  0
VERTEX
  8
Layer0
10
0.0
 20
 0.0
 30
0.0
 70
     128
 71
-23
 72
22
 73
24
  0
SEQEND
  0
LINE
 8
Layer0
10
165.99999999999991
20
66.99999999999999
30
0.0
11
165.4823619097949
21
66.93185165257813
31
0.0
  0
LINE
 8
Layer0
10
165.4823619097949
20
66.93185165257813
30
0.0
11
164.99999999999991
21
66.73205080756887
31
0.0
  0
LINE
 8
Layer0
10
164.99999999999991
20
66.73205080756887
30
0.0
11
164.58578643762684
21
66.41421356237308
31
0.0
  0
LINE
 8
Layer0
10
164.58578643762684
20
66.41421356237308
30
0.0
11
164.26794919243105
21
65.99999999999999
31
0.0
  0
LINE
 8
Layer0
10
164.26794919243105
20
65.99999999999999
30
0.0
11
164.0681483474218
21
65.51763809020504
31
0.0
  0
LINE
 8
Layer0
10
164.0681483474218
20
65.51763809020504
30
0.0
11
163.99999999999991
21
65.0
31
0.0
  0
LINE
 8
Layer0
10
163.99999999999991
20
65.0
30
0.0
11
164.06814834742178
21
64.48236190979495
31
0.0
  0
LINE
 8
Layer0
10
164.06814834742178
20
64.48236190979495
30
0.0
11
164.26794919243105
21
63.99999999999999
31
0.0
  0
LINE
 8
Layer0
10
164.26794919243105
20
63.99999999999999
30
0.0
11
164.58578643762684
21
63.58578643762691
31
0.0
  0
LINE
 8
Layer0
10
164.58578643762684
20
63.58578643762691
30
0.0
11
164.99999999999991
21
63.26794919243112
31
0.0
  0
LINE
 8
Layer0
10
164.99999999999991
20
63.26794919243112
30
0.0
11
165.4823619097949
21
63.06814834742186
31
0.0
  0
LINE
 8
Layer0
10
165.4823619097949
20
63.06814834742186
30
0.0
11
165.99999999999991
21
63.0
31
0.0
  0
LINE
 8
Layer0
10
167.99999999999991
20
66.99999999999999
30
0.0
11
167.99999999999991
21
63.0
31
0.0
  0
LINE
 8
Layer0
10
165.99999999999991
20
66.99999999999999
30
0.0
11
167.99999999999991
21
66.99999999999999
31
0.0
  0
LINE
 8
Layer0
10
167.99999999999991
20
63.0
30
0.0
11
167.99999999999991
21
1.127986593019159e-14
31
0.0
  0
LINE
 8
Layer0
10
165.99999999999991
20
63.0
30
0.0
11
167.99999999999991
21
63.0
31
0.0
 0
ENDSEC
 0
EOF
