solid DIRIGE_FLUX
facet normal 0.0 0.0 -1.0
outer loop
vertex 3.0 27.0 0.0
vertex 0.0 0.0 0.0
vertex 0.0 15.0 0.0
endloop
endfacet
facet normal 0.0 0.0 -1.0
outer loop
vertex 0.0 0.0 0.0
vertex 3.0 27.0 0.0
vertex 40.0 0.0 0.0
endloop
endfacet
facet normal 0.0 0.0 -1.0
outer loop
vertex 40.0 0.0 0.0
vertex 3.0 27.0 0.0
vertex 37.0 27.0 0.0
endloop
endfacet
facet normal 0.0 0.0 -1.0
outer loop
vertex 40.0 0.0 0.0
vertex 37.0 27.0 0.0
vertex 40.0 15.0 0.0
endloop
endfacet
facet normal -0.0 -0.0 1.0
outer loop
vertex 40.0 0.0 10.0
vertex 36.13107696846169 4.999999999999999 10.0
vertex 36.13107696846169 0.0 10.0
endloop
endfacet
facet normal -0.0 -0.0 1.0
outer loop
vertex 36.13107696846169 4.999999999999999 10.0
vertex 40.0 0.0 10.0
vertex 40.0 5.0 10.0
endloop
endfacet
facet normal -0.9701425001453319 0.24253562503633297 0.0
outer loop
vertex 3.0 27.0 2.0000000000000004
vertex 0.0 15.0 0.0
vertex 0.0 15.0 2.0000000000000004
endloop
endfacet
facet normal -0.9701425001453319 0.24253562503633297 0.0
outer loop
vertex 0.0 15.0 0.0
vertex 3.0 27.0 2.0000000000000004
vertex 3.0 27.0 0.0
endloop
endfacet
facet normal -2.3297058726684403e-32 1.0 2.6185731466787947e-15
outer loop
vertex 3.0 27.0 0.0
vertex 18.137674333738346 26.99999999999999 1.0914901932282555
vertex 37.0 27.0 0.0
endloop
endfacet
facet normal -2.3297058726684403e-32 1.0 2.6185731466787947e-15
outer loop
vertex 18.137674333738346 26.99999999999999 1.0914901932282555
vertex 3.0 27.0 0.0
vertex 3.0 27.0 2.0000000000000004
endloop
endfacet
facet normal -2.3297058726684403e-32 1.0 2.6185731466787947e-15
outer loop
vertex 37.0 27.0 0.0
vertex 18.137674333738346 26.99999999999999 1.0914901932282555
vertex 19.999999999999996 26.99999999999999 0.9999999999999981
endloop
endfacet
facet normal -2.3297058726684403e-32 1.0 2.6185731466787947e-15
outer loop
vertex 18.137674333738346 26.99999999999999 1.0914901932282555
vertex 3.0 27.0 2.0000000000000004
vertex 16.29328388169356 26.99999999999999 1.3650796723386207
endloop
endfacet
facet normal -2.3297058726684403e-32 1.0 2.6185731466787947e-15
outer loop
vertex 16.29328388169356 26.99999999999999 1.3650796723386207
vertex 3.0 27.0 2.0000000000000004
vertex 14.484591132165214 26.99999999999999 1.8181336210880295
endloop
endfacet
facet normal -2.3297058726684403e-32 1.0 2.6185731466787947e-15
outer loop
vertex 14.484591132165214 26.99999999999999 1.8181336210880295
vertex 3.0 27.0 2.0000000000000004
vertex 13.976308653495446 26.99999999999999 2.0000000000000004
endloop
endfacet
facet normal -2.3297058726684403e-32 1.0 2.6185731466787947e-15
outer loop
vertex 37.0 27.0 0.0
vertex 21.862325666261647 26.99999999999999 1.0914901932282555
vertex 37.0 27.0 2.0000000000000004
endloop
endfacet
facet normal -2.3297058726684403e-32 1.0 2.6185731466787947e-15
outer loop
vertex 21.862325666261647 26.99999999999999 1.0914901932282555
vertex 37.0 27.0 0.0
vertex 19.999999999999996 26.99999999999999 0.9999999999999981
endloop
endfacet
facet normal -2.3297058726684403e-32 1.0 2.6185731466787947e-15
outer loop
vertex 37.0 27.0 2.0000000000000004
vertex 21.862325666261647 26.99999999999999 1.0914901932282555
vertex 23.706716118306442 26.99999999999999 1.3650796723386207
endloop
endfacet
facet normal -2.3297058726684403e-32 1.0 2.6185731466787947e-15
outer loop
vertex 37.0 27.0 2.0000000000000004
vertex 23.706716118306442 26.99999999999999 1.3650796723386207
vertex 25.515408867834786 26.99999999999999 1.8181336210880295
endloop
endfacet
facet normal -2.3297058726684403e-32 1.0 2.6185731466787947e-15
outer loop
vertex 37.0 27.0 2.0000000000000004
vertex 25.515408867834786 26.99999999999999 1.8181336210880295
vertex 26.02369134650455 26.99999999999999 2.0000000000000004
endloop
endfacet
facet normal 1.0 -0.0 -0.0
outer loop
vertex 40.0 0.0 0.0
vertex 40.0 5.0 2.0000000000000004
vertex 40.0 0.0 10.0
endloop
endfacet
facet normal 1.0 -0.0 -0.0
outer loop
vertex 40.0 5.0 2.0000000000000004
vertex 40.0 0.0 0.0
vertex 40.0 15.0 0.0
endloop
endfacet
facet normal 1.0 -0.0 -0.0
outer loop
vertex 40.0 5.0 2.0000000000000004
vertex 40.0 15.0 0.0
vertex 40.0 15.0 2.0000000000000004
endloop
endfacet
facet normal 1.0 -0.0 -0.0
outer loop
vertex 40.0 5.0 10.0
vertex 40.0 0.0 10.0
vertex 40.0 5.0 2.0000000000000004
endloop
endfacet
facet normal 0.0 -1.0 0.0
outer loop
vertex 40.0 0.0 0.0
vertex 21.862325666261647 0.0 1.0914901932282555
vertex 0.0 0.0 0.0
endloop
endfacet
facet normal 0.0 -1.0 0.0
outer loop
vertex 21.862325666261647 0.0 1.0914901932282555
vertex 40.0 0.0 0.0
vertex 36.0 0.0 2.5999999999999996
endloop
endfacet
facet normal 0.0 -1.0 0.0
outer loop
vertex 36.0 0.0 2.5999999999999996
vertex 40.0 0.0 0.0
vertex 36.362346663143526 0.0 2.647703843195304
endloop
endfacet
facet normal 0.0 -1.0 0.0
outer loop
vertex 36.362346663143526 0.0 2.647703843195304
vertex 40.0 0.0 0.0
vertex 36.7 0.0 2.7875644347017854
endloop
endfacet
facet normal 0.0 -1.0 0.0
outer loop
vertex 36.7 0.0 2.7875644347017854
vertex 40.0 0.0 0.0
vertex 36.98994949366117 0.0 3.0100505063388328
endloop
endfacet
facet normal 0.0 -1.0 0.0
outer loop
vertex 36.98994949366117 0.0 3.0100505063388328
vertex 40.0 0.0 0.0
vertex 37.212435565298215 0.0 3.2999999999999994
endloop
endfacet
facet normal 0.0 -1.0 0.0
outer loop
vertex 37.212435565298215 0.0 3.2999999999999994
vertex 40.0 0.0 0.0
vertex 40.0 0.0 10.0
endloop
endfacet
facet normal 0.0 -1.0 0.0
outer loop
vertex 0.0 0.0 0.0
vertex 21.862325666261647 0.0 1.0914901932282555
vertex 19.999999999999996 0.0 0.9999999999999981
endloop
endfacet
facet normal 0.0 -1.0 0.0
outer loop
vertex 21.862325666261647 0.0 1.0914901932282555
vertex 36.0 0.0 2.5999999999999996
vertex 23.706716118306442 0.0 1.3650796723386207
endloop
endfacet
facet normal 0.0 -1.0 0.0
outer loop
vertex 23.706716118306442 0.0 1.3650796723386207
vertex 36.0 0.0 2.5999999999999996
vertex 25.515408867834786 0.0 1.8181336210880295
endloop
endfacet
facet normal 0.0 -1.0 0.0
outer loop
vertex 25.515408867834786 0.0 1.8181336210880295
vertex 36.0 0.0 2.5999999999999996
vertex 27.27098521493671 0.0 2.4462888822855544
endloop
endfacet
facet normal 0.0 -1.0 0.0
outer loop
vertex 37.212435565298215 0.0 3.2999999999999994
vertex 40.0 0.0 10.0
vertex 37.35229615680469 0.0 3.6376533368564705
endloop
endfacet
facet normal 0.0 -1.0 0.0
outer loop
vertex 37.35229615680469 0.0 3.6376533368564705
vertex 40.0 0.0 10.0
vertex 37.4 0.0 3.9999999999999996
endloop
endfacet
facet normal 0.0 -1.0 0.0
outer loop
vertex 37.4 0.0 3.9999999999999996
vertex 40.0 0.0 10.0
vertex 37.35229615680469 0.0 4.36234666314353
endloop
endfacet
facet normal 0.0 -1.0 0.0
outer loop
vertex 37.35229615680469 0.0 4.36234666314353
vertex 40.0 0.0 10.0
vertex 37.212435565298215 0.0 4.7
endloop
endfacet
facet normal 0.0 -1.0 0.0
outer loop
vertex 37.212435565298215 0.0 4.7
vertex 40.0 0.0 10.0
vertex 36.98994949366117 0.0 4.989949493661166
endloop
endfacet
facet normal 0.0 -1.0 0.0
outer loop
vertex 36.98994949366117 0.0 4.989949493661166
vertex 40.0 0.0 10.0
vertex 36.7 0.0 5.212435565298215
endloop
endfacet
facet normal 0.0 -1.0 0.0
outer loop
vertex 36.7 0.0 5.212435565298215
vertex 40.0 0.0 10.0
vertex 36.362346663143526 0.0 5.352296156804695
endloop
endfacet
facet normal 0.0 -1.0 0.0
outer loop
vertex 36.362346663143526 0.0 5.352296156804695
vertex 40.0 0.0 10.0
vertex 36.0 0.0 5.4
endloop
endfacet
facet normal 0.0 -1.0 0.0
outer loop
vertex 36.0 0.0 5.4
vertex 40.0 0.0 10.0
vertex 33.4350288425444 0.0 6.564971157455598
endloop
endfacet
facet normal 0.0 -1.0 0.0
outer loop
vertex 33.4350288425444 0.0 6.564971157455598
vertex 40.0 0.0 10.0
vertex 34.687198613891994 0.0 7.9465276008907315
endloop
endfacet
facet normal 0.0 -1.0 0.0
outer loop
vertex 34.687198613891994 0.0 7.9465276008907315
vertex 40.0 0.0 10.0
vertex 35.79792263374836 0.0 9.444165572627563
endloop
endfacet
facet normal 0.0 -1.0 0.0
outer loop
vertex 35.79792263374836 0.0 9.444165572627563
vertex 40.0 0.0 10.0
vertex 36.13107696846169 0.0 10.0
endloop
endfacet
facet normal 0.0 -1.0 0.0
outer loop
vertex 36.0 0.0 2.5999999999999996
vertex 28.956537999693957 0.0 3.243495977381257
vertex 27.27098521493671 0.0 2.4462888822855544
endloop
endfacet
facet normal 0.0 -1.0 0.0
outer loop
vertex 28.956537999693957 0.0 3.243495977381257
vertex 36.0 0.0 2.5999999999999996
vertex 35.637653336856474 0.0 2.6477038431953037
endloop
endfacet
facet normal 0.0 -1.0 0.0
outer loop
vertex 28.956537999693957 0.0 3.243495977381257
vertex 35.637653336856474 0.0 2.6477038431953037
vertex 35.3 0.0 2.787564434701785
endloop
endfacet
facet normal 0.0 -1.0 0.0
outer loop
vertex 28.956537999693957 0.0 3.243495977381257
vertex 35.3 0.0 2.787564434701785
vertex 35.010050506338835 0.0 3.0100505063388328
endloop
endfacet
facet normal 0.0 -1.0 0.0
outer loop
vertex 28.956537999693957 0.0 3.243495977381257
vertex 35.010050506338835 0.0 3.0100505063388328
vertex 34.787564434701785 0.0 3.299999999999999
endloop
endfacet
facet normal 0.0 -1.0 0.0
outer loop
vertex 28.956537999693957 0.0 3.243495977381257
vertex 34.787564434701785 0.0 3.299999999999999
vertex 30.555834427372435 0.0 4.202077366251638
endloop
endfacet
facet normal 0.0 -1.0 0.0
outer loop
vertex 30.555834427372435 0.0 4.202077366251638
vertex 34.787564434701785 0.0 3.299999999999999
vertex 34.6477038431953 0.0 3.6376533368564705
endloop
endfacet
facet normal 0.0 -1.0 0.0
outer loop
vertex 30.555834427372435 0.0 4.202077366251638
vertex 34.6477038431953 0.0 3.6376533368564705
vertex 34.6 0.0 3.9999999999999996
endloop
endfacet
facet normal 0.0 -1.0 0.0
outer loop
vertex 30.555834427372435 0.0 4.202077366251638
vertex 34.6 0.0 3.9999999999999996
vertex 34.6477038431953 0.0 4.362346663143528
endloop
endfacet
facet normal 0.0 -1.0 0.0
outer loop
vertex 30.555834427372435 0.0 4.202077366251638
vertex 34.6477038431953 0.0 4.362346663143528
vertex 32.05347239910927 0.0 5.312801386108005
endloop
endfacet
facet normal 0.0 -1.0 0.0
outer loop
vertex 32.05347239910927 0.0 5.312801386108005
vertex 34.6477038431953 0.0 4.362346663143528
vertex 34.787564434701785 0.0 4.7
endloop
endfacet
facet normal 0.0 -1.0 0.0
outer loop
vertex 32.05347239910927 0.0 5.312801386108005
vertex 34.787564434701785 0.0 4.7
vertex 35.01005050633883 0.0 4.9899494936611655
endloop
endfacet
facet normal 0.0 -1.0 0.0
outer loop
vertex 32.05347239910927 0.0 5.312801386108005
vertex 35.01005050633883 0.0 4.9899494936611655
vertex 35.3 0.0 5.212435565298214
endloop
endfacet
facet normal 0.0 -1.0 0.0
outer loop
vertex 32.05347239910927 0.0 5.312801386108005
vertex 35.3 0.0 5.212435565298214
vertex 35.637653336856474 0.0 5.352296156804695
endloop
endfacet
facet normal 0.0 -1.0 0.0
outer loop
vertex 32.05347239910927 0.0 5.312801386108005
vertex 35.637653336856474 0.0 5.352296156804695
vertex 33.4350288425444 0.0 6.564971157455598
endloop
endfacet
facet normal 0.0 -1.0 0.0
outer loop
vertex 33.4350288425444 0.0 6.564971157455598
vertex 35.637653336856474 0.0 5.352296156804695
vertex 36.0 0.0 5.4
endloop
endfacet
facet normal 0.0 -1.0 0.0
outer loop
vertex 11.043462000306043 0.0 3.2434959773812513
vertex 3.9999999999999996 0.0 2.5999999999999996
vertex 12.729014785063294 0.0 2.446288882285549
endloop
endfacet
facet normal 0.0 -1.0 0.0
outer loop
vertex 3.9999999999999996 0.0 2.5999999999999996
vertex 11.043462000306043 0.0 3.2434959773812513
vertex 4.362346663143529 0.0 2.647703843195304
endloop
endfacet
facet normal 0.0 -1.0 0.0
outer loop
vertex 4.362346663143529 0.0 2.647703843195304
vertex 11.043462000306043 0.0 3.2434959773812513
vertex 4.7 0.0 2.7875644347017854
endloop
endfacet
facet normal 0.0 -1.0 0.0
outer loop
vertex 4.7 0.0 2.7875644347017854
vertex 11.043462000306043 0.0 3.2434959773812513
vertex 4.989949493661166 0.0 3.0100505063388328
endloop
endfacet
facet normal 0.0 -1.0 0.0
outer loop
vertex 4.989949493661166 0.0 3.0100505063388328
vertex 11.043462000306043 0.0 3.2434959773812513
vertex 5.212435565298215 0.0 3.2999999999999994
endloop
endfacet
facet normal 0.0 -1.0 0.0
outer loop
vertex 5.212435565298215 0.0 3.2999999999999994
vertex 11.043462000306043 0.0 3.2434959773812513
vertex 9.444165572627556 0.0 4.202077366251638
endloop
endfacet
facet normal 0.0 -1.0 0.0
outer loop
vertex 5.212435565298215 0.0 3.2999999999999994
vertex 9.444165572627556 0.0 4.202077366251638
vertex 5.352296156804695 0.0 3.6376533368564705
endloop
endfacet
facet normal 0.0 -1.0 0.0
outer loop
vertex 5.352296156804695 0.0 3.6376533368564705
vertex 9.444165572627556 0.0 4.202077366251638
vertex 5.4 0.0 3.9999999999999996
endloop
endfacet
facet normal 0.0 -1.0 0.0
outer loop
vertex 5.4 0.0 3.9999999999999996
vertex 9.444165572627556 0.0 4.202077366251638
vertex 5.352296156804695 0.0 4.36234666314353
endloop
endfacet
facet normal 0.0 -1.0 0.0
outer loop
vertex 5.352296156804695 0.0 4.36234666314353
vertex 9.444165572627556 0.0 4.202077366251638
vertex 7.946527600890733 0.0 5.312801386107996
endloop
endfacet
facet normal 0.0 -1.0 0.0
outer loop
vertex 5.352296156804695 0.0 4.36234666314353
vertex 7.946527600890733 0.0 5.312801386107996
vertex 5.212435565298214 0.0 4.7
endloop
endfacet
facet normal 0.0 -1.0 0.0
outer loop
vertex 5.212435565298214 0.0 4.7
vertex 7.946527600890733 0.0 5.312801386107996
vertex 4.989949493661166 0.0 4.989949493661166
endloop
endfacet
facet normal 0.0 -1.0 0.0
outer loop
vertex 4.989949493661166 0.0 4.989949493661166
vertex 7.946527600890733 0.0 5.312801386107996
vertex 4.699999999999999 0.0 5.212435565298215
endloop
endfacet
facet normal 0.0 -1.0 0.0
outer loop
vertex 4.699999999999999 0.0 5.212435565298215
vertex 7.946527600890733 0.0 5.312801386107996
vertex 4.362346663143528 0.0 5.352296156804695
endloop
endfacet
facet normal 0.0 -1.0 0.0
outer loop
vertex 4.362346663143528 0.0 5.352296156804695
vertex 7.946527600890733 0.0 5.312801386107996
vertex 6.564971157455598 0.0 6.564971157455594
endloop
endfacet
facet normal 0.0 -1.0 0.0
outer loop
vertex 4.362346663143528 0.0 5.352296156804695
vertex 6.564971157455598 0.0 6.564971157455594
vertex 3.9999999999999996 0.0 5.4
endloop
endfacet
facet normal 0.0 -1.0 0.0
outer loop
vertex 0.0 0.0 0.0
vertex 2.787564434701786 0.0 3.299999999999999
vertex 0.0 0.0 10.0
endloop
endfacet
facet normal 0.0 -1.0 0.0
outer loop
vertex 2.787564434701786 0.0 3.299999999999999
vertex 0.0 0.0 0.0
vertex 3.0100505063388328 0.0 3.0100505063388328
endloop
endfacet
facet normal 0.0 -1.0 0.0
outer loop
vertex 3.0100505063388328 0.0 3.0100505063388328
vertex 0.0 0.0 0.0
vertex 3.2999999999999994 0.0 2.787564434701785
endloop
endfacet
facet normal 0.0 -1.0 0.0
outer loop
vertex 3.2999999999999994 0.0 2.787564434701785
vertex 0.0 0.0 0.0
vertex 3.637653336856471 0.0 2.6477038431953037
endloop
endfacet
facet normal 0.0 -1.0 0.0
outer loop
vertex 3.637653336856471 0.0 2.6477038431953037
vertex 0.0 0.0 0.0
vertex 3.9999999999999996 0.0 2.5999999999999996
endloop
endfacet
facet normal 0.0 -1.0 0.0
outer loop
vertex 3.9999999999999996 0.0 2.5999999999999996
vertex 0.0 0.0 0.0
vertex 18.137674333738346 0.0 1.0914901932282555
endloop
endfacet
facet normal 0.0 -1.0 0.0
outer loop
vertex 18.137674333738346 0.0 1.0914901932282555
vertex 0.0 0.0 0.0
vertex 19.999999999999996 0.0 0.9999999999999981
endloop
endfacet
facet normal 0.0 -1.0 0.0
outer loop
vertex 3.9999999999999996 0.0 2.5999999999999996
vertex 18.137674333738346 0.0 1.0914901932282555
vertex 16.29328388169356 0.0 1.3650796723386207
endloop
endfacet
facet normal 0.0 -1.0 0.0
outer loop
vertex 3.9999999999999996 0.0 2.5999999999999996
vertex 16.29328388169356 0.0 1.3650796723386207
vertex 14.484591132165214 0.0 1.8181336210880295
endloop
endfacet
facet normal 0.0 -1.0 0.0
outer loop
vertex 3.9999999999999996 0.0 2.5999999999999996
vertex 14.484591132165214 0.0 1.8181336210880295
vertex 12.729014785063294 0.0 2.446288882285549
endloop
endfacet
facet normal 0.0 -1.0 0.0
outer loop
vertex 0.0 0.0 10.0
vertex 2.787564434701786 0.0 3.299999999999999
vertex 2.647703843195304 0.0 3.6376533368564705
endloop
endfacet
facet normal 0.0 -1.0 0.0
outer loop
vertex 0.0 0.0 10.0
vertex 2.647703843195304 0.0 3.6376533368564705
vertex 2.5999999999999996 0.0 3.9999999999999996
endloop
endfacet
facet normal 0.0 -1.0 0.0
outer loop
vertex 0.0 0.0 10.0
vertex 2.5999999999999996 0.0 3.9999999999999996
vertex 2.6477038431953037 0.0 4.362346663143528
endloop
endfacet
facet normal 0.0 -1.0 0.0
outer loop
vertex 0.0 0.0 10.0
vertex 2.6477038431953037 0.0 4.362346663143528
vertex 2.787564434701785 0.0 4.7
endloop
endfacet
facet normal 0.0 -1.0 0.0
outer loop
vertex 0.0 0.0 10.0
vertex 2.787564434701785 0.0 4.7
vertex 3.0100505063388323 0.0 4.9899494936611655
endloop
endfacet
facet normal 0.0 -1.0 0.0
outer loop
vertex 0.0 0.0 10.0
vertex 3.0100505063388323 0.0 4.9899494936611655
vertex 3.299999999999999 0.0 5.212435565298214
endloop
endfacet
facet normal 0.0 -1.0 0.0
outer loop
vertex 0.0 0.0 10.0
vertex 3.299999999999999 0.0 5.212435565298214
vertex 3.6376533368564696 0.0 5.352296156804695
endloop
endfacet
facet normal 0.0 -1.0 0.0
outer loop
vertex 0.0 0.0 10.0
vertex 3.6376533368564696 0.0 5.352296156804695
vertex 3.9999999999999996 0.0 5.4
endloop
endfacet
facet normal 0.0 -1.0 0.0
outer loop
vertex 0.0 0.0 10.0
vertex 3.9999999999999996 0.0 5.4
vertex 6.564971157455598 0.0 6.564971157455594
endloop
endfacet
facet normal 0.0 -1.0 0.0
outer loop
vertex 0.0 0.0 10.0
vertex 6.564971157455598 0.0 6.564971157455594
vertex 5.312801386107996 0.0 7.946527600890733
endloop
endfacet
facet normal 0.0 -1.0 0.0
outer loop
vertex 0.0 0.0 10.0
vertex 5.312801386107996 0.0 7.946527600890733
vertex 4.202077366251638 0.0 9.444165572627554
endloop
endfacet
facet normal 0.0 -1.0 0.0
outer loop
vertex 0.0 0.0 10.0
vertex 4.202077366251638 0.0 9.444165572627554
vertex 3.8689230315382934 0.0 10.0
endloop
endfacet
facet normal -0.0 -0.0 1.0
outer loop
vertex 40.0 5.0 2.0000000000000004
vertex 26.02369134650455 26.99999999999999 2.0000000000000004
vertex 26.02369134650455 4.999999999999999 2.0000000000000004
endloop
endfacet
facet normal -0.0 -0.0 1.0
outer loop
vertex 26.02369134650455 26.99999999999999 2.0000000000000004
vertex 40.0 5.0 2.0000000000000004
vertex 37.0 27.0 2.0000000000000004
endloop
endfacet
facet normal -0.0 -0.0 1.0
outer loop
vertex 37.0 27.0 2.0000000000000004
vertex 40.0 5.0 2.0000000000000004
vertex 40.0 15.0 2.0000000000000004
endloop
endfacet
facet normal -1.0 0.0 -8.287332202951622e-16
outer loop
vertex 5.4 5.0 3.9999999999999996
vertex 5.352296156804695 0.0 3.6376533368564705
vertex 5.4 0.0 3.9999999999999996
endloop
endfacet
facet normal -0.9659258262890684 0.0 0.25881904510252046
outer loop
vertex 5.352296156804695 0.0 3.6376533368564705
vertex 5.4 5.0 3.9999999999999996
vertex 5.352296156804695 5.0 3.6376533368564705
endloop
endfacet
facet normal -0.9659258262890681 0.0 -0.2588190451025213
outer loop
vertex 5.352296156804695 5.0 4.36234666314353
vertex 5.4 0.0 3.9999999999999996
vertex 5.352296156804695 0.0 4.36234666314353
endloop
endfacet
facet normal -1.0 0.0 -8.287332202951622e-16
outer loop
vertex 5.4 0.0 3.9999999999999996
vertex 5.352296156804695 5.0 4.36234666314353
vertex 5.4 5.0 3.9999999999999996
endloop
endfacet
facet normal -0.8660254037844387 0.0 -0.5
outer loop
vertex 5.212435565298214 5.0 4.7
vertex 5.352296156804695 0.0 4.36234666314353
vertex 5.212435565298214 0.0 4.7
endloop
endfacet
facet normal -0.9659258262890681 0.0 -0.2588190451025213
outer loop
vertex 5.352296156804695 0.0 4.36234666314353
vertex 5.212435565298214 5.0 4.7
vertex 5.352296156804695 5.0 4.36234666314353
endloop
endfacet
facet normal -0.7071067811865474 0.0 -0.7071067811865479
outer loop
vertex 4.989949493661166 5.0 4.989949493661166
vertex 5.212435565298214 0.0 4.7
vertex 4.989949493661166 0.0 4.989949493661166
endloop
endfacet
facet normal -0.8660254037844387 0.0 -0.5
outer loop
vertex 5.212435565298214 0.0 4.7
vertex 4.989949493661166 5.0 4.989949493661166
vertex 5.212435565298214 5.0 4.7
endloop
endfacet
facet normal -0.7071067811865474 0.0 -0.7071067811865479
outer loop
vertex 4.989949493661166 5.0 4.989949493661166
vertex 4.699999999999999 0.0 5.212435565298215
vertex 4.699999999999999 5.0 5.212435565298215
endloop
endfacet
facet normal -0.49999999999999967 0.0 -0.8660254037844388
outer loop
vertex 4.699999999999999 0.0 5.212435565298215
vertex 4.989949493661166 5.0 4.989949493661166
vertex 4.989949493661166 0.0 4.989949493661166
endloop
endfacet
facet normal -0.49999999999999967 0.0 -0.8660254037844388
outer loop
vertex 4.699999999999999 5.0 5.212435565298215
vertex 4.362346663143528 0.0 5.352296156804695
vertex 4.362346663143528 5.0 5.352296156804695
endloop
endfacet
facet normal -0.2588190451025206 0.0 -0.9659258262890684
outer loop
vertex 4.362346663143528 0.0 5.352296156804695
vertex 4.699999999999999 5.0 5.212435565298215
vertex 4.699999999999999 0.0 5.212435565298215
endloop
endfacet
facet normal -0.2588190451025206 0.0 -0.9659258262890684
outer loop
vertex 4.362346663143528 5.0 5.352296156804695
vertex 3.9999999999999996 0.0 5.4
vertex 3.9999999999999996 5.0 5.4
endloop
endfacet
facet normal 7.039776817561056e-16 0.0 -1.0
outer loop
vertex 3.9999999999999996 0.0 5.4
vertex 4.362346663143528 5.0 5.352296156804695
vertex 4.362346663143528 0.0 5.352296156804695
endloop
endfacet
facet normal 7.039776817561056e-16 0.0 -1.0
outer loop
vertex 3.9999999999999996 5.0 5.4
vertex 3.6376533368564696 0.0 5.352296156804695
vertex 3.6376533368564696 5.0 5.352296156804695
endloop
endfacet
facet normal 0.2588190451025213 0.0 -0.9659258262890681
outer loop
vertex 3.6376533368564696 0.0 5.352296156804695
vertex 3.9999999999999996 5.0 5.4
vertex 3.9999999999999996 0.0 5.4
endloop
endfacet
facet normal 0.2588190451025213 0.0 -0.9659258262890681
outer loop
vertex 3.6376533368564696 5.0 5.352296156804695
vertex 3.299999999999999 0.0 5.212435565298214
vertex 3.299999999999999 5.0 5.212435565298214
endloop
endfacet
facet normal 0.5000000000000002 0.0 -0.8660254037844384
outer loop
vertex 3.299999999999999 0.0 5.212435565298214
vertex 3.6376533368564696 5.0 5.352296156804695
vertex 3.6376533368564696 0.0 5.352296156804695
endloop
endfacet
facet normal 0.5000000000000002 0.0 -0.8660254037844384
outer loop
vertex 3.299999999999999 5.0 5.212435565298214
vertex 3.0100505063388323 0.0 4.9899494936611655
vertex 3.0100505063388323 5.0 4.9899494936611655
endloop
endfacet
facet normal 0.7071067811865477 0.0 -0.7071067811865475
outer loop
vertex 3.0100505063388323 0.0 4.9899494936611655
vertex 3.299999999999999 5.0 5.212435565298214
vertex 3.299999999999999 0.0 5.212435565298214
endloop
endfacet
facet normal 0.8660254037844388 0.0 -0.4999999999999998
outer loop
vertex 2.787564434701785 5.0 4.7
vertex 3.0100505063388323 0.0 4.9899494936611655
vertex 2.787564434701785 0.0 4.7
endloop
endfacet
facet normal 0.7071067811865477 0.0 -0.7071067811865475
outer loop
vertex 3.0100505063388323 0.0 4.9899494936611655
vertex 2.787564434701785 5.0 4.7
vertex 3.0100505063388323 5.0 4.9899494936611655
endloop
endfacet
facet normal 0.9659258262890685 0.0 -0.2588190451025203
outer loop
vertex 2.6477038431953037 5.0 4.362346663143528
vertex 2.787564434701785 0.0 4.7
vertex 2.6477038431953037 0.0 4.362346663143528
endloop
endfacet
facet normal 0.8660254037844388 0.0 -0.4999999999999998
outer loop
vertex 2.787564434701785 0.0 4.7
vertex 2.6477038431953037 5.0 4.362346663143528
vertex 2.787564434701785 5.0 4.7
endloop
endfacet
facet normal 1.0 0.0 3.5644439582587626e-16
outer loop
vertex 2.5999999999999996 5.0 3.9999999999999996
vertex 2.6477038431953037 0.0 4.362346663143528
vertex 2.5999999999999996 0.0 3.9999999999999996
endloop
endfacet
facet normal 0.9659258262890685 0.0 -0.2588190451025203
outer loop
vertex 2.6477038431953037 0.0 4.362346663143528
vertex 2.5999999999999996 5.0 3.9999999999999996
vertex 2.6477038431953037 5.0 4.362346663143528
endloop
endfacet
facet normal 0.9659258262890682 0.0 0.2588190451025211
outer loop
vertex 2.647703843195304 5.0 3.6376533368564705
vertex 2.5999999999999996 0.0 3.9999999999999996
vertex 2.647703843195304 0.0 3.6376533368564705
endloop
endfacet
facet normal 1.0 0.0 3.5644439582587626e-16
outer loop
vertex 2.5999999999999996 0.0 3.9999999999999996
vertex 2.647703843195304 5.0 3.6376533368564705
vertex 2.5999999999999996 5.0 3.9999999999999996
endloop
endfacet
facet normal 0.8660254037844386 0.0 0.5
outer loop
vertex 2.787564434701786 5.0 3.299999999999999
vertex 2.647703843195304 0.0 3.6376533368564705
vertex 2.787564434701786 0.0 3.299999999999999
endloop
endfacet
facet normal 0.9659258262890682 0.0 0.2588190451025211
outer loop
vertex 2.647703843195304 0.0 3.6376533368564705
vertex 2.787564434701786 5.0 3.299999999999999
vertex 2.647703843195304 5.0 3.6376533368564705
endloop
endfacet
facet normal 0.7071067811865477 0.0 0.7071067811865475
outer loop
vertex 3.0100505063388328 5.0 3.0100505063388328
vertex 2.787564434701786 0.0 3.299999999999999
vertex 3.0100505063388328 0.0 3.0100505063388328
endloop
endfacet
facet normal 0.8660254037844386 0.0 0.5
outer loop
vertex 2.787564434701786 0.0 3.299999999999999
vertex 3.0100505063388328 5.0 3.0100505063388328
vertex 2.787564434701786 5.0 3.299999999999999
endloop
endfacet
facet normal 0.5 0.0 0.8660254037844387
outer loop
vertex 3.2999999999999994 0.0 2.787564434701785
vertex 3.0100505063388328 5.0 3.0100505063388328
vertex 3.0100505063388328 0.0 3.0100505063388328
endloop
endfacet
facet normal 0.7071067811865477 0.0 0.7071067811865475
outer loop
vertex 3.0100505063388328 5.0 3.0100505063388328
vertex 3.2999999999999994 0.0 2.787564434701785
vertex 3.2999999999999994 5.0 2.787564434701785
endloop
endfacet
facet normal 0.2588190451025203 0.0 0.9659258262890685
outer loop
vertex 3.637653336856471 0.0 2.6477038431953037
vertex 3.2999999999999994 5.0 2.787564434701785
vertex 3.2999999999999994 0.0 2.787564434701785
endloop
endfacet
facet normal 0.5 0.0 0.8660254037844387
outer loop
vertex 3.2999999999999994 5.0 2.787564434701785
vertex 3.637653336856471 0.0 2.6477038431953037
vertex 3.637653336856471 5.0 2.6477038431953037
endloop
endfacet
facet normal -3.5644439582587626e-16 0.0 1.0
outer loop
vertex 3.9999999999999996 0.0 2.5999999999999996
vertex 3.637653336856471 5.0 2.6477038431953037
vertex 3.637653336856471 0.0 2.6477038431953037
endloop
endfacet
facet normal 0.2588190451025203 0.0 0.9659258262890685
outer loop
vertex 3.637653336856471 5.0 2.6477038431953037
vertex 3.9999999999999996 0.0 2.5999999999999996
vertex 3.9999999999999996 5.0 2.5999999999999996
endloop
endfacet
facet normal -0.25881904510252096 0.0 0.9659258262890682
outer loop
vertex 4.362346663143529 0.0 2.647703843195304
vertex 3.9999999999999996 5.0 2.5999999999999996
vertex 3.9999999999999996 0.0 2.5999999999999996
endloop
endfacet
facet normal -3.5644439582587626e-16 0.0 1.0
outer loop
vertex 3.9999999999999996 5.0 2.5999999999999996
vertex 4.362346663143529 0.0 2.647703843195304
vertex 4.362346663143529 5.0 2.647703843195304
endloop
endfacet
facet normal -0.5 0.0 0.8660254037844387
outer loop
vertex 4.7 0.0 2.7875644347017854
vertex 4.362346663143529 5.0 2.647703843195304
vertex 4.362346663143529 0.0 2.647703843195304
endloop
endfacet
facet normal -0.25881904510252096 0.0 0.9659258262890682
outer loop
vertex 4.362346663143529 5.0 2.647703843195304
vertex 4.7 0.0 2.7875644347017854
vertex 4.7 5.0 2.7875644347017854
endloop
endfacet
facet normal -0.7071067811865472 0.0 0.7071067811865478
outer loop
vertex 4.989949493661166 0.0 3.0100505063388328
vertex 4.7 5.0 2.7875644347017854
vertex 4.7 0.0 2.7875644347017854
endloop
endfacet
facet normal -0.5 0.0 0.8660254037844387
outer loop
vertex 4.7 5.0 2.7875644347017854
vertex 4.989949493661166 0.0 3.0100505063388328
vertex 4.989949493661166 5.0 3.0100505063388328
endloop
endfacet
facet normal -0.8660254037844384 0.0 0.5000000000000002
outer loop
vertex 5.212435565298215 5.0 3.2999999999999994
vertex 4.989949493661166 0.0 3.0100505063388328
vertex 5.212435565298215 0.0 3.2999999999999994
endloop
endfacet
facet normal -0.7071067811865472 0.0 0.7071067811865478
outer loop
vertex 4.989949493661166 0.0 3.0100505063388328
vertex 5.212435565298215 5.0 3.2999999999999994
vertex 4.989949493661166 5.0 3.0100505063388328
endloop
endfacet
facet normal -0.9659258262890684 0.0 0.25881904510252046
outer loop
vertex 5.352296156804695 5.0 3.6376533368564705
vertex 5.212435565298215 0.0 3.2999999999999994
vertex 5.352296156804695 0.0 3.6376533368564705
endloop
endfacet
facet normal -0.8660254037844384 0.0 0.5000000000000002
outer loop
vertex 5.212435565298215 0.0 3.2999999999999994
vertex 5.352296156804695 5.0 3.6376533368564705
vertex 5.212435565298215 5.0 3.2999999999999994
endloop
endfacet
facet normal 0.5000000000000021 0.0 0.8660254037844375
outer loop
vertex 35.3 0.0 2.787564434701785
vertex 35.010050506338835 5.0 3.0100505063388328
vertex 35.010050506338835 0.0 3.0100505063388328
endloop
endfacet
facet normal 0.7071067811865486 0.0 0.7071067811865466
outer loop
vertex 35.010050506338835 5.0 3.0100505063388328
vertex 35.3 0.0 2.787564434701785
vertex 35.3 5.0 2.787564434701785
endloop
endfacet
facet normal 0.25881904510251885 0.0 0.9659258262890688
outer loop
vertex 35.637653336856474 0.0 2.6477038431953037
vertex 35.3 5.0 2.787564434701785
vertex 35.3 0.0 2.787564434701785
endloop
endfacet
facet normal 0.5000000000000021 0.0 0.8660254037844375
outer loop
vertex 35.3 5.0 2.787564434701785
vertex 35.637653336856474 0.0 2.6477038431953037
vertex 35.637653336856474 5.0 2.6477038431953037
endloop
endfacet
facet normal -1.4970664624686802e-15 0.0 1.0
outer loop
vertex 36.0 0.0 2.5999999999999996
vertex 35.637653336856474 5.0 2.6477038431953037
vertex 35.637653336856474 0.0 2.6477038431953037
endloop
endfacet
facet normal 0.25881904510251885 0.0 0.9659258262890688
outer loop
vertex 35.637653336856474 5.0 2.6477038431953037
vertex 36.0 0.0 2.5999999999999996
vertex 36.0 5.0 2.5999999999999996
endloop
endfacet
facet normal -0.25881904510252024 0.0 0.9659258262890683
outer loop
vertex 36.362346663143526 0.0 2.647703843195304
vertex 36.0 5.0 2.5999999999999996
vertex 36.0 0.0 2.5999999999999996
endloop
endfacet
facet normal -1.4970664624686802e-15 0.0 1.0
outer loop
vertex 36.0 5.0 2.5999999999999996
vertex 36.362346663143526 0.0 2.647703843195304
vertex 36.362346663143526 5.0 2.647703843195304
endloop
endfacet
facet normal -0.49999999999999767 0.0 0.86602540378444
outer loop
vertex 36.7 0.0 2.7875644347017854
vertex 36.362346663143526 5.0 2.647703843195304
vertex 36.362346663143526 0.0 2.647703843195304
endloop
endfacet
facet normal -0.25881904510252024 0.0 0.9659258262890683
outer loop
vertex 36.362346663143526 5.0 2.647703843195304
vertex 36.7 0.0 2.7875644347017854
vertex 36.7 5.0 2.7875644347017854
endloop
endfacet
facet normal -0.7071067811865496 0.0 0.7071067811865454
outer loop
vertex 36.98994949366117 0.0 3.0100505063388328
vertex 36.7 5.0 2.7875644347017854
vertex 36.7 0.0 2.7875644347017854
endloop
endfacet
facet normal -0.49999999999999767 0.0 0.86602540378444
outer loop
vertex 36.7 5.0 2.7875644347017854
vertex 36.98994949366117 0.0 3.0100505063388328
vertex 36.98994949366117 5.0 3.0100505063388328
endloop
endfacet
facet normal -0.8660254037844408 0.0 0.4999999999999962
outer loop
vertex 37.212435565298215 5.0 3.2999999999999994
vertex 36.98994949366117 0.0 3.0100505063388328
vertex 37.212435565298215 0.0 3.2999999999999994
endloop
endfacet
facet normal -0.7071067811865496 0.0 0.7071067811865454
outer loop
vertex 36.98994949366117 0.0 3.0100505063388328
vertex 37.212435565298215 5.0 3.2999999999999994
vertex 36.98994949366117 5.0 3.0100505063388328
endloop
endfacet
facet normal -0.9659258262890679 0.0 0.25881904510252235
outer loop
vertex 37.35229615680469 5.0 3.6376533368564705
vertex 37.212435565298215 0.0 3.2999999999999994
vertex 37.35229615680469 0.0 3.6376533368564705
endloop
endfacet
facet normal -0.8660254037844408 0.0 0.4999999999999962
outer loop
vertex 37.212435565298215 0.0 3.2999999999999994
vertex 37.35229615680469 5.0 3.6376533368564705
vertex 37.212435565298215 5.0 3.2999999999999994
endloop
endfacet
facet normal -1.0 0.0 1.158444286434098e-16
outer loop
vertex 37.4 5.0 3.9999999999999996
vertex 37.35229615680469 0.0 3.6376533368564705
vertex 37.4 0.0 3.9999999999999996
endloop
endfacet
facet normal -0.9659258262890679 0.0 0.25881904510252235
outer loop
vertex 37.35229615680469 0.0 3.6376533368564705
vertex 37.4 5.0 3.9999999999999996
vertex 37.35229615680469 5.0 3.6376533368564705
endloop
endfacet
facet normal -0.9659258262890679 0.0 -0.25881904510252224
outer loop
vertex 37.35229615680469 5.0 4.36234666314353
vertex 37.4 0.0 3.9999999999999996
vertex 37.35229615680469 0.0 4.36234666314353
endloop
endfacet
facet normal -1.0 0.0 1.158444286434098e-16
outer loop
vertex 37.4 0.0 3.9999999999999996
vertex 37.35229615680469 5.0 4.36234666314353
vertex 37.4 5.0 3.9999999999999996
endloop
endfacet
facet normal -0.8660254037844406 0.0 -0.4999999999999968
outer loop
vertex 37.212435565298215 5.0 4.7
vertex 37.35229615680469 0.0 4.36234666314353
vertex 37.212435565298215 0.0 4.7
endloop
endfacet
facet normal -0.9659258262890679 0.0 -0.25881904510252224
outer loop
vertex 37.35229615680469 0.0 4.36234666314353
vertex 37.212435565298215 5.0 4.7
vertex 37.35229615680469 5.0 4.36234666314353
endloop
endfacet
facet normal -0.7071067811865497 0.0 -0.7071067811865455
outer loop
vertex 36.98994949366117 5.0 4.989949493661166
vertex 37.212435565298215 0.0 4.7
vertex 36.98994949366117 0.0 4.989949493661166
endloop
endfacet
facet normal -0.8660254037844406 0.0 -0.4999999999999968
outer loop
vertex 37.212435565298215 0.0 4.7
vertex 36.98994949366117 5.0 4.989949493661166
vertex 37.212435565298215 5.0 4.7
endloop
endfacet
facet normal -0.7071067811865497 0.0 -0.7071067811865455
outer loop
vertex 36.98994949366117 5.0 4.989949493661166
vertex 36.7 0.0 5.212435565298215
vertex 36.7 5.0 5.212435565298215
endloop
endfacet
facet normal -0.49999999999999795 0.0 -0.8660254037844398
outer loop
vertex 36.7 0.0 5.212435565298215
vertex 36.98994949366117 5.0 4.989949493661166
vertex 36.98994949366117 0.0 4.989949493661166
endloop
endfacet
facet normal -0.49999999999999795 0.0 -0.8660254037844398
outer loop
vertex 36.7 5.0 5.212435565298215
vertex 36.362346663143526 0.0 5.352296156804695
vertex 36.362346663143526 5.0 5.352296156804695
endloop
endfacet
facet normal -0.2588190451025198 0.0 -0.9659258262890685
outer loop
vertex 36.362346663143526 0.0 5.352296156804695
vertex 36.7 5.0 5.212435565298215
vertex 36.7 0.0 5.212435565298215
endloop
endfacet
facet normal -0.2588190451025198 0.0 -0.9659258262890685
outer loop
vertex 36.362346663143526 5.0 5.352296156804695
vertex 36.0 0.0 5.4
vertex 36.0 5.0 5.4
endloop
endfacet
facet normal -5.346665937388143e-17 0.0 -1.0
outer loop
vertex 36.0 0.0 5.4
vertex 36.362346663143526 5.0 5.352296156804695
vertex 36.362346663143526 0.0 5.352296156804695
endloop
endfacet
facet normal -5.346665937388143e-17 0.0 -1.0
outer loop
vertex 36.0 5.0 5.4
vertex 35.637653336856474 0.0 5.352296156804695
vertex 35.637653336856474 5.0 5.352296156804695
endloop
endfacet
facet normal 0.25881904510251974 0.0 -0.9659258262890685
outer loop
vertex 35.637653336856474 0.0 5.352296156804695
vertex 36.0 5.0 5.4
vertex 36.0 0.0 5.4
endloop
endfacet
facet normal 0.25881904510251974 0.0 -0.9659258262890685
outer loop
vertex 35.637653336856474 5.0 5.352296156804695
vertex 35.3 0.0 5.212435565298214
vertex 35.3 5.0 5.212435565298214
endloop
endfacet
facet normal 0.49999999999999795 0.0 -0.8660254037844398
outer loop
vertex 35.3 0.0 5.212435565298214
vertex 35.637653336856474 5.0 5.352296156804695
vertex 35.637653336856474 0.0 5.352296156804695
endloop
endfacet
facet normal 0.49999999999999795 0.0 -0.8660254037844398
outer loop
vertex 35.3 5.0 5.212435565298214
vertex 35.01005050633883 0.0 4.9899494936611655
vertex 35.01005050633883 5.0 4.9899494936611655
endloop
endfacet
facet normal 0.7071067811865497 0.0 -0.7071067811865455
outer loop
vertex 35.01005050633883 0.0 4.9899494936611655
vertex 35.3 5.0 5.212435565298214
vertex 35.3 0.0 5.212435565298214
endloop
endfacet
facet normal 0.8660254037844407 0.0 -0.4999999999999964
outer loop
vertex 34.787564434701785 5.0 4.7
vertex 35.01005050633883 0.0 4.9899494936611655
vertex 34.787564434701785 0.0 4.7
endloop
endfacet
facet normal 0.7071067811865497 0.0 -0.7071067811865455
outer loop
vertex 35.01005050633883 0.0 4.9899494936611655
vertex 34.787564434701785 5.0 4.7
vertex 35.01005050633883 5.0 4.9899494936611655
endloop
endfacet
facet normal 0.965925826289068 0.0 -0.2588190451025222
outer loop
vertex 34.6477038431953 5.0 4.362346663143528
vertex 34.787564434701785 0.0 4.7
vertex 34.6477038431953 0.0 4.362346663143528
endloop
endfacet
facet normal 0.8660254037844407 0.0 -0.4999999999999964
outer loop
vertex 34.787564434701785 0.0 4.7
vertex 34.6477038431953 5.0 4.362346663143528
vertex 34.787564434701785 5.0 4.7
endloop
endfacet
facet normal 1.0 0.0 -1.4257775833035053e-16
outer loop
vertex 34.6 5.0 3.9999999999999996
vertex 34.6477038431953 0.0 4.362346663143528
vertex 34.6 0.0 3.9999999999999996
endloop
endfacet
facet normal 0.965925826289068 0.0 -0.2588190451025222
outer loop
vertex 34.6477038431953 0.0 4.362346663143528
vertex 34.6 5.0 3.9999999999999996
vertex 34.6477038431953 5.0 4.362346663143528
endloop
endfacet
facet normal 0.965925826289068 0.0 0.258819045102522
outer loop
vertex 34.6477038431953 5.0 3.6376533368564705
vertex 34.6 0.0 3.9999999999999996
vertex 34.6477038431953 0.0 3.6376533368564705
endloop
endfacet
facet normal 1.0 0.0 -1.4257775833035053e-16
outer loop
vertex 34.6 0.0 3.9999999999999996
vertex 34.6477038431953 5.0 3.6376533368564705
vertex 34.6 5.0 3.9999999999999996
endloop
endfacet
facet normal 0.8660254037844376 0.0 0.5000000000000017
outer loop
vertex 34.787564434701785 5.0 3.299999999999999
vertex 34.6477038431953 0.0 3.6376533368564705
vertex 34.787564434701785 0.0 3.299999999999999
endloop
endfacet
facet normal 0.965925826289068 0.0 0.258819045102522
outer loop
vertex 34.6477038431953 0.0 3.6376533368564705
vertex 34.787564434701785 5.0 3.299999999999999
vertex 34.6477038431953 5.0 3.6376533368564705
endloop
endfacet
facet normal 0.7071067811865486 0.0 0.7071067811865466
outer loop
vertex 35.010050506338835 5.0 3.0100505063388328
vertex 34.787564434701785 0.0 3.299999999999999
vertex 35.010050506338835 0.0 3.0100505063388328
endloop
endfacet
facet normal 0.8660254037844376 0.0 0.5000000000000017
outer loop
vertex 34.787564434701785 0.0 3.299999999999999
vertex 35.010050506338835 5.0 3.0100505063388328
vertex 34.787564434701785 5.0 3.299999999999999
endloop
endfacet
facet normal 0.8314696123025449 0.0 0.5555702330196026
outer loop
vertex 4.202077366251638 4.999999999999999 9.444165572627554
vertex 3.8689230315382934 0.0 10.0
vertex 4.202077366251638 0.0 9.444165572627554
endloop
endfacet
facet normal 0.8577286100002719 -0.0 0.5141027441932221
outer loop
vertex 3.8689230315382934 0.0 10.0
vertex 4.202077366251638 4.999999999999999 9.444165572627554
vertex 3.8689230315382934 4.999999999999999 10.0
endloop
endfacet
facet normal 0.7730104533627367 0.0 0.6343932841636462
outer loop
vertex 5.312801386107996 4.999999999999999 7.946527600890733
vertex 4.202077366251638 0.0 9.444165572627554
vertex 5.312801386107996 0.0 7.946527600890733
endloop
endfacet
facet normal 0.8314696123025449 0.0 0.5555702330196026
outer loop
vertex 4.202077366251638 0.0 9.444165572627554
vertex 5.312801386107996 4.999999999999999 7.946527600890733
vertex 4.202077366251638 4.999999999999999 9.444165572627554
endloop
endfacet
facet normal 0.7071067811865475 0.0 0.7071067811865477
outer loop
vertex 6.564971157455598 4.999999999999999 6.564971157455594
vertex 5.312801386107996 0.0 7.946527600890733
vertex 6.564971157455598 0.0 6.564971157455594
endloop
endfacet
facet normal 0.7730104533627367 0.0 0.6343932841636462
outer loop
vertex 5.312801386107996 0.0 7.946527600890733
vertex 6.564971157455598 4.999999999999999 6.564971157455594
vertex 5.312801386107996 4.999999999999999 7.946527600890733
endloop
endfacet
facet normal 0.6343932841636458 0.0 0.7730104533627368
outer loop
vertex 7.946527600890733 0.0 5.312801386107996
vertex 6.564971157455598 4.999999999999999 6.564971157455594
vertex 6.564971157455598 0.0 6.564971157455594
endloop
endfacet
facet normal 0.7071067811865475 0.0 0.7071067811865477
outer loop
vertex 6.564971157455598 4.999999999999999 6.564971157455594
vertex 7.946527600890733 0.0 5.312801386107996
vertex 7.946527600890733 4.999999999999999 5.312801386107996
endloop
endfacet
facet normal 0.5555702330196024 0.0 0.831469612302545
outer loop
vertex 9.444165572627556 0.0 4.202077366251638
vertex 7.946527600890733 4.999999999999999 5.312801386107996
vertex 7.946527600890733 0.0 5.312801386107996
endloop
endfacet
facet normal 0.6343932841636458 0.0 0.7730104533627368
outer loop
vertex 7.946527600890733 4.999999999999999 5.312801386107996
vertex 9.444165572627556 0.0 4.202077366251638
vertex 9.444165572627556 4.999999999999999 4.202077366251638
endloop
endfacet
facet normal 0.4713967368259977 0.0 0.881921264348355
outer loop
vertex 11.043462000306043 0.0 3.2434959773812513
vertex 9.444165572627556 4.999999999999999 4.202077366251638
vertex 9.444165572627556 0.0 4.202077366251638
endloop
endfacet
facet normal 0.5555702330196024 0.0 0.831469612302545
outer loop
vertex 9.444165572627556 4.999999999999999 4.202077366251638
vertex 11.043462000306043 0.0 3.2434959773812513
vertex 11.043462000306043 4.999999999999999 3.2434959773812513
endloop
endfacet
facet normal 0.3826834323650894 -4.939119214955616e-18 0.9238795325112868
outer loop
vertex 12.729014785063294 0.0 2.446288882285549
vertex 11.043462000306043 4.999999999999999 3.2434959773812513
vertex 11.043462000306043 0.0 3.2434959773812513
endloop
endfacet
facet normal 0.4713967368259977 0.0 0.881921264348355
outer loop
vertex 11.043462000306043 4.999999999999999 3.2434959773812513
vertex 12.729014785063294 0.0 2.446288882285549
vertex 12.729014785063294 4.999999999999999 2.446288882285549
endloop
endfacet
facet normal 0.29028467725446183 -4.939119214955616e-18 0.956940335732209
outer loop
vertex 14.484591132165214 0.0 1.8181336210880295
vertex 12.729014785063294 4.999999999999999 2.446288882285549
vertex 12.729014785063294 0.0 2.446288882285549
endloop
endfacet
facet normal 0.3826834323650894 -4.939119214955616e-18 0.9238795325112868
outer loop
vertex 12.729014785063294 4.999999999999999 2.446288882285549
vertex 14.484591132165214 0.0 1.8181336210880295
vertex 13.976308653495446 4.999999999999999 2.0000000000000004
endloop
endfacet
facet normal 0.3368898533922198 -9.866339659106654e-18 0.9415440651830208
outer loop
vertex 13.976308653495446 4.999999999999999 2.0000000000000004
vertex 14.484591132165214 0.0 1.8181336210880295
vertex 13.976308653495446 26.99999999999999 2.0000000000000004
endloop
endfacet
facet normal 0.3368898533922198 -9.866339659106654e-18 0.9415440651830208
outer loop
vertex 13.976308653495446 26.99999999999999 2.0000000000000004
vertex 14.484591132165214 0.0 1.8181336210880295
vertex 14.484591132165214 26.99999999999999 1.8181336210880295
endloop
endfacet
facet normal 0.19509032201612875 0.0 0.9807852804032304
outer loop
vertex 16.29328388169356 0.0 1.3650796723386207
vertex 14.484591132165214 26.99999999999999 1.8181336210880295
vertex 14.484591132165214 0.0 1.8181336210880295
endloop
endfacet
facet normal 0.29028467725446183 -4.939119214955616e-18 0.956940335732209
outer loop
vertex 14.484591132165214 26.99999999999999 1.8181336210880295
vertex 16.29328388169356 0.0 1.3650796723386207
vertex 16.29328388169356 26.99999999999999 1.3650796723386207
endloop
endfacet
facet normal 0.09801714032956091 0.0 0.9951847266721968
outer loop
vertex 18.137674333738346 0.0 1.0914901932282555
vertex 16.29328388169356 26.99999999999999 1.3650796723386207
vertex 16.29328388169356 0.0 1.3650796723386207
endloop
endfacet
facet normal 0.19509032201612875 0.0 0.9807852804032304
outer loop
vertex 16.29328388169356 26.99999999999999 1.3650796723386207
vertex 18.137674333738346 0.0 1.0914901932282555
vertex 18.137674333738346 26.99999999999999 1.0914901932282555
endloop
endfacet
facet normal -3.980488023979065e-17 0.0 1.0
outer loop
vertex 19.999999999999996 0.0 0.9999999999999981
vertex 18.137674333738346 26.99999999999999 1.0914901932282555
vertex 18.137674333738346 0.0 1.0914901932282555
endloop
endfacet
facet normal 0.09801714032956091 0.0 0.9951847266721968
outer loop
vertex 18.137674333738346 26.99999999999999 1.0914901932282555
vertex 19.999999999999996 0.0 0.9999999999999981
vertex 19.999999999999996 26.99999999999999 0.9999999999999981
endloop
endfacet
facet normal -0.09801714032956055 0.0 0.995184726672197
outer loop
vertex 21.862325666261647 0.0 1.0914901932282555
vertex 19.999999999999996 26.99999999999999 0.9999999999999981
vertex 19.999999999999996 0.0 0.9999999999999981
endloop
endfacet
facet normal -3.980488023979065e-17 0.0 1.0
outer loop
vertex 19.999999999999996 26.99999999999999 0.9999999999999981
vertex 21.862325666261647 0.0 1.0914901932282555
vertex 21.862325666261647 26.99999999999999 1.0914901932282555
endloop
endfacet
facet normal -0.19509032201612847 0.0 0.9807852804032305
outer loop
vertex 23.706716118306442 0.0 1.3650796723386207
vertex 21.862325666261647 26.99999999999999 1.0914901932282555
vertex 21.862325666261647 0.0 1.0914901932282555
endloop
endfacet
facet normal -0.09801714032956055 0.0 0.995184726672197
outer loop
vertex 21.862325666261647 26.99999999999999 1.0914901932282555
vertex 23.706716118306442 0.0 1.3650796723386207
vertex 23.706716118306442 26.99999999999999 1.3650796723386207
endloop
endfacet
facet normal -0.2902846772544629 -8.643458626172254e-18 0.9569403357322087
outer loop
vertex 25.515408867834786 0.0 1.8181336210880295
vertex 23.706716118306442 26.99999999999999 1.3650796723386207
vertex 23.706716118306442 0.0 1.3650796723386207
endloop
endfacet
facet normal -0.19509032201612847 0.0 0.9807852804032305
outer loop
vertex 23.706716118306442 26.99999999999999 1.3650796723386207
vertex 25.515408867834786 0.0 1.8181336210880295
vertex 25.515408867834786 26.99999999999999 1.8181336210880295
endloop
endfacet
facet normal -0.2902846772544629 -8.643458626172254e-18 0.9569403357322087
outer loop
vertex 25.515408867834786 0.0 1.8181336210880295
vertex 26.02369134650455 4.999999999999999 2.0000000000000004
vertex 25.515408867834786 26.99999999999999 1.8181336210880295
endloop
endfacet
facet normal -0.33688985339222133 -1.7266094403436496e-17 0.9415440651830203
outer loop
vertex 26.02369134650455 4.999999999999999 2.0000000000000004
vertex 25.515408867834786 0.0 1.8181336210880295
vertex 27.27098521493671 0.0 2.4462888822855544
endloop
endfacet
facet normal -0.33688985339222133 -1.7266094403436496e-17 0.9415440651830203
outer loop
vertex 26.02369134650455 4.999999999999999 2.0000000000000004
vertex 27.27098521493671 0.0 2.4462888822855544
vertex 27.27098521493671 4.999999999999999 2.4462888822855544
endloop
endfacet
facet normal -0.33688985339222133 -1.7266094403436496e-17 0.9415440651830203
outer loop
vertex 26.02369134650455 26.99999999999999 2.0000000000000004
vertex 25.515408867834786 26.99999999999999 1.8181336210880295
vertex 26.02369134650455 4.999999999999999 2.0000000000000004
endloop
endfacet
facet normal -0.4713967368259979 0.0 0.8819212643483548
outer loop
vertex 28.956537999693957 0.0 3.243495977381257
vertex 27.27098521493671 4.999999999999999 2.4462888822855544
vertex 27.27098521493671 0.0 2.4462888822855544
endloop
endfacet
facet normal -0.3826834323650908 -8.643458626172254e-18 0.9238795325112865
outer loop
vertex 27.27098521493671 4.999999999999999 2.4462888822855544
vertex 28.956537999693957 0.0 3.243495977381257
vertex 28.956537999693957 4.999999999999999 3.243495977381257
endloop
endfacet
facet normal -0.5555702330196024 0.0 0.831469612302545
outer loop
vertex 30.555834427372435 0.0 4.202077366251638
vertex 28.956537999693957 4.999999999999999 3.243495977381257
vertex 28.956537999693957 0.0 3.243495977381257
endloop
endfacet
facet normal -0.4713967368259979 0.0 0.8819212643483548
outer loop
vertex 28.956537999693957 4.999999999999999 3.243495977381257
vertex 30.555834427372435 0.0 4.202077366251638
vertex 30.555834427372435 4.999999999999999 4.202077366251638
endloop
endfacet
facet normal -0.634393284163646 0.0 0.7730104533627367
outer loop
vertex 32.05347239910927 0.0 5.312801386108005
vertex 30.555834427372435 4.999999999999999 4.202077366251638
vertex 30.555834427372435 0.0 4.202077366251638
endloop
endfacet
facet normal -0.5555702330196024 0.0 0.831469612302545
outer loop
vertex 30.555834427372435 4.999999999999999 4.202077366251638
vertex 32.05347239910927 0.0 5.312801386108005
vertex 32.05347239910927 4.999999999999999 5.312801386108005
endloop
endfacet
facet normal -0.7071067811865477 0.0 0.7071067811865474
outer loop
vertex 33.4350288425444 0.0 6.564971157455598
vertex 32.05347239910927 4.999999999999999 5.312801386108005
vertex 32.05347239910927 0.0 5.312801386108005
endloop
endfacet
facet normal -0.634393284163646 0.0 0.7730104533627367
outer loop
vertex 32.05347239910927 4.999999999999999 5.312801386108005
vertex 33.4350288425444 0.0 6.564971157455598
vertex 33.4350288425444 4.999999999999999 6.564971157455598
endloop
endfacet
facet normal -0.7730104533627374 0.0 0.634393284163645
outer loop
vertex 34.687198613891994 4.999999999999999 7.9465276008907315
vertex 33.4350288425444 0.0 6.564971157455598
vertex 34.687198613891994 0.0 7.9465276008907315
endloop
endfacet
facet normal -0.7071067811865477 0.0 0.7071067811865474
outer loop
vertex 33.4350288425444 0.0 6.564971157455598
vertex 34.687198613891994 4.999999999999999 7.9465276008907315
vertex 33.4350288425444 4.999999999999999 6.564971157455598
endloop
endfacet
facet normal -0.8314696123025462 0.0 0.5555702330196006
outer loop
vertex 35.79792263374836 4.999999999999999 9.444165572627563
vertex 34.687198613891994 0.0 7.9465276008907315
vertex 35.79792263374836 0.0 9.444165572627563
endloop
endfacet
facet normal -0.7730104533627374 0.0 0.634393284163645
outer loop
vertex 34.687198613891994 0.0 7.9465276008907315
vertex 35.79792263374836 4.999999999999999 9.444165572627563
vertex 34.687198613891994 4.999999999999999 7.9465276008907315
endloop
endfacet
facet normal -0.8577286100002732 0.0 0.5141027441932197
outer loop
vertex 36.13107696846169 4.999999999999999 10.0
vertex 35.79792263374836 0.0 9.444165572627563
vertex 36.13107696846169 0.0 10.0
endloop
endfacet
facet normal -0.8314696123025462 0.0 0.5555702330196006
outer loop
vertex 35.79792263374836 0.0 9.444165572627563
vertex 36.13107696846169 4.999999999999999 10.0
vertex 35.79792263374836 4.999999999999999 9.444165572627563
endloop
endfacet
facet normal -0.0 -0.0 1.0
outer loop
vertex 3.8689230315382934 0.0 10.0
vertex 0.0 4.999999999999999 10.0
vertex 0.0 0.0 10.0
endloop
endfacet
facet normal -0.0 -0.0 1.0
outer loop
vertex 0.0 4.999999999999999 10.0
vertex 3.8689230315382934 0.0 10.0
vertex 3.8689230315382934 4.999999999999999 10.0
endloop
endfacet
facet normal -6.488235391211385e-17 1.0 5.347436056235086e-17
outer loop
vertex 28.956537999693957 4.999999999999999 3.243495977381257
vertex 36.0 5.0 2.5999999999999996
vertex 27.27098521493671 4.999999999999999 2.4462888822855544
endloop
endfacet
facet normal -6.488235391211385e-17 1.0 5.347436056235086e-17
outer loop
vertex 36.0 5.0 2.5999999999999996
vertex 28.956537999693957 4.999999999999999 3.243495977381257
vertex 35.637653336856474 5.0 2.6477038431953037
endloop
endfacet
facet normal -6.488235391211385e-17 1.0 5.347436056235086e-17
outer loop
vertex 35.637653336856474 5.0 2.6477038431953037
vertex 28.956537999693957 4.999999999999999 3.243495977381257
vertex 35.3 5.0 2.787564434701785
endloop
endfacet
facet normal -6.488235391211385e-17 1.0 5.347436056235086e-17
outer loop
vertex 35.3 5.0 2.787564434701785
vertex 28.956537999693957 4.999999999999999 3.243495977381257
vertex 35.010050506338835 5.0 3.0100505063388328
endloop
endfacet
facet normal -6.488235391211385e-17 1.0 5.347436056235086e-17
outer loop
vertex 35.010050506338835 5.0 3.0100505063388328
vertex 28.956537999693957 4.999999999999999 3.243495977381257
vertex 34.787564434701785 5.0 3.299999999999999
endloop
endfacet
facet normal -6.488235391211385e-17 1.0 5.347436056235086e-17
outer loop
vertex 34.787564434701785 5.0 3.299999999999999
vertex 28.956537999693957 4.999999999999999 3.243495977381257
vertex 30.555834427372435 4.999999999999999 4.202077366251638
endloop
endfacet
facet normal -6.488235391211385e-17 1.0 5.347436056235086e-17
outer loop
vertex 34.787564434701785 5.0 3.299999999999999
vertex 30.555834427372435 4.999999999999999 4.202077366251638
vertex 34.6477038431953 5.0 3.6376533368564705
endloop
endfacet
facet normal -6.488235391211385e-17 1.0 5.347436056235086e-17
outer loop
vertex 34.6477038431953 5.0 3.6376533368564705
vertex 30.555834427372435 4.999999999999999 4.202077366251638
vertex 34.6 5.0 3.9999999999999996
endloop
endfacet
facet normal -6.488235391211385e-17 1.0 5.347436056235086e-17
outer loop
vertex 34.6 5.0 3.9999999999999996
vertex 30.555834427372435 4.999999999999999 4.202077366251638
vertex 34.6477038431953 5.0 4.362346663143528
endloop
endfacet
facet normal -6.488235391211385e-17 1.0 5.347436056235086e-17
outer loop
vertex 34.6477038431953 5.0 4.362346663143528
vertex 30.555834427372435 4.999999999999999 4.202077366251638
vertex 32.05347239910927 4.999999999999999 5.312801386108005
endloop
endfacet
facet normal -6.488235391211385e-17 1.0 5.347436056235086e-17
outer loop
vertex 34.6477038431953 5.0 4.362346663143528
vertex 32.05347239910927 4.999999999999999 5.312801386108005
vertex 34.787564434701785 5.0 4.7
endloop
endfacet
facet normal -6.488235391211385e-17 1.0 5.347436056235086e-17
outer loop
vertex 34.787564434701785 5.0 4.7
vertex 32.05347239910927 4.999999999999999 5.312801386108005
vertex 35.01005050633883 5.0 4.9899494936611655
endloop
endfacet
facet normal -6.488235391211385e-17 1.0 5.347436056235086e-17
outer loop
vertex 35.01005050633883 5.0 4.9899494936611655
vertex 32.05347239910927 4.999999999999999 5.312801386108005
vertex 35.3 5.0 5.212435565298214
endloop
endfacet
facet normal -6.488235391211385e-17 1.0 5.347436056235086e-17
outer loop
vertex 35.3 5.0 5.212435565298214
vertex 32.05347239910927 4.999999999999999 5.312801386108005
vertex 35.637653336856474 5.0 5.352296156804695
endloop
endfacet
facet normal -6.488235391211385e-17 1.0 5.347436056235086e-17
outer loop
vertex 35.637653336856474 5.0 5.352296156804695
vertex 32.05347239910927 4.999999999999999 5.312801386108005
vertex 33.4350288425444 4.999999999999999 6.564971157455598
endloop
endfacet
facet normal -6.488235391211385e-17 1.0 5.347436056235086e-17
outer loop
vertex 35.637653336856474 5.0 5.352296156804695
vertex 33.4350288425444 4.999999999999999 6.564971157455598
vertex 36.0 5.0 5.4
endloop
endfacet
facet normal -6.488235391211385e-17 1.0 5.347436056235086e-17
outer loop
vertex 27.27098521493671 4.999999999999999 2.4462888822855544
vertex 40.0 5.0 2.0000000000000004
vertex 26.02369134650455 4.999999999999999 2.0000000000000004
endloop
endfacet
facet normal -6.488235391211385e-17 1.0 5.347436056235086e-17
outer loop
vertex 40.0 5.0 2.0000000000000004
vertex 27.27098521493671 4.999999999999999 2.4462888822855544
vertex 36.0 5.0 2.5999999999999996
endloop
endfacet
facet normal -6.488235391211385e-17 1.0 5.347436056235086e-17
outer loop
vertex 40.0 5.0 2.0000000000000004
vertex 36.0 5.0 2.5999999999999996
vertex 36.362346663143526 5.0 2.647703843195304
endloop
endfacet
facet normal -6.488235391211385e-17 1.0 5.347436056235086e-17
outer loop
vertex 40.0 5.0 2.0000000000000004
vertex 36.362346663143526 5.0 2.647703843195304
vertex 36.7 5.0 2.7875644347017854
endloop
endfacet
facet normal -6.488235391211385e-17 1.0 5.347436056235086e-17
outer loop
vertex 40.0 5.0 2.0000000000000004
vertex 36.7 5.0 2.7875644347017854
vertex 36.98994949366117 5.0 3.0100505063388328
endloop
endfacet
facet normal -6.488235391211385e-17 1.0 5.347436056235086e-17
outer loop
vertex 40.0 5.0 2.0000000000000004
vertex 36.98994949366117 5.0 3.0100505063388328
vertex 37.212435565298215 5.0 3.2999999999999994
endloop
endfacet
facet normal -6.488235391211385e-17 1.0 5.347436056235086e-17
outer loop
vertex 40.0 5.0 2.0000000000000004
vertex 37.212435565298215 5.0 3.2999999999999994
vertex 40.0 5.0 10.0
endloop
endfacet
facet normal -6.488235391211385e-17 1.0 5.347436056235086e-17
outer loop
vertex 40.0 5.0 10.0
vertex 37.212435565298215 5.0 3.2999999999999994
vertex 37.35229615680469 5.0 3.6376533368564705
endloop
endfacet
facet normal -6.488235391211385e-17 1.0 5.347436056235086e-17
outer loop
vertex 40.0 5.0 10.0
vertex 37.35229615680469 5.0 3.6376533368564705
vertex 37.4 5.0 3.9999999999999996
endloop
endfacet
facet normal -6.488235391211385e-17 1.0 5.347436056235086e-17
outer loop
vertex 40.0 5.0 10.0
vertex 37.4 5.0 3.9999999999999996
vertex 37.35229615680469 5.0 4.36234666314353
endloop
endfacet
facet normal -6.488235391211385e-17 1.0 5.347436056235086e-17
outer loop
vertex 40.0 5.0 10.0
vertex 37.35229615680469 5.0 4.36234666314353
vertex 37.212435565298215 5.0 4.7
endloop
endfacet
facet normal -6.488235391211385e-17 1.0 5.347436056235086e-17
outer loop
vertex 40.0 5.0 10.0
vertex 37.212435565298215 5.0 4.7
vertex 36.98994949366117 5.0 4.989949493661166
endloop
endfacet
facet normal -6.488235391211385e-17 1.0 5.347436056235086e-17
outer loop
vertex 40.0 5.0 10.0
vertex 36.98994949366117 5.0 4.989949493661166
vertex 36.7 5.0 5.212435565298215
endloop
endfacet
facet normal -6.488235391211385e-17 1.0 5.347436056235086e-17
outer loop
vertex 40.0 5.0 10.0
vertex 36.7 5.0 5.212435565298215
vertex 36.362346663143526 5.0 5.352296156804695
endloop
endfacet
facet normal -6.488235391211385e-17 1.0 5.347436056235086e-17
outer loop
vertex 40.0 5.0 10.0
vertex 36.362346663143526 5.0 5.352296156804695
vertex 36.0 5.0 5.4
endloop
endfacet
facet normal -6.488235391211385e-17 1.0 5.347436056235086e-17
outer loop
vertex 40.0 5.0 10.0
vertex 36.0 5.0 5.4
vertex 33.4350288425444 4.999999999999999 6.564971157455598
endloop
endfacet
facet normal -6.488235391211385e-17 1.0 5.347436056235086e-17
outer loop
vertex 40.0 5.0 10.0
vertex 33.4350288425444 4.999999999999999 6.564971157455598
vertex 34.687198613891994 4.999999999999999 7.9465276008907315
endloop
endfacet
facet normal -6.488235391211385e-17 1.0 5.347436056235086e-17
outer loop
vertex 40.0 5.0 10.0
vertex 34.687198613891994 4.999999999999999 7.9465276008907315
vertex 35.79792263374836 4.999999999999999 9.444165572627563
endloop
endfacet
facet normal -6.488235391211385e-17 1.0 5.347436056235086e-17
outer loop
vertex 40.0 5.0 10.0
vertex 35.79792263374836 4.999999999999999 9.444165572627563
vertex 36.13107696846169 4.999999999999999 10.0
endloop
endfacet
facet normal -0.0 1.0 -0.0
outer loop
vertex 0.0 4.999999999999999 2.0000000000000004
vertex 3.9999999999999996 5.0 2.5999999999999996
vertex 13.976308653495446 4.999999999999999 2.0000000000000004
endloop
endfacet
facet normal -0.0 1.0 -0.0
outer loop
vertex 3.9999999999999996 5.0 2.5999999999999996
vertex 0.0 4.999999999999999 2.0000000000000004
vertex 3.637653336856471 5.0 2.6477038431953037
endloop
endfacet
facet normal -0.0 1.0 -0.0
outer loop
vertex 3.637653336856471 5.0 2.6477038431953037
vertex 0.0 4.999999999999999 2.0000000000000004
vertex 3.2999999999999994 5.0 2.787564434701785
endloop
endfacet
facet normal -0.0 1.0 -0.0
outer loop
vertex 3.2999999999999994 5.0 2.787564434701785
vertex 0.0 4.999999999999999 2.0000000000000004
vertex 3.0100505063388328 5.0 3.0100505063388328
endloop
endfacet
facet normal -0.0 1.0 -0.0
outer loop
vertex 3.0100505063388328 5.0 3.0100505063388328
vertex 0.0 4.999999999999999 2.0000000000000004
vertex 2.787564434701786 5.0 3.299999999999999
endloop
endfacet
facet normal -0.0 1.0 -0.0
outer loop
vertex 2.787564434701786 5.0 3.299999999999999
vertex 0.0 4.999999999999999 2.0000000000000004
vertex 0.0 4.999999999999999 10.0
endloop
endfacet
facet normal -0.0 1.0 -0.0
outer loop
vertex 13.976308653495446 4.999999999999999 2.0000000000000004
vertex 3.9999999999999996 5.0 2.5999999999999996
vertex 12.729014785063294 4.999999999999999 2.446288882285549
endloop
endfacet
facet normal -0.0 1.0 -0.0
outer loop
vertex 2.787564434701786 5.0 3.299999999999999
vertex 0.0 4.999999999999999 10.0
vertex 2.647703843195304 5.0 3.6376533368564705
endloop
endfacet
facet normal -0.0 1.0 -0.0
outer loop
vertex 2.647703843195304 5.0 3.6376533368564705
vertex 0.0 4.999999999999999 10.0
vertex 2.5999999999999996 5.0 3.9999999999999996
endloop
endfacet
facet normal -0.0 1.0 -0.0
outer loop
vertex 2.5999999999999996 5.0 3.9999999999999996
vertex 0.0 4.999999999999999 10.0
vertex 2.6477038431953037 5.0 4.362346663143528
endloop
endfacet
facet normal -0.0 1.0 -0.0
outer loop
vertex 2.6477038431953037 5.0 4.362346663143528
vertex 0.0 4.999999999999999 10.0
vertex 2.787564434701785 5.0 4.7
endloop
endfacet
facet normal -0.0 1.0 -0.0
outer loop
vertex 2.787564434701785 5.0 4.7
vertex 0.0 4.999999999999999 10.0
vertex 3.0100505063388323 5.0 4.9899494936611655
endloop
endfacet
facet normal -0.0 1.0 -0.0
outer loop
vertex 3.0100505063388323 5.0 4.9899494936611655
vertex 0.0 4.999999999999999 10.0
vertex 3.299999999999999 5.0 5.212435565298214
endloop
endfacet
facet normal -0.0 1.0 -0.0
outer loop
vertex 3.299999999999999 5.0 5.212435565298214
vertex 0.0 4.999999999999999 10.0
vertex 3.6376533368564696 5.0 5.352296156804695
endloop
endfacet
facet normal -0.0 1.0 -0.0
outer loop
vertex 3.6376533368564696 5.0 5.352296156804695
vertex 0.0 4.999999999999999 10.0
vertex 3.9999999999999996 5.0 5.4
endloop
endfacet
facet normal -0.0 1.0 -0.0
outer loop
vertex 3.9999999999999996 5.0 5.4
vertex 0.0 4.999999999999999 10.0
vertex 6.564971157455598 4.999999999999999 6.564971157455594
endloop
endfacet
facet normal -0.0 1.0 -0.0
outer loop
vertex 6.564971157455598 4.999999999999999 6.564971157455594
vertex 0.0 4.999999999999999 10.0
vertex 5.312801386107996 4.999999999999999 7.946527600890733
endloop
endfacet
facet normal -0.0 1.0 -0.0
outer loop
vertex 5.312801386107996 4.999999999999999 7.946527600890733
vertex 0.0 4.999999999999999 10.0
vertex 4.202077366251638 4.999999999999999 9.444165572627554
endloop
endfacet
facet normal -0.0 1.0 -0.0
outer loop
vertex 4.202077366251638 4.999999999999999 9.444165572627554
vertex 0.0 4.999999999999999 10.0
vertex 3.8689230315382934 4.999999999999999 10.0
endloop
endfacet
facet normal -0.0 1.0 -0.0
outer loop
vertex 3.9999999999999996 5.0 2.5999999999999996
vertex 11.043462000306043 4.999999999999999 3.2434959773812513
vertex 12.729014785063294 4.999999999999999 2.446288882285549
endloop
endfacet
facet normal -0.0 1.0 -0.0
outer loop
vertex 11.043462000306043 4.999999999999999 3.2434959773812513
vertex 3.9999999999999996 5.0 2.5999999999999996
vertex 4.362346663143529 5.0 2.647703843195304
endloop
endfacet
facet normal -0.0 1.0 -0.0
outer loop
vertex 11.043462000306043 4.999999999999999 3.2434959773812513
vertex 4.362346663143529 5.0 2.647703843195304
vertex 4.7 5.0 2.7875644347017854
endloop
endfacet
facet normal -0.0 1.0 -0.0
outer loop
vertex 11.043462000306043 4.999999999999999 3.2434959773812513
vertex 4.7 5.0 2.7875644347017854
vertex 4.989949493661166 5.0 3.0100505063388328
endloop
endfacet
facet normal -0.0 1.0 -0.0
outer loop
vertex 11.043462000306043 4.999999999999999 3.2434959773812513
vertex 4.989949493661166 5.0 3.0100505063388328
vertex 5.212435565298215 5.0 3.2999999999999994
endloop
endfacet
facet normal -0.0 1.0 -0.0
outer loop
vertex 11.043462000306043 4.999999999999999 3.2434959773812513
vertex 5.212435565298215 5.0 3.2999999999999994
vertex 9.444165572627556 4.999999999999999 4.202077366251638
endloop
endfacet
facet normal -0.0 1.0 -0.0
outer loop
vertex 9.444165572627556 4.999999999999999 4.202077366251638
vertex 5.212435565298215 5.0 3.2999999999999994
vertex 5.352296156804695 5.0 3.6376533368564705
endloop
endfacet
facet normal -0.0 1.0 -0.0
outer loop
vertex 9.444165572627556 4.999999999999999 4.202077366251638
vertex 5.352296156804695 5.0 3.6376533368564705
vertex 5.4 5.0 3.9999999999999996
endloop
endfacet
facet normal -0.0 1.0 -0.0
outer loop
vertex 9.444165572627556 4.999999999999999 4.202077366251638
vertex 5.4 5.0 3.9999999999999996
vertex 5.352296156804695 5.0 4.36234666314353
endloop
endfacet
facet normal -0.0 1.0 -0.0
outer loop
vertex 9.444165572627556 4.999999999999999 4.202077366251638
vertex 5.352296156804695 5.0 4.36234666314353
vertex 7.946527600890733 4.999999999999999 5.312801386107996
endloop
endfacet
facet normal -0.0 1.0 -0.0
outer loop
vertex 7.946527600890733 4.999999999999999 5.312801386107996
vertex 5.352296156804695 5.0 4.36234666314353
vertex 5.212435565298214 5.0 4.7
endloop
endfacet
facet normal -0.0 1.0 -0.0
outer loop
vertex 7.946527600890733 4.999999999999999 5.312801386107996
vertex 5.212435565298214 5.0 4.7
vertex 4.989949493661166 5.0 4.989949493661166
endloop
endfacet
facet normal -0.0 1.0 -0.0
outer loop
vertex 7.946527600890733 4.999999999999999 5.312801386107996
vertex 4.989949493661166 5.0 4.989949493661166
vertex 4.699999999999999 5.0 5.212435565298215
endloop
endfacet
facet normal -0.0 1.0 -0.0
outer loop
vertex 7.946527600890733 4.999999999999999 5.312801386107996
vertex 4.699999999999999 5.0 5.212435565298215
vertex 4.362346663143528 5.0 5.352296156804695
endloop
endfacet
facet normal -0.0 1.0 -0.0
outer loop
vertex 7.946527600890733 4.999999999999999 5.312801386107996
vertex 4.362346663143528 5.0 5.352296156804695
vertex 6.564971157455598 4.999999999999999 6.564971157455594
endloop
endfacet
facet normal -0.0 1.0 -0.0
outer loop
vertex 6.564971157455598 4.999999999999999 6.564971157455594
vertex 4.362346663143528 5.0 5.352296156804695
vertex 3.9999999999999996 5.0 5.4
endloop
endfacet
facet normal -0.0 -0.0 1.0
outer loop
vertex 13.976308653495446 4.999999999999999 2.0000000000000004
vertex 0.0 15.0 2.0000000000000004
vertex 0.0 4.999999999999999 2.0000000000000004
endloop
endfacet
facet normal -0.0 -0.0 1.0
outer loop
vertex 0.0 15.0 2.0000000000000004
vertex 13.976308653495446 4.999999999999999 2.0000000000000004
vertex 3.0 27.0 2.0000000000000004
endloop
endfacet
facet normal -0.0 -0.0 1.0
outer loop
vertex 3.0 27.0 2.0000000000000004
vertex 13.976308653495446 4.999999999999999 2.0000000000000004
vertex 13.976308653495446 26.99999999999999 2.0000000000000004
endloop
endfacet
facet normal 0.9701425001453319 0.24253562503633297 -0.0
outer loop
vertex 37.0 27.0 0.0
vertex 40.0 15.0 2.0000000000000004
vertex 40.0 15.0 0.0
endloop
endfacet
facet normal 0.9701425001453319 0.24253562503633297 -0.0
outer loop
vertex 40.0 15.0 2.0000000000000004
vertex 37.0 27.0 0.0
vertex 37.0 27.0 2.0000000000000004
endloop
endfacet
facet normal -1.0 0.0 0.0
outer loop
vertex 0.0 4.999999999999999 10.0
vertex 0.0 0.0 0.0
vertex 0.0 0.0 10.0
endloop
endfacet
facet normal -1.0 0.0 0.0
outer loop
vertex 0.0 0.0 0.0
vertex 0.0 4.999999999999999 10.0
vertex 0.0 4.999999999999999 2.0000000000000004
endloop
endfacet
facet normal -1.0 0.0 0.0
outer loop
vertex 0.0 0.0 0.0
vertex 0.0 4.999999999999999 2.0000000000000004
vertex 0.0 15.0 0.0
endloop
endfacet
facet normal -1.0 0.0 0.0
outer loop
vertex 0.0 15.0 0.0
vertex 0.0 4.999999999999999 2.0000000000000004
vertex 0.0 15.0 2.0000000000000004
endloop
endfacet
endsolid DIRIGE_FLUX
