  0
SECTION
  2
HEADER
  9
$ACADVER
  1
AC1027
  9
$ACADMAINTVER
 70
     8
  9
$DWGCODEPAGE
  3
ANSI_1252
  9
$REQUIREDVERSIONS
160
                 0
  9
$INSBASE
 10
0.0
 20
0.0
 30
0.0
  9
$EXTMIN
 10
1.000000000000000E+20
 20
1.000000000000000E+20
 30
1.000000000000000E+20
  9
$EXTMAX
 10
-1.000000000000000E+20
 20
-1.000000000000000E+20
 30
-1.000000000000000E+20
  9
$LIMMIN
 10
0.0
 20
0.0
  9
$LIMMAX
 10
12.0
 20
9.0
  9
$ORTHOMODE
 70
     0
  9
$REGENMODE
 70
     1
  9
$FILLMODE
 70
     1
  9
$QTEXTMODE
 70
     0
  9
$MIRRTEXT
 70
     1
  9
$LTSCALE
 40
1.0
  9
$ATTMODE
 70
     1
  9
$TEXTSIZE
 40
0.2
  9
$TRACEWID
 40
0.05
  9
$TEXTSTYLE
  7
Standard
  9
$CLAYER
  8
0
  9
$CELTYPE
  6
ByLayer
  9
$CECOLOR
 62
   256
  9
$CELTSCALE
 40
1.0
  9
$DISPSILH
 70
     0
  9
$DIMSCALE
 40
1.0
  9
$DIMASZ
 40
0.18
  9
$DIMEXO
 40
0.0625
  9
$DIMDLI
 40
0.38
  9
$DIMRND
 40
0.0
  9
$DIMDLE
 40
0.0
  9
$DIMEXE
 40
0.18
  9
$DIMTP
 40
0.0
  9
$DIMTM
 40
0.0
  9
$DIMTXT
 40
0.18
  9
$DIMCEN
 40
0.09
  9
$DIMTSZ
 40
0.0
  9
$DIMTOL
 70
     0
  9
$DIMLIM
 70
     0
  9
$DIMTIH
 70
     1
  9
$DIMTOH
 70
     1
  9
$DIMSE1
 70
     0
  9
$DIMSE2
 70
     0
  9
$DIMTAD
 70
     0
  9
$DIMZIN
 70
     0
  9
$DIMBLK
  1

  9
$DIMASO
 70
     1
  9
$DIMSHO
 70
     1
  9
$DIMPOST
  1

  9
$DIMAPOST
  1

  9
$DIMALT
 70
     0
  9
$DIMALTD
 70
     2
  9
$DIMALTF
 40
25.4
  9
$DIMLFAC
 40
1.0
  9
$DIMTOFL
 70
     0
  9
$DIMTVP
 40
0.0
  9
$DIMTIX
 70
     0
  9
$DIMSOXD
 70
     0
  9
$DIMSAH
 70
     0
  9
$DIMBLK1
  1

  9
$DIMBLK2
  1

  9
$DIMSTYLE
  2
Standard
  9
$DIMCLRD
 70
     0
  9
$DIMCLRE
 70
     0
  9
$DIMCLRT
 70
     0
  9
$DIMTFAC
 40
1.0
  9
$DIMGAP
 40
0.09
  9
$DIMJUST
 70
     0
  9
$DIMSD1
 70
     0
  9
$DIMSD2
 70
     0
  9
$DIMTOLJ
 70
     1
  9
$DIMTZIN
 70
     0
  9
$DIMALTZ
 70
     0
  9
$DIMALTTZ
 70
     0
  9
$DIMUPT
 70
     0
  9
$DIMDEC
 70
     4
  9
$DIMTDEC
 70
     4
  9
$DIMALTU
 70
     2
  9
$DIMALTTD
 70
     2
  9
$DIMTXSTY
  7
Standard
  9
$DIMAUNIT
 70
     0
  9
$DIMADEC
 70
     0
  9
$DIMALTRND
 40
0.0
  9
$DIMAZIN
 70
     0
  9
$DIMDSEP
 70
    46
  9
$DIMATFIT
 70
     3
  9
$DIMFRAC
 70
     0
  9
$DIMLDRBLK
  1

  9
$DIMLUNIT
 70
     2
  9
$DIMLWD
 70
    -2
  9
$DIMLWE
 70
    -2
  9
$DIMTMOVE
 70
     0
  9
$DIMFXL
 40
1.0
  9
$DIMFXLON
 70
     0
  9
$DIMJOGANG
 40
0.7853981633974483
  9
$DIMTFILL
 70
     0
  9
$DIMTFILLCLR
 70
     0
  9
$DIMARCSYM
 70
     0
  9
$DIMLTYPE
  6

  9
$DIMLTEX1
  6

  9
$DIMLTEX2
  6

  9
$DIMTXTDIRECTION
 70
     0
  9
$LUNITS
 70
     2
  9
$LUPREC
 70
     4
  9
$SKETCHINC
 40
0.1
  9
$FILLETRAD
 40
0.5
  9
$AUNITS
 70
     0
  9
$AUPREC
 70
     0
  9
$MENU
  1
.
  9
$ELEVATION
 40
0.0
  9
$PELEVATION
 40
0.0
  9
$THICKNESS
 40
0.0
  9
$LIMCHECK
 70
     0
  9
$CHAMFERA
 40
0.0
  9
$CHAMFERB
 40
0.0
  9
$CHAMFERC
 40
0.0
  9
$CHAMFERD
 40
0.0
  9
$SKPOLY
 70
     0
  9
$TDCREATE
 40
2457449.891986181
  9
$TDUCREATE
 40
2457449.850319514
  9
$TDUPDATE
 40
2457449.891986539
  9
$TDUUPDATE
 40
2457449.850319873
  9
$TDINDWG
 40
0.0000000116
  9
$TDUSRTIMER
 40
0.0000000116
  9
$USRTIMER
 70
     1
  9
$ANGBASE
 50
0.0
  9
$ANGDIR
 70
     0
  9
$PDMODE
 70
     0
  9
$PDSIZE
 40
0.0
  9
$PLINEWID
 40
0.0
  9
$SPLFRAME
 70
     0
  9
$SPLINETYPE
 70
     6
  9
$SPLINESEGS
 70
     8
  9
$HANDSEED
  5
2E6
  9
$SURFTAB1
 70
     6
  9
$SURFTAB2
 70
     6
  9
$SURFTYPE
 70
     6
  9
$SURFU
 70
     6
  9
$SURFV
 70
     6
  9
$UCSBASE
  2

  9
$UCSNAME
  2

  9
$UCSORG
 10
0.0
 20
0.0
 30
0.0
  9
$UCSXDIR
 10
1.0
 20
0.0
 30
0.0
  9
$UCSYDIR
 10
0.0
 20
1.0
 30
0.0
  9
$UCSORTHOREF
  2

  9
$UCSORTHOVIEW
 70
     0
  9
$UCSORGTOP
 10
0.0
 20
0.0
 30
0.0
  9
$UCSORGBOTTOM
 10
0.0
 20
0.0
 30
0.0
  9
$UCSORGLEFT
 10
0.0
 20
0.0
 30
0.0
  9
$UCSORGRIGHT
 10
0.0
 20
0.0
 30
0.0
  9
$UCSORGFRONT
 10
0.0
 20
0.0
 30
0.0
  9
$UCSORGBACK
 10
0.0
 20
0.0
 30
0.0
  9
$PUCSBASE
  2

  9
$PUCSNAME
  2

  9
$PUCSORG
 10
0.0
 20
0.0
 30
0.0
  9
$PUCSXDIR
 10
1.0
 20
0.0
 30
0.0
  9
$PUCSYDIR
 10
0.0
 20
1.0
 30
0.0
  9
$PUCSORTHOREF
  2

  9
$PUCSORTHOVIEW
 70
     0
  9
$PUCSORGTOP
 10
0.0
 20
0.0
 30
0.0
  9
$PUCSORGBOTTOM
 10
0.0
 20
0.0
 30
0.0
  9
$PUCSORGLEFT
 10
0.0
 20
0.0
 30
0.0
  9
$PUCSORGRIGHT
 10
0.0
 20
0.0
 30
0.0
  9
$PUCSORGFRONT
 10
0.0
 20
0.0
 30
0.0
  9
$PUCSORGBACK
 10
0.0
 20
0.0
 30
0.0
  9
$USERI1
 70
     0
  9
$USERI2
 70
     0
  9
$USERI3
 70
     0
  9
$USERI4
 70
     0
  9
$USERI5
 70
     0
  9
$USERR1
 40
0.0
  9
$USERR2
 40
0.0
  9
$USERR3
 40
0.0
  9
$USERR4
 40
0.0
  9
$USERR5
 40
0.0
  9
$WORLDVIEW
 70
     1
  9
$SHADEDGE
 70
     3
  9
$SHADEDIF
 70
    70
  9
$TILEMODE
 70
     1
  9
$MAXACTVP
 70
    64
  9
$PINSBASE
 10
0.0
 20
0.0
 30
0.0
  9
$PLIMCHECK
 70
     0
  9
$PEXTMIN
 10
1.000000000000000E+20
 20
1.000000000000000E+20
 30
1.000000000000000E+20
  9
$PEXTMAX
 10
-1.000000000000000E+20
 20
-1.000000000000000E+20
 30
-1.000000000000000E+20
  9
$PLIMMIN
 10
0.0
 20
0.0
  9
$PLIMMAX
 10
12.0
 20
9.0
  9
$UNITMODE
 70
     0
  9
$VISRETAIN
 70
     1
  9
$PLINEGEN
 70
     0
  9
$PSLTSCALE
 70
     1
  9
$TREEDEPTH
 70
  3020
  9
$CMLSTYLE
  2
Standard
  9
$CMLJUST
 70
     0
  9
$CMLSCALE
 40
1.0
  9
$PROXYGRAPHICS
 70
     1
  9
$MEASUREMENT
 70
     1
  9
$CELWEIGHT
370
    -1
  9
$ENDCAPS
280
     0
  9
$JOINSTYLE
280
     0
  9
$LWDISPLAY
290
     0
  9
$INSUNITS
 70
     4
  9
$HYPERLINKBASE
  1

  9
$STYLESHEET
  1

  9
$XEDIT
290
     1
  9
$CEPSNTYPE
380
     0
  9
$PSTYLEMODE
290
     1
  9
$FINGERPRINTGUID
  2
{6CE3B720-AF68-42F7-8904-8F1DCA257C20}
  9
$VERSIONGUID
  2
{FAEB1C32-E019-11D5-929B-00C0DF256EC4}
  9
$EXTNAMES
290
     1
  9
$PSVPSCALE
 40
0.0
  9
$OLESTARTUP
290
     0
  9
$SORTENTS
280
   127
  9
$INDEXCTL
280
     0
  9
$HIDETEXT
280
     1
  9
$XCLIPFRAME
280
     2
  9
$HALOGAP
280
     0
  9
$OBSCOLOR
 70
   257
  9
$OBSLTYPE
280
     0
  9
$INTERSECTIONDISPLAY
280
     0
  9
$INTERSECTIONCOLOR
 70
   257
  9
$DIMASSOC
280
     2
  9
$PROJECTNAME
  1

  9
$CAMERADISPLAY
290
     0
  9
$LENSLENGTH
 40
50.0
  9
$CAMERAHEIGHT
 40
0.0
  9
$STEPSPERSEC
 40
2.0
  9
$STEPSIZE
 40
6.0
  9
$3DDWFPREC
 40
2.0
  9
$PSOLWIDTH
 40
0.25
  9
$PSOLHEIGHT
 40
4.0
  9
$LOFTANG1
 40
1.570796326794897
  9
$LOFTANG2
 40
1.570796326794897
  9
$LOFTMAG1
 40
0.0
  9
$LOFTMAG2
 40
0.0
  9
$LOFTPARAM
 70
     7
  9
$LOFTNORMALS
280
     1
  9
$LATITUDE
 40
37.795
  9
$LONGITUDE
 40
-122.394
  9
$NORTHDIRECTION
 40
0.0
  9
$TIMEZONE
 70
 -8000
  9
$LIGHTGLYPHDISPLAY
280
     1
  9
$TILEMODELIGHTSYNCH
280
     1
  9
$CMATERIAL
347
44
  9
$SOLIDHIST
280
     1
  9
$SHOWHIST
280
     1
  9
$DWFFRAME
280
     2
  9
$DGNFRAME
280
     2
  9
$REALWORLDSCALE
290
     1
  9
$INTERFERECOLOR
 62
   256
  9
$CSHADOW
280
     0
  9
$SHADOWPLANELOCATION
 40
0.0
  0
ENDSEC
  0
SECTION
  2
CLASSES
  0
CLASS
  1
ACDBDICTIONARYWDFLT
  2
AcDbDictionaryWithDefault
  3
ObjectDBX Classes
 90
        0
 91
        4
280
     0
281
     0
  0
CLASS
  1
VISUALSTYLE
  2
AcDbVisualStyle
  3
ObjectDBX Classes
 90
     4095
 91
        4
280
     0
281
     0
  0
CLASS
  1
MATERIAL
  2
AcDbMaterial
  3
ObjectDBX Classes
 90
     1153
 91
        4
280
     0
281
     0
  0
CLASS
  1
SCALE
  2
AcDbScale
  3
ObjectDBX Classes
 90
     1153
 91
        4
280
     0
281
     0
  0
CLASS
  1
SUN
  2
AcDbSun
  3
SCENEOE
 90
     1153
 91
        4
280
     0
281
     0
  0
CLASS
  1
DICTIONARYVAR
  2
AcDbDictionaryVar
  3
ObjectDBX Classes
 90
        0
 91
        4
280
     0
281
     0
  0
ENDSEC
  0
SECTION
  2
TABLES
  0
TABLE
  2
VPORT
  5
8
330
0
100
AcDbSymbolTable
 70
     1
  0
VPORT
  5
29
330
8
100
AcDbSymbolTableRecord
100
AcDbViewportTableRecord
  2
*Active
 70
     0
 10
0.0
 20
0.0
 11
1.0
 21
1.0
 12
0.0
 22
0.0
 13
0.0
 23
0.0
 14
0.5
 24
0.5
 15
0.5
 25
0.5
 16
0.0
 26
0.0
 36
1.0
 17
0.0
 27
0.0
 37
-1000.0
 40
3946.301854471933
 41
1.633620689655173
 42
50.0
 43
5617.507583837637
 44
6900.382602468223
 50
0.0
 51
0.0
 71
     0
 72
   100
 73
     1
 74
     3
 75
     0
 76
     0
 77
     0
 78
     0
281
     0
 65
     1
110
0.0
120
0.0
130
0.0
111
1.0
121
0.0
131
0.0
112
0.0
122
1.0
132
0.0
 79
     0
146
0.0
 60
     3
 61
     5
292
     1
282
     1
141
0.0
142
0.0
 63
   250
361
69
  0
ENDTAB
  0
TABLE
  2
LTYPE
  5
5
330
0
100
AcDbSymbolTable
 70
     1
  0
LTYPE
  5
14
330
5
100
AcDbSymbolTableRecord
100
AcDbLinetypeTableRecord
  2
ByBlock
 70
     0
  3

 72
    65
 73
     0
 40
0.0
  0
LTYPE
  5
15
330
5
100
AcDbSymbolTableRecord
100
AcDbLinetypeTableRecord
  2
ByLayer
 70
     0
  3

 72
    65
 73
     0
 40
0.0
  0
LTYPE
  5
16
330
5
100
AcDbSymbolTableRecord
100
AcDbLinetypeTableRecord
  2
Continuous
 70
     0
  3
Solid line
 72
    65
 73
     0
 40
0.0
  0
ENDTAB
  0
TABLE
  2
LAYER
  5
2
330
0
100
AcDbSymbolTable
 70
     3
  0
LAYER
  5
10
330
2
100
AcDbSymbolTableRecord
100
AcDbLayerTableRecord
  2
0
 70
     0
 62
     7
  6
Continuous
370
    -3
390
F
347
46
348
0
  0
LAYER
  5
6A
330
2
100
AcDbSymbolTableRecord
100
AcDbLayerTableRecord
  2
ProfileEdges
 70
     0
 62
     7
  6
Continuous
370
    -3
390
F
347
46
348
0
  0
LAYER
  5
6B
330
2
100
AcDbSymbolTableRecord
100
AcDbLayerTableRecord
  2
SectionCutEdges
 70
     0
 62
     7
  6
Continuous
370
    -3
390
F
347
46
348
0
  0
ENDTAB
  0
TABLE
  2
STYLE
  5
3
330
0
100
AcDbSymbolTable
 70
     1
  0
STYLE
  5
11
330
3
100
AcDbSymbolTableRecord
100
AcDbTextStyleTableRecord
  2
Standard
 70
     0
 40
0.0
 41
1.0
 50
0.0
 71
     0
 42
0.2
  3
txt
  4

  0
ENDTAB
  0
TABLE
  2
VIEW
  5
6
330
0
100
AcDbSymbolTable
 70
     0
  0
ENDTAB
  0
TABLE
  2
UCS
  5
7
330
0
100
AcDbSymbolTable
 70
     0
  0
ENDTAB
  0
TABLE
  2
APPID
  5
9
330
0
100
AcDbSymbolTable
 70
     1
  0
APPID
  5
12
330
9
100
AcDbSymbolTableRecord
100
AcDbRegAppTableRecord
  2
ACAD
 70
     0
  0
ENDTAB
  0
TABLE
  2
DIMSTYLE
  5
A
330
0
100
AcDbSymbolTable
 70
     1
100
AcDbDimStyleTable
  0
DIMSTYLE
105
27
330
A
100
AcDbSymbolTableRecord
100
AcDbDimStyleTableRecord
  2
Standard
 70
     0
178
     0
340
11
  0
ENDTAB
  0
TABLE
  2
BLOCK_RECORD
  5
1
330
0
100
AcDbSymbolTable
 70
     1
  0
BLOCK_RECORD
  5
1F
330
1
100
AcDbSymbolTableRecord
100
AcDbBlockTableRecord
  2
*Model_Space
340
22
 70
     0
280
     1
281
     0
  0
BLOCK_RECORD
  5
1B
330
1
100
AcDbSymbolTableRecord
100
AcDbBlockTableRecord
  2
*Paper_Space
340
1E
 70
     0
280
     1
281
     0
  0
BLOCK_RECORD
  5
23
330
1
100
AcDbSymbolTableRecord
100
AcDbBlockTableRecord
  2
*Paper_Space0
340
26
 70
     0
280
     1
281
     0
  0
ENDTAB
  0
ENDSEC
  0
SECTION
  2
BLOCKS
  0
BLOCK
  5
20
330
1F
100
AcDbEntity
  8
0
100
AcDbBlockBegin
  2
*Model_Space
 70
     0
 10
0.0
 20
0.0
 30
0.0
  3
*Model_Space
  1
*Model_Space
  0
ENDBLK
  5
21
330
1F
100
AcDbEntity
  8
0
100
AcDbBlockEnd
  0
BLOCK
  5
1C
330
1B
100
AcDbEntity
 67
     1
  8
0
100
AcDbBlockBegin
  2
*Paper_Space
 70
     0
 10
0.0
 20
0.0
 30
0.0
  3
*Paper_Space
  1
*Paper_Space
  0
ENDBLK
  5
1D
330
1B
100
AcDbEntity
 67
     1
  8
0
100
AcDbBlockEnd
  0
BLOCK
  5
24
330
23
100
AcDbEntity
  8
0
100
AcDbBlockBegin
  2
*Paper_Space0
 70
     0
 10
0.0
 20
0.0
 30
0.0
  3
*Paper_Space0
  1
*Paper_Space0
  0
ENDBLK
  5
25
330
23
100
AcDbEntity
  8
0
100
AcDbBlockEnd
  0
ENDSEC
  0
SECTION
  2
ENTITIES
  0
LINE
  5
6C
330
1F
100
AcDbEntity
  8
0
100
AcDbLine
 10
32.38822531944571
 20
119.4727139173003
 30
0.0
 11
32.37859477279002
 21
119.276679636641
 31
0.0
  0
LINE
  5
6D
330
1F
100
AcDbEntity
  8
0
100
AcDbLine
 10
32.37859477279002
 20
119.276679636641
 30
0.0
 11
32.3497958802522
 21
119.0825332732679
 31
0.0
  0
LINE
  5
6E
330
1F
100
AcDbEntity
  8
0
100
AcDbLine
 10
-16.89647635921545
 20
75.92413730357256
 30
0.0
 11
-17.01570108257064
 21
75.44816552738078
 31
0.0
  0
LINE
  5
6F
330
1F
100
AcDbEntity
  8
0
100
AcDbLine
 10
-17.01570108257064
 20
75.44816552738078
 30
0.0
 11
-17.08769831391521
 21
74.96279961894791
 31
0.0
  0
LINE
  5
70
330
1F
100
AcDbEntity
  8
0
100
AcDbLine
 10
-256.1117746805544
 20
-141.0272860826999
 30
0.0
 11
-256.1117746805544
 21
289.9727139173001
 31
0.0
  0
LINE
  5
71
330
1F
100
AcDbEntity
  8
0
100
AcDbLine
 10
151.8882253194456
 20
-141.0272860826997
 30
0.0
 11
-256.1117746805544
 21
-141.0272860826999
 31
0.0
  0
LINE
  5
72
330
1F
100
AcDbEntity
  8
0
100
AcDbLine
 10
-91.13632307047374
 20
79.37664031931638
 30
0.0
 11
-90.66035129428195
 21
79.25741559596119
 31
0.0
  0
LINE
  5
73
330
1F
100
AcDbEntity
  8
0
100
AcDbLine
 10
-90.66035129428195
 20
79.25741559596119
 30
0.0
 11
-90.19835751872881
 21
79.09211157985666
 31
0.0
  0
LINE
  5
74
330
1F
100
AcDbEntity
  8
0
100
AcDbLine
 10
-93.0872262906349
 20
79.37664031931638
 30
0.0
 11
-92.6018603822022
 21
79.44863755066112
 31
0.0
  0
LINE
  5
75
330
1F
100
AcDbEntity
  8
0
100
AcDbLine
 10
-92.6018603822022
 20
79.44863755066112
 30
0.0
 11
-92.11177468055449
 21
79.47271391730014
 31
0.0
  0
LINE
  5
76
330
1F
100
AcDbEntity
  8
0
100
AcDbLine
 10
151.8882253194456
 20
289.9727139173001
 30
0.0
 11
151.8882253194456
 21
-141.0272860826997
 31
0.0
  0
LINE
  5
77
330
1F
100
AcDbEntity
  8
0
100
AcDbLine
 10
-256.1117746805544
 20
289.9727139173001
 30
0.0
 11
151.8882253194456
 21
289.9727139173001
 31
0.0
  0
LINE
  5
78
330
1F
100
AcDbEntity
  8
0
100
AcDbLine
 10
-92.11177468055449
 20
79.47271391730014
 30
0.0
 11
-91.62168897890642
 21
79.44863755066112
 31
0.0
  0
LINE
  5
79
330
1F
100
AcDbEntity
  8
0
100
AcDbLine
 10
-91.62168897890642
 20
79.44863755066112
 30
0.0
 11
-91.13632307047374
 21
79.37664031931638
 31
0.0
  0
LINE
  5
7A
330
1F
100
AcDbEntity
  8
0
100
AcDbLine
 10
-89.33392351545633
 20
78.63006197881295
 30
0.0
 11
-88.93980825973597
 21
78.33776618411372
 31
0.0
  0
LINE
  5
7B
330
1F
100
AcDbEntity
  8
0
100
AcDbLine
 10
-88.93980825973597
 20
78.33776618411372
 30
0.0
 11
-88.57624077462171
 21
78.00824782323281
 31
0.0
  0
LINE
  5
7C
330
1F
100
AcDbEntity
  8
0
100
AcDbLine
 10
-90.19835751872881
 20
79.09211157985666
 30
0.0
 11
-89.75479099642443
 21
78.88232023904192
 31
0.0
  0
LINE
  5
7D
330
1F
100
AcDbEntity
  8
0
100
AcDbLine
 10
-89.75479099642443
 20
78.88232023904192
 30
0.0
 11
-89.33392351545633
 21
78.63006197881295
 31
0.0
  0
LINE
  5
7E
330
1F
100
AcDbEntity
  8
0
100
AcDbLine
 10
-87.70216835881241
 20
76.82969760143008
 30
0.0
 11
-87.49237701799785
 21
76.3861310791257
 31
0.0
  0
LINE
  5
7F
330
1F
100
AcDbEntity
  8
0
100
AcDbLine
 10
-87.49237701799785
 20
76.3861310791257
 30
0.0
 11
-87.32707300189332
 21
75.92413730357256
 31
0.0
  0
LINE
  5
80
330
1F
100
AcDbEntity
  8
0
100
AcDbLine
 10
-87.32707300189332
 20
75.92413730357256
 30
0.0
 11
-87.20784827853814
 21
75.44816552738078
 31
0.0
  0
LINE
  5
81
330
1F
100
AcDbEntity
  8
0
100
AcDbLine
 10
-88.57624077462171
 20
78.00824782323281
 30
0.0
 11
-88.2467224137408
 21
77.64468033811836
 31
0.0
  0
LINE
  5
82
330
1F
100
AcDbEntity
  8
0
100
AcDbLine
 10
-88.2467224137408
 20
77.64468033811836
 30
0.0
 11
-87.95442661904156
 21
77.25056508239818
 31
0.0
  0
LINE
  5
83
330
1F
100
AcDbEntity
  8
0
100
AcDbLine
 10
-87.95442661904156
 20
77.25056508239818
 30
0.0
 11
-87.70216835881241
 21
76.82969760143008
 31
0.0
  0
LINE
  5
84
330
1F
100
AcDbEntity
  8
0
100
AcDbLine
 10
-87.13585104719321
 20
73.9826282156523
 30
0.0
 11
-87.20784827853814
 21
73.49726230721943
 31
0.0
  0
LINE
  5
85
330
1F
100
AcDbEntity
  8
0
100
AcDbLine
 10
-87.20784827853814
 20
75.44816552738078
 30
0.0
 11
-87.13585104719321
 21
74.96279961894791
 31
0.0
  0
LINE
  5
86
330
1F
100
AcDbEntity
  8
0
100
AcDbLine
 10
-87.13585104719321
 20
74.96279961894791
 30
0.0
 11
-87.11177468055419
 21
74.47271391730001
 31
0.0
  0
LINE
  5
87
330
1F
100
AcDbEntity
  8
0
100
AcDbLine
 10
-87.11177468055419
 20
74.47271391730001
 30
0.0
 11
-87.13585104719321
 21
73.9826282156523
 31
0.0
  0
LINE
  5
88
330
1F
100
AcDbEntity
  8
0
100
AcDbLine
 10
-87.20784827853814
 20
73.49726230721943
 30
0.0
 11
-87.32707300189332
 21
73.02129053102783
 31
0.0
  0
LINE
  5
89
330
1F
100
AcDbEntity
  8
0
100
AcDbLine
 10
-87.32707300189332
 20
73.02129053102783
 30
0.0
 11
-87.49237701799785
 21
72.55929675547469
 31
0.0
  0
LINE
  5
8A
330
1F
100
AcDbEntity
  8
0
100
AcDbLine
 10
-87.49237701799785
 20
72.55929675547469
 30
0.0
 11
-87.70216835881241
 21
72.11573023317014
 31
0.0
  0
LINE
  5
8B
330
1F
100
AcDbEntity
  8
0
100
AcDbLine
 10
-87.70216835881241
 20
72.11573023317014
 30
0.0
 11
-87.95442661904156
 21
71.69486275220221
 31
0.0
  0
LINE
  5
8C
330
1F
100
AcDbEntity
  8
0
100
AcDbLine
 10
-87.95442661904156
 20
71.69486275220221
 30
0.0
 11
-88.2467224137408
 21
71.30074749648185
 31
0.0
  0
LINE
  5
8D
330
1F
100
AcDbEntity
  8
0
100
AcDbLine
 10
-88.2467224137408
 20
71.30074749648185
 30
0.0
 11
-88.57624077462171
 21
70.93718001136723
 31
0.0
  0
LINE
  5
8E
330
1F
100
AcDbEntity
  8
0
100
AcDbLine
 10
-88.57624077462171
 20
70.93718001136723
 30
0.0
 11
-88.93980825973597
 21
70.60766165048632
 31
0.0
  0
LINE
  5
8F
330
1F
100
AcDbEntity
  8
0
100
AcDbLine
 10
-88.93980825973597
 20
70.60766165048632
 30
0.0
 11
-89.33392351545633
 21
70.31536585578745
 31
0.0
  0
LINE
  5
90
330
1F
100
AcDbEntity
  8
0
100
AcDbLine
 10
-89.33392351545633
 20
70.31536585578745
 30
0.0
 11
-89.75479099642443
 21
70.0631075955583
 31
0.0
  0
LINE
  5
91
330
1F
100
AcDbEntity
  8
0
100
AcDbLine
 10
-89.75479099642443
 20
70.0631075955583
 30
0.0
 11
-90.19835751872881
 21
69.85331625474373
 31
0.0
  0
LINE
  5
92
330
1F
100
AcDbEntity
  8
0
100
AcDbLine
 10
-90.19835751872881
 20
69.85331625474373
 30
0.0
 11
-90.66035129428195
 21
69.68801223863902
 31
0.0
  0
LINE
  5
93
330
1F
100
AcDbEntity
  8
0
100
AcDbLine
 10
-90.66035129428195
 20
69.68801223863902
 30
0.0
 11
-91.13632307047374
 21
69.56878751528401
 31
0.0
  0
LINE
  5
94
330
1F
100
AcDbEntity
  8
0
100
AcDbLine
 10
-91.13632307047374
 20
69.56878751528401
 30
0.0
 11
-91.62168897890642
 21
69.49679028393909
 31
0.0
  0
LINE
  5
95
330
1F
100
AcDbEntity
  8
0
100
AcDbLine
 10
-91.62168897890642
 20
69.49679028393909
 30
0.0
 11
-92.11177468055449
 21
69.47271391730007
 31
0.0
  0
LINE
  5
96
330
1F
100
AcDbEntity
  8
0
100
AcDbLine
 10
-92.11177468055449
 20
69.47271391730007
 30
0.0
 11
-92.6018603822022
 21
69.49679028393909
 31
0.0
  0
LINE
  5
97
330
1F
100
AcDbEntity
  8
0
100
AcDbLine
 10
-92.6018603822022
 20
69.49679028393909
 30
0.0
 11
-93.0872262906349
 21
69.56878751528401
 31
0.0
  0
LINE
  5
98
330
1F
100
AcDbEntity
  8
0
100
AcDbLine
 10
-93.0872262906349
 20
69.56878751528401
 30
0.0
 11
-93.56319806682667
 21
69.68801223863902
 31
0.0
  0
LINE
  5
99
330
1F
100
AcDbEntity
  8
0
100
AcDbLine
 10
-93.56319806682667
 20
69.68801223863902
 30
0.0
 11
-94.02519184237983
 21
69.85331625474373
 31
0.0
  0
LINE
  5
9A
330
1F
100
AcDbEntity
  8
0
100
AcDbLine
 10
-94.02519184237983
 20
69.85331625474373
 30
0.0
 11
-94.46875836468456
 21
70.0631075955583
 31
0.0
  0
LINE
  5
9B
330
1F
100
AcDbEntity
  8
0
100
AcDbLine
 10
-94.46875836468456
 20
70.0631075955583
 30
0.0
 11
-94.8896258456523
 21
70.31536585578745
 31
0.0
  0
LINE
  5
9C
330
1F
100
AcDbEntity
  8
0
100
AcDbLine
 10
-94.8896258456523
 20
70.31536585578745
 30
0.0
 11
-95.28374110137267
 21
70.60766165048632
 31
0.0
  0
LINE
  5
9D
330
1F
100
AcDbEntity
  8
0
100
AcDbLine
 10
-95.28374110137267
 20
70.60766165048632
 30
0.0
 11
-95.64730858648728
 21
70.93718001136723
 31
0.0
  0
LINE
  5
9E
330
1F
100
AcDbEntity
  8
0
100
AcDbLine
 10
-95.64730858648728
 20
70.93718001136723
 30
0.0
 11
-95.9768269473682
 21
71.30074749648185
 31
0.0
  0
LINE
  5
9F
330
1F
100
AcDbEntity
  8
0
100
AcDbLine
 10
-95.9768269473682
 20
71.30074749648185
 30
0.0
 11
-96.26912274206707
 21
71.69486275220221
 31
0.0
  0
LINE
  5
A0
330
1F
100
AcDbEntity
  8
0
100
AcDbLine
 10
-96.26912274206707
 20
71.69486275220221
 30
0.0
 11
-96.52138100229622
 21
72.11573023317014
 31
0.0
  0
LINE
  5
A1
330
1F
100
AcDbEntity
  8
0
100
AcDbLine
 10
-96.52138100229622
 20
72.11573023317014
 30
0.0
 11
-96.73117234311077
 21
72.55929675547469
 31
0.0
  0
LINE
  5
A2
330
1F
100
AcDbEntity
  8
0
100
AcDbLine
 10
-96.73117234311077
 20
72.55929675547469
 30
0.0
 11
-96.89647635921567
 21
73.02129053102783
 31
0.0
  0
LINE
  5
A3
330
1F
100
AcDbEntity
  8
0
100
AcDbLine
 10
-96.89647635921567
 20
73.02129053102783
 30
0.0
 11
-97.01570108257049
 21
73.49726230721943
 31
0.0
  0
LINE
  5
A4
330
1F
100
AcDbEntity
  8
0
100
AcDbLine
 10
-97.01570108257049
 20
73.49726230721943
 30
0.0
 11
-97.08769831391542
 21
73.9826282156523
 31
0.0
  0
LINE
  5
A5
330
1F
100
AcDbEntity
  8
0
100
AcDbLine
 10
-97.08769831391542
 20
73.9826282156523
 30
0.0
 11
-97.11177468055445
 21
74.47271391730001
 31
0.0
  0
LINE
  5
A6
330
1F
100
AcDbEntity
  8
0
100
AcDbLine
 10
-97.11177468055445
 20
74.47271391730001
 30
0.0
 11
-97.08769831391542
 21
74.96279961894791
 31
0.0
  0
LINE
  5
A7
330
1F
100
AcDbEntity
  8
0
100
AcDbLine
 10
-97.08769831391542
 20
74.96279961894791
 30
0.0
 11
-97.01570108257049
 21
75.44816552738078
 31
0.0
  0
LINE
  5
A8
330
1F
100
AcDbEntity
  8
0
100
AcDbLine
 10
-97.01570108257049
 20
75.44816552738078
 30
0.0
 11
-96.89647635921567
 21
75.92413730357256
 31
0.0
  0
LINE
  5
A9
330
1F
100
AcDbEntity
  8
0
100
AcDbLine
 10
-96.89647635921567
 20
75.92413730357256
 30
0.0
 11
-96.73117234311077
 21
76.3861310791257
 31
0.0
  0
LINE
  5
AA
330
1F
100
AcDbEntity
  8
0
100
AcDbLine
 10
-96.73117234311077
 20
76.3861310791257
 30
0.0
 11
-96.52138100229622
 21
76.82969760143008
 31
0.0
  0
LINE
  5
AB
330
1F
100
AcDbEntity
  8
0
100
AcDbLine
 10
-96.52138100229622
 20
76.82969760143008
 30
0.0
 11
-96.26912274206707
 21
77.25056508239818
 31
0.0
  0
LINE
  5
AC
330
1F
100
AcDbEntity
  8
0
100
AcDbLine
 10
-96.26912274206707
 20
77.25056508239818
 30
0.0
 11
-95.9768269473682
 21
77.64468033811836
 31
0.0
  0
LINE
  5
AD
330
1F
100
AcDbEntity
  8
0
100
AcDbLine
 10
-95.9768269473682
 20
77.64468033811836
 30
0.0
 11
-95.64730858648728
 21
78.00824782323281
 31
0.0
  0
LINE
  5
AE
330
1F
100
AcDbEntity
  8
0
100
AcDbLine
 10
-95.64730858648728
 20
78.00824782323281
 30
0.0
 11
-95.28374110137267
 21
78.33776618411372
 31
0.0
  0
LINE
  5
AF
330
1F
100
AcDbEntity
  8
0
100
AcDbLine
 10
-95.28374110137267
 20
78.33776618411372
 30
0.0
 11
-94.8896258456523
 21
78.63006197881295
 31
0.0
  0
LINE
  5
B0
330
1F
100
AcDbEntity
  8
0
100
AcDbLine
 10
-94.8896258456523
 20
78.63006197881295
 30
0.0
 11
-94.46875836468456
 21
78.88232023904192
 31
0.0
  0
LINE
  5
B1
330
1F
100
AcDbEntity
  8
0
100
AcDbLine
 10
-94.46875836468456
 20
78.88232023904192
 30
0.0
 11
-94.02519184237983
 21
79.09211157985666
 31
0.0
  0
LINE
  5
B2
330
1F
100
AcDbEntity
  8
0
100
AcDbLine
 10
-94.02519184237983
 20
79.09211157985666
 30
0.0
 11
-93.56319806682667
 21
79.25741559596119
 31
0.0
  0
LINE
  5
B3
330
1F
100
AcDbEntity
  8
0
100
AcDbLine
 10
-93.56319806682667
 20
79.25741559596119
 30
0.0
 11
-93.0872262906349
 21
79.37664031931638
 31
0.0
  0
LINE
  5
B4
330
1F
100
AcDbEntity
  8
0
100
AcDbLine
 10
-16.52138100229601
 20
76.82969760143008
 30
0.0
 11
-16.73117234311092
 21
76.3861310791257
 31
0.0
  0
LINE
  5
B5
330
1F
100
AcDbEntity
  8
0
100
AcDbLine
 10
-16.26912274206721
 20
77.25056508239818
 30
0.0
 11
-16.52138100229601
 21
76.82969760143008
 31
0.0
  0
LINE
  5
B6
330
1F
100
AcDbEntity
  8
0
100
AcDbLine
 10
-15.97682694736798
 20
77.64468033811836
 30
0.0
 11
-16.26912274206721
 21
77.25056508239818
 31
0.0
  0
LINE
  5
B7
330
1F
100
AcDbEntity
  8
0
100
AcDbLine
 10
-15.64730858648707
 20
78.00824782323281
 30
0.0
 11
-15.97682694736798
 21
77.64468033811836
 31
0.0
  0
LINE
  5
B8
330
1F
100
AcDbEntity
  8
0
100
AcDbLine
 10
-15.28374110137245
 20
78.33776618411372
 30
0.0
 11
-15.64730858648707
 21
78.00824782323281
 31
0.0
  0
LINE
  5
B9
330
1F
100
AcDbEntity
  8
0
100
AcDbLine
 10
-14.88962584565245
 20
78.63006197881295
 30
0.0
 11
-15.28374110137245
 21
78.33776618411372
 31
0.0
  0
LINE
  5
BA
330
1F
100
AcDbEntity
  8
0
100
AcDbLine
 10
-14.46875836468434
 20
78.88232023904192
 30
0.0
 11
-14.88962584565245
 21
78.63006197881295
 31
0.0
  0
LINE
  5
BB
330
1F
100
AcDbEntity
  8
0
100
AcDbLine
 10
-14.02519184237997
 20
79.09211157985666
 30
0.0
 11
-14.46875836468434
 21
78.88232023904192
 31
0.0
  0
LINE
  5
BC
330
1F
100
AcDbEntity
  8
0
100
AcDbLine
 10
-13.56319806682682
 20
79.25741559596119
 30
0.0
 11
-14.02519184237997
 21
79.09211157985666
 31
0.0
  0
LINE
  5
BD
330
1F
100
AcDbEntity
  8
0
100
AcDbLine
 10
-13.08722629063504
 20
79.37664031931638
 30
0.0
 11
-13.56319806682682
 21
79.25741559596119
 31
0.0
  0
LINE
  5
BE
330
1F
100
AcDbEntity
  8
0
100
AcDbLine
 10
-12.60186038220199
 20
79.44863755066112
 30
0.0
 11
-13.08722629063504
 21
79.37664031931638
 31
0.0
  0
LINE
  5
BF
330
1F
100
AcDbEntity
  8
0
100
AcDbLine
 10
-12.11177468055428
 20
79.47271391730014
 30
0.0
 11
-12.60186038220199
 21
79.44863755066112
 31
0.0
  0
LINE
  5
C0
330
1F
100
AcDbEntity
  8
0
100
AcDbLine
 10
-11.62168897890657
 20
79.44863755066112
 30
0.0
 11
-12.11177468055428
 21
79.47271391730014
 31
0.0
  0
LINE
  5
C1
330
1F
100
AcDbEntity
  8
0
100
AcDbLine
 10
-11.13632307047352
 20
79.37664031931638
 30
0.0
 11
-11.62168897890657
 21
79.44863755066112
 31
0.0
  0
LINE
  5
C2
330
1F
100
AcDbEntity
  8
0
100
AcDbLine
 10
-10.6603512942821
 20
79.25741559596119
 30
0.0
 11
-11.13632307047352
 21
79.37664031931638
 31
0.0
  0
LINE
  5
C3
330
1F
100
AcDbEntity
  8
0
100
AcDbLine
 10
-10.19835751872895
 20
79.09211157985666
 30
0.0
 11
-10.6603512942821
 21
79.25741559596119
 31
0.0
  0
LINE
  5
C4
330
1F
100
AcDbEntity
  8
0
100
AcDbLine
 10
-9.754790996424578
 20
78.88232023904192
 30
0.0
 11
-10.19835751872895
 21
79.09211157985666
 31
0.0
  0
LINE
  5
C5
330
1F
100
AcDbEntity
  8
0
100
AcDbLine
 10
-9.333923515456474
 20
78.63006197881295
 30
0.0
 11
-9.754790996424578
 21
78.88232023904192
 31
0.0
  0
LINE
  5
C6
330
1F
100
AcDbEntity
  8
0
100
AcDbLine
 10
-8.939808259736113
 20
78.33776618411372
 30
0.0
 11
-9.333923515456474
 21
78.63006197881295
 31
0.0
  0
LINE
  5
C7
330
1F
100
AcDbEntity
  8
0
100
AcDbLine
 10
-8.576240774621489
 20
78.00824782323281
 30
0.0
 11
-8.939808259736113
 21
78.33776618411372
 31
0.0
  0
LINE
  5
C8
330
1F
100
AcDbEntity
  8
0
100
AcDbLine
 10
-8.24672241374058
 20
77.64468033811836
 30
0.0
 11
-8.576240774621489
 21
78.00824782323281
 31
0.0
  0
LINE
  5
C9
330
1F
100
AcDbEntity
  8
0
100
AcDbLine
 10
-7.954426619041707
 20
77.25056508239818
 30
0.0
 11
-8.24672241374058
 21
77.64468033811836
 31
0.0
  0
LINE
  5
CA
330
1F
100
AcDbEntity
  8
0
100
AcDbLine
 10
-7.702168358812555
 20
76.82969760143008
 30
0.0
 11
-7.954426619041707
 21
77.25056508239818
 31
0.0
  0
LINE
  5
CB
330
1F
100
AcDbEntity
  8
0
100
AcDbLine
 10
-7.492377017997999
 20
76.3861310791257
 30
0.0
 11
-7.702168358812555
 21
76.82969760143008
 31
0.0
  0
LINE
  5
CC
330
1F
100
AcDbEntity
  8
0
100
AcDbLine
 10
-7.327073001893468
 20
75.92413730357256
 30
0.0
 11
-7.492377017997999
 21
76.3861310791257
 31
0.0
  0
LINE
  5
CD
330
1F
100
AcDbEntity
  8
0
100
AcDbLine
 10
-7.207848278538282
 20
75.44816552738078
 30
0.0
 11
-7.327073001893468
 21
75.92413730357256
 31
0.0
  0
LINE
  5
CE
330
1F
100
AcDbEntity
  8
0
100
AcDbLine
 10
-7.135851047193354
 20
74.96279961894791
 30
0.0
 11
-7.207848278538282
 21
75.44816552738078
 31
0.0
  0
LINE
  5
CF
330
1F
100
AcDbEntity
  8
0
100
AcDbLine
 10
-7.111774680554334
 20
74.47271391730001
 30
0.0
 11
-7.135851047193354
 21
74.96279961894791
 31
0.0
  0
LINE
  5
D0
330
1F
100
AcDbEntity
  8
0
100
AcDbLine
 10
-7.135851047193354
 20
73.9826282156523
 30
0.0
 11
-7.111774680554334
 21
74.47271391730001
 31
0.0
  0
LINE
  5
D1
330
1F
100
AcDbEntity
  8
0
100
AcDbLine
 10
-7.207848278538282
 20
73.49726230721943
 30
0.0
 11
-7.135851047193354
 21
73.9826282156523
 31
0.0
  0
LINE
  5
D2
330
1F
100
AcDbEntity
  8
0
100
AcDbLine
 10
-7.327073001893468
 20
73.02129053102783
 30
0.0
 11
-7.207848278538282
 21
73.49726230721943
 31
0.0
  0
LINE
  5
D3
330
1F
100
AcDbEntity
  8
0
100
AcDbLine
 10
-7.492377017997999
 20
72.55929675547469
 30
0.0
 11
-7.327073001893468
 21
73.02129053102783
 31
0.0
  0
LINE
  5
D4
330
1F
100
AcDbEntity
  8
0
100
AcDbLine
 10
-7.702168358812555
 20
72.11573023317014
 30
0.0
 11
-7.492377017997999
 21
72.55929675547469
 31
0.0
  0
LINE
  5
D5
330
1F
100
AcDbEntity
  8
0
100
AcDbLine
 10
-7.954426619041707
 20
71.69486275220221
 30
0.0
 11
-7.702168358812555
 21
72.11573023317014
 31
0.0
  0
LINE
  5
D6
330
1F
100
AcDbEntity
  8
0
100
AcDbLine
 10
-8.24672241374058
 20
71.30074749648185
 30
0.0
 11
-7.954426619041707
 21
71.69486275220221
 31
0.0
  0
LINE
  5
D7
330
1F
100
AcDbEntity
  8
0
100
AcDbLine
 10
-8.576240774621489
 20
70.93718001136723
 30
0.0
 11
-8.24672241374058
 21
71.30074749648185
 31
0.0
  0
LINE
  5
D8
330
1F
100
AcDbEntity
  8
0
100
AcDbLine
 10
-8.939808259736113
 20
70.60766165048632
 30
0.0
 11
-8.576240774621489
 21
70.93718001136723
 31
0.0
  0
LINE
  5
D9
330
1F
100
AcDbEntity
  8
0
100
AcDbLine
 10
-9.333923515456474
 20
70.31536585578745
 30
0.0
 11
-8.939808259736113
 21
70.60766165048632
 31
0.0
  0
LINE
  5
DA
330
1F
100
AcDbEntity
  8
0
100
AcDbLine
 10
-9.754790996424578
 20
70.0631075955583
 30
0.0
 11
-9.333923515456474
 21
70.31536585578745
 31
0.0
  0
LINE
  5
DB
330
1F
100
AcDbEntity
  8
0
100
AcDbLine
 10
-10.19835751872895
 20
69.85331625474373
 30
0.0
 11
-9.754790996424578
 21
70.0631075955583
 31
0.0
  0
LINE
  5
DC
330
1F
100
AcDbEntity
  8
0
100
AcDbLine
 10
-10.6603512942821
 20
69.68801223863902
 30
0.0
 11
-10.19835751872895
 21
69.85331625474373
 31
0.0
  0
LINE
  5
DD
330
1F
100
AcDbEntity
  8
0
100
AcDbLine
 10
-11.13632307047352
 20
69.56878751528401
 30
0.0
 11
-10.6603512942821
 21
69.68801223863902
 31
0.0
  0
LINE
  5
DE
330
1F
100
AcDbEntity
  8
0
100
AcDbLine
 10
-11.62168897890657
 20
69.49679028393909
 30
0.0
 11
-11.13632307047352
 21
69.56878751528401
 31
0.0
  0
LINE
  5
DF
330
1F
100
AcDbEntity
  8
0
100
AcDbLine
 10
-12.11177468055428
 20
69.47271391730007
 30
0.0
 11
-11.62168897890657
 21
69.49679028393909
 31
0.0
  0
LINE
  5
E0
330
1F
100
AcDbEntity
  8
0
100
AcDbLine
 10
-12.60186038220199
 20
69.49679028393909
 30
0.0
 11
-12.11177468055428
 21
69.47271391730007
 31
0.0
  0
LINE
  5
E1
330
1F
100
AcDbEntity
  8
0
100
AcDbLine
 10
-13.08722629063504
 20
69.56878751528401
 30
0.0
 11
-12.60186038220199
 21
69.49679028393909
 31
0.0
  0
LINE
  5
E2
330
1F
100
AcDbEntity
  8
0
100
AcDbLine
 10
-13.56319806682682
 20
69.68801223863902
 30
0.0
 11
-13.08722629063504
 21
69.56878751528401
 31
0.0
  0
LINE
  5
E3
330
1F
100
AcDbEntity
  8
0
100
AcDbLine
 10
-14.02519184237997
 20
69.85331625474373
 30
0.0
 11
-13.56319806682682
 21
69.68801223863902
 31
0.0
  0
LINE
  5
E4
330
1F
100
AcDbEntity
  8
0
100
AcDbLine
 10
-14.46875836468434
 20
70.0631075955583
 30
0.0
 11
-14.02519184237997
 21
69.85331625474373
 31
0.0
  0
LINE
  5
E5
330
1F
100
AcDbEntity
  8
0
100
AcDbLine
 10
-14.88962584565245
 20
70.31536585578745
 30
0.0
 11
-14.46875836468434
 21
70.0631075955583
 31
0.0
  0
LINE
  5
E6
330
1F
100
AcDbEntity
  8
0
100
AcDbLine
 10
-15.28374110137245
 20
70.60766165048632
 30
0.0
 11
-14.88962584565245
 21
70.31536585578745
 31
0.0
  0
LINE
  5
E7
330
1F
100
AcDbEntity
  8
0
100
AcDbLine
 10
-15.64730858648707
 20
70.93718001136723
 30
0.0
 11
-15.28374110137245
 21
70.60766165048632
 31
0.0
  0
LINE
  5
E8
330
1F
100
AcDbEntity
  8
0
100
AcDbLine
 10
-15.97682694736798
 20
71.30074749648185
 30
0.0
 11
-15.64730858648707
 21
70.93718001136723
 31
0.0
  0
LINE
  5
E9
330
1F
100
AcDbEntity
  8
0
100
AcDbLine
 10
-16.26912274206721
 20
71.69486275220221
 30
0.0
 11
-15.97682694736798
 21
71.30074749648185
 31
0.0
  0
LINE
  5
EA
330
1F
100
AcDbEntity
  8
0
100
AcDbLine
 10
-16.52138100229601
 20
72.11573023317014
 30
0.0
 11
-16.26912274206721
 21
71.69486275220221
 31
0.0
  0
LINE
  5
EB
330
1F
100
AcDbEntity
  8
0
100
AcDbLine
 10
-16.73117234311092
 20
72.55929675547469
 30
0.0
 11
-16.52138100229601
 21
72.11573023317014
 31
0.0
  0
LINE
  5
EC
330
1F
100
AcDbEntity
  8
0
100
AcDbLine
 10
-16.89647635921545
 20
73.02129053102783
 30
0.0
 11
-16.73117234311092
 21
72.55929675547469
 31
0.0
  0
LINE
  5
ED
330
1F
100
AcDbEntity
  8
0
100
AcDbLine
 10
-17.01570108257064
 20
73.49726230721943
 30
0.0
 11
-16.89647635921545
 21
73.02129053102783
 31
0.0
  0
LINE
  5
EE
330
1F
100
AcDbEntity
  8
0
100
AcDbLine
 10
-17.08769831391521
 20
73.9826282156523
 30
0.0
 11
-17.01570108257064
 21
73.49726230721943
 31
0.0
  0
LINE
  5
EF
330
1F
100
AcDbEntity
  8
0
100
AcDbLine
 10
-17.11177468055423
 20
74.47271391730001
 30
0.0
 11
-17.08769831391521
 21
73.9826282156523
 31
0.0
  0
LINE
  5
F0
330
1F
100
AcDbEntity
  8
0
100
AcDbLine
 10
-17.08769831391521
 20
74.96279961894791
 30
0.0
 11
-17.11177468055423
 21
74.47271391730001
 31
0.0
  0
LINE
  5
F1
330
1F
100
AcDbEntity
  8
0
100
AcDbLine
 10
-16.73117234311092
 20
76.3861310791257
 30
0.0
 11
-16.89647635921545
 21
75.92413730357256
 31
0.0
  0
LINE
  5
F2
330
1F
100
AcDbEntity
  8
0
100
AcDbLine
 10
32.3497958802522
 20
119.0825332732679
 30
0.0
 11
32.30210599091005
 21
118.8921445627912
 31
0.0
  0
LINE
  5
F3
330
1F
100
AcDbEntity
  8
0
100
AcDbLine
 10
32.30210599091005
 20
118.8921445627912
 30
0.0
 11
32.23598438446831
 21
118.70734705257
 31
0.0
  0
LINE
  5
F4
330
1F
100
AcDbEntity
  8
0
100
AcDbLine
 10
32.23598438446831
 20
118.70734705257
 30
0.0
 11
32.15206784814234
 21
118.5299204436482
 31
0.0
  0
LINE
  5
F5
330
1F
100
AcDbEntity
  8
0
100
AcDbLine
 10
32.15206784814234
 20
118.5299204436482
 30
0.0
 11
32.05116454405061
 21
118.3615734512609
 31
0.0
  0
LINE
  5
F6
330
1F
100
AcDbEntity
  8
0
100
AcDbLine
 10
32.05116454405061
 20
118.3615734512609
 30
0.0
 11
31.93424622617106
 21
118.2039273489729
 31
0.0
  0
LINE
  5
F7
330
1F
100
AcDbEntity
  8
0
100
AcDbLine
 10
31.93424622617106
 20
118.2039273489729
 30
0.0
 11
31.80243888181863
 21
118.0585003549271
 31
0.0
  0
LINE
  5
F8
330
1F
100
AcDbEntity
  8
0
100
AcDbLine
 10
31.80243888181863
 20
118.0585003549271
 30
0.0
 11
31.657011887773
 21
117.9266930105746
 31
0.0
  0
LINE
  5
F9
330
1F
100
AcDbEntity
  8
0
100
AcDbLine
 10
31.657011887773
 20
117.9266930105746
 30
0.0
 11
31.49936578548478
 21
117.8097746926951
 31
0.0
  0
LINE
  5
FA
330
1F
100
AcDbEntity
  8
0
100
AcDbLine
 10
31.49936578548478
 20
117.8097746926951
 30
0.0
 11
31.33101879309768
 21
117.7088713886033
 31
0.0
  0
LINE
  5
FB
330
1F
100
AcDbEntity
  8
0
100
AcDbLine
 10
31.33101879309768
 20
117.7088713886033
 30
0.0
 11
31.15359218417586
 21
117.6249548522776
 31
0.0
  0
LINE
  5
FC
330
1F
100
AcDbEntity
  8
0
100
AcDbLine
 10
31.15359218417586
 20
117.6249548522776
 30
0.0
 11
30.96879467395467
 21
117.5588332458356
 31
0.0
  0
LINE
  5
FD
330
1F
100
AcDbEntity
  8
0
100
AcDbLine
 10
30.96879467395467
 20
117.5588332458356
 30
0.0
 11
30.77840596347782
 21
117.5111433564937
 31
0.0
  0
LINE
  5
FE
330
1F
100
AcDbEntity
  8
0
100
AcDbLine
 10
30.77840596347782
 20
117.5111433564937
 30
0.0
 11
30.58425960010452
 21
117.4823444639557
 31
0.0
  0
LINE
  5
FF
330
1F
100
AcDbEntity
  8
0
100
AcDbLine
 10
30.58425960010452
 20
117.4823444639557
 30
0.0
 11
30.38822531944544
 21
117.4727139173002
 31
0.0
  0
LINE
  5
100
330
1F
100
AcDbEntity
  8
0
100
AcDbLine
 10
30.38822531944544
 20
117.4727139173002
 30
0.0
 11
30.19219103878635
 21
117.4823444639557
 31
0.0
  0
LINE
  5
101
330
1F
100
AcDbEntity
  8
0
100
AcDbLine
 10
30.19219103878635
 20
117.4823444639557
 30
0.0
 11
29.99804467541342
 21
117.5111433564937
 31
0.0
  0
LINE
  5
102
330
1F
100
AcDbEntity
  8
0
100
AcDbLine
 10
29.99804467541342
 20
117.5111433564937
 30
0.0
 11
29.80765596493656
 21
117.5588332458356
 31
0.0
  0
LINE
  5
103
330
1F
100
AcDbEntity
  8
0
100
AcDbLine
 10
29.80765596493656
 20
117.5588332458356
 30
0.0
 11
29.62285845471538
 21
117.6249548522776
 31
0.0
  0
LINE
  5
104
330
1F
100
AcDbEntity
  8
0
100
AcDbLine
 10
29.62285845471538
 20
117.6249548522776
 30
0.0
 11
29.44543184579356
 21
117.7088713886033
 31
0.0
  0
LINE
  5
105
330
1F
100
AcDbEntity
  8
0
100
AcDbLine
 10
29.44543184579356
 20
117.7088713886033
 30
0.0
 11
29.27708485340646
 21
117.8097746926951
 31
0.0
  0
LINE
  5
106
330
1F
100
AcDbEntity
  8
0
100
AcDbLine
 10
29.27708485340646
 20
117.8097746926951
 30
0.0
 11
29.11943875111825
 21
117.9266930105746
 31
0.0
  0
LINE
  5
107
330
1F
100
AcDbEntity
  8
0
100
AcDbLine
 10
29.11943875111825
 20
117.9266930105746
 30
0.0
 11
28.97401175707261
 21
118.0585003549271
 31
0.0
  0
LINE
  5
108
330
1F
100
AcDbEntity
  8
0
100
AcDbLine
 10
28.97401175707261
 20
118.0585003549271
 30
0.0
 11
28.84220441272018
 21
118.2039273489729
 31
0.0
  0
LINE
  5
109
330
1F
100
AcDbEntity
  8
0
100
AcDbLine
 10
28.84220441272018
 20
118.2039273489729
 30
0.0
 11
28.72528609484063
 21
118.3615734512609
 31
0.0
  0
LINE
  5
10A
330
1F
100
AcDbEntity
  8
0
100
AcDbLine
 10
28.72528609484063
 20
118.3615734512609
 30
0.0
 11
28.62438279074889
 21
118.5299204436482
 31
0.0
  0
LINE
  5
10B
330
1F
100
AcDbEntity
  8
0
100
AcDbLine
 10
28.62438279074889
 20
118.5299204436482
 30
0.0
 11
28.54046625442293
 21
118.70734705257
 31
0.0
  0
LINE
  5
10C
330
1F
100
AcDbEntity
  8
0
100
AcDbLine
 10
28.54046625442293
 20
118.70734705257
 30
0.0
 11
28.47434464798119
 21
118.8921445627912
 31
0.0
  0
LINE
  5
10D
330
1F
100
AcDbEntity
  8
0
100
AcDbLine
 10
28.47434464798119
 20
118.8921445627912
 30
0.0
 11
28.42665475863904
 21
119.0825332732679
 31
0.0
  0
LINE
  5
10E
330
1F
100
AcDbEntity
  8
0
100
AcDbLine
 10
28.42665475863904
 20
119.0825332732679
 30
0.0
 11
28.39785586610121
 21
119.276679636641
 31
0.0
  0
LINE
  5
10F
330
1F
100
AcDbEntity
  8
0
100
AcDbLine
 10
28.39785586610121
 20
119.276679636641
 30
0.0
 11
28.38822531944553
 21
119.4727139173003
 31
0.0
  0
LINE
  5
110
330
1F
100
AcDbEntity
  8
0
100
AcDbLine
 10
28.38822531944553
 20
119.4727139173003
 30
0.0
 11
28.39785586610121
 21
119.6687481979593
 31
0.0
  0
LINE
  5
111
330
1F
100
AcDbEntity
  8
0
100
AcDbLine
 10
28.39785586610121
 20
119.6687481979593
 30
0.0
 11
28.42665475863904
 21
119.8628945613325
 31
0.0
  0
LINE
  5
112
330
1F
100
AcDbEntity
  8
0
100
AcDbLine
 10
28.42665475863904
 20
119.8628945613325
 30
0.0
 11
28.47434464798119
 21
120.0532832718091
 31
0.0
  0
LINE
  5
113
330
1F
100
AcDbEntity
  8
0
100
AcDbLine
 10
28.47434464798119
 20
120.0532832718091
 30
0.0
 11
28.54046625442293
 21
120.2380807820303
 31
0.0
  0
LINE
  5
114
330
1F
100
AcDbEntity
  8
0
100
AcDbLine
 10
28.54046625442293
 20
120.2380807820303
 30
0.0
 11
28.62438279074889
 21
120.4155073909521
 31
0.0
  0
LINE
  5
115
330
1F
100
AcDbEntity
  8
0
100
AcDbLine
 10
28.62438279074889
 20
120.4155073909521
 30
0.0
 11
28.72528609484063
 21
120.5838543833394
 31
0.0
  0
LINE
  5
116
330
1F
100
AcDbEntity
  8
0
100
AcDbLine
 10
28.72528609484063
 20
120.5838543833394
 30
0.0
 11
28.84220441272018
 21
120.7415004856274
 31
0.0
  0
LINE
  5
117
330
1F
100
AcDbEntity
  8
0
100
AcDbLine
 10
28.84220441272018
 20
120.7415004856274
 30
0.0
 11
28.97401175707261
 21
120.8869274796733
 31
0.0
  0
LINE
  5
118
330
1F
100
AcDbEntity
  8
0
100
AcDbLine
 10
28.97401175707261
 20
120.8869274796733
 30
0.0
 11
29.11943875111825
 21
121.0187348240257
 31
0.0
  0
LINE
  5
119
330
1F
100
AcDbEntity
  8
0
100
AcDbLine
 10
29.11943875111825
 20
121.0187348240257
 30
0.0
 11
29.27708485340646
 21
121.1356531419052
 31
0.0
  0
LINE
  5
11A
330
1F
100
AcDbEntity
  8
0
100
AcDbLine
 10
29.27708485340646
 20
121.1356531419052
 30
0.0
 11
29.44543184579356
 21
121.2365564459968
 31
0.0
  0
LINE
  5
11B
330
1F
100
AcDbEntity
  8
0
100
AcDbLine
 10
29.44543184579356
 20
121.2365564459968
 30
0.0
 11
29.62285845471538
 21
121.3204729823228
 31
0.0
  0
LINE
  5
11C
330
1F
100
AcDbEntity
  8
0
100
AcDbLine
 10
29.62285845471538
 20
121.3204729823228
 30
0.0
 11
29.80765596493656
 21
121.3865945887645
 31
0.0
  0
LINE
  5
11D
330
1F
100
AcDbEntity
  8
0
100
AcDbLine
 10
29.80765596493656
 20
121.3865945887645
 30
0.0
 11
29.99804467541342
 21
121.4342844781066
 31
0.0
  0
LINE
  5
11E
330
1F
100
AcDbEntity
  8
0
100
AcDbLine
 10
29.99804467541342
 20
121.4342844781066
 30
0.0
 11
30.19219103878635
 21
121.4630833706445
 31
0.0
  0
LINE
  5
11F
330
1F
100
AcDbEntity
  8
0
100
AcDbLine
 10
30.19219103878635
 20
121.4630833706445
 30
0.0
 11
30.38822531944544
 21
121.4727139173002
 31
0.0
  0
LINE
  5
120
330
1F
100
AcDbEntity
  8
0
100
AcDbLine
 10
30.38822531944544
 20
121.4727139173002
 30
0.0
 11
30.58425960010452
 21
121.4630833706445
 31
0.0
  0
LINE
  5
121
330
1F
100
AcDbEntity
  8
0
100
AcDbLine
 10
30.58425960010452
 20
121.4630833706445
 30
0.0
 11
30.77840596347782
 21
121.4342844781066
 31
0.0
  0
LINE
  5
122
330
1F
100
AcDbEntity
  8
0
100
AcDbLine
 10
30.77840596347782
 20
121.4342844781066
 30
0.0
 11
30.96879467395467
 21
121.3865945887645
 31
0.0
  0
LINE
  5
123
330
1F
100
AcDbEntity
  8
0
100
AcDbLine
 10
30.96879467395467
 20
121.3865945887645
 30
0.0
 11
31.15359218417586
 21
121.3204729823228
 31
0.0
  0
LINE
  5
124
330
1F
100
AcDbEntity
  8
0
100
AcDbLine
 10
31.15359218417586
 20
121.3204729823228
 30
0.0
 11
31.33101879309768
 21
121.2365564459968
 31
0.0
  0
LINE
  5
125
330
1F
100
AcDbEntity
  8
0
100
AcDbLine
 10
31.33101879309768
 20
121.2365564459968
 30
0.0
 11
31.49936578548478
 21
121.1356531419052
 31
0.0
  0
LINE
  5
126
330
1F
100
AcDbEntity
  8
0
100
AcDbLine
 10
31.49936578548478
 20
121.1356531419052
 30
0.0
 11
31.657011887773
 21
121.0187348240257
 31
0.0
  0
LINE
  5
127
330
1F
100
AcDbEntity
  8
0
100
AcDbLine
 10
31.657011887773
 20
121.0187348240257
 30
0.0
 11
31.80243888181863
 21
120.8869274796733
 31
0.0
  0
LINE
  5
128
330
1F
100
AcDbEntity
  8
0
100
AcDbLine
 10
31.80243888181863
 20
120.8869274796733
 30
0.0
 11
31.93424622617106
 21
120.7415004856274
 31
0.0
  0
LINE
  5
129
330
1F
100
AcDbEntity
  8
0
100
AcDbLine
 10
31.93424622617106
 20
120.7415004856274
 30
0.0
 11
32.05116454405061
 21
120.5838543833394
 31
0.0
  0
LINE
  5
12A
330
1F
100
AcDbEntity
  8
0
100
AcDbLine
 10
32.05116454405061
 20
120.5838543833394
 30
0.0
 11
32.15206784814234
 21
120.4155073909521
 31
0.0
  0
LINE
  5
12B
330
1F
100
AcDbEntity
  8
0
100
AcDbLine
 10
32.15206784814234
 20
120.4155073909521
 30
0.0
 11
32.23598438446831
 21
120.2380807820303
 31
0.0
  0
LINE
  5
12C
330
1F
100
AcDbEntity
  8
0
100
AcDbLine
 10
32.23598438446831
 20
120.2380807820303
 30
0.0
 11
32.30210599091005
 21
120.0532832718091
 31
0.0
  0
LINE
  5
12D
330
1F
100
AcDbEntity
  8
0
100
AcDbLine
 10
32.30210599091005
 20
120.0532832718091
 30
0.0
 11
32.3497958802522
 21
119.8628945613325
 31
0.0
  0
LINE
  5
12E
330
1F
100
AcDbEntity
  8
0
100
AcDbLine
 10
32.3497958802522
 20
119.8628945613325
 30
0.0
 11
32.37859477279002
 21
119.6687481979593
 31
0.0
  0
LINE
  5
12F
330
1F
100
AcDbEntity
  8
0
100
AcDbLine
 10
32.37859477279002
 20
119.6687481979593
 30
0.0
 11
32.38822531944571
 21
119.4727139173003
 31
0.0
  0
LINE
  5
130
330
1F
100
AcDbEntity
  8
0
100
AcDbLine
 10
28.42665475863904
 20
199.8628945613325
 30
0.0
 11
28.47434464798119
 21
200.053283271809
 31
0.0
  0
LINE
  5
131
330
1F
100
AcDbEntity
  8
0
100
AcDbLine
 10
28.47434464798119
 20
200.053283271809
 30
0.0
 11
28.54046625442293
 21
200.2380807820304
 31
0.0
  0
LINE
  5
132
330
1F
100
AcDbEntity
  8
0
100
AcDbLine
 10
28.54046625442293
 20
200.2380807820304
 30
0.0
 11
28.62438279074889
 21
200.4155073909522
 31
0.0
  0
LINE
  5
133
330
1F
100
AcDbEntity
  8
0
100
AcDbLine
 10
28.62438279074889
 20
200.4155073909522
 30
0.0
 11
28.72528609484063
 21
200.5838543833395
 31
0.0
  0
LINE
  5
134
330
1F
100
AcDbEntity
  8
0
100
AcDbLine
 10
28.72528609484063
 20
200.5838543833395
 30
0.0
 11
28.84220441272018
 21
200.7415004856275
 31
0.0
  0
LINE
  5
135
330
1F
100
AcDbEntity
  8
0
100
AcDbLine
 10
28.84220441272018
 20
200.7415004856275
 30
0.0
 11
28.97401175707261
 21
200.8869274796733
 31
0.0
  0
LINE
  5
136
330
1F
100
AcDbEntity
  8
0
100
AcDbLine
 10
28.97401175707261
 20
200.8869274796733
 30
0.0
 11
29.11943875111825
 21
201.0187348240257
 31
0.0
  0
LINE
  5
137
330
1F
100
AcDbEntity
  8
0
100
AcDbLine
 10
29.11943875111825
 20
201.0187348240257
 30
0.0
 11
29.27708485340646
 21
201.1356531419053
 31
0.0
  0
LINE
  5
138
330
1F
100
AcDbEntity
  8
0
100
AcDbLine
 10
29.27708485340646
 20
201.1356531419053
 30
0.0
 11
29.44543184579356
 21
201.2365564459968
 31
0.0
  0
LINE
  5
139
330
1F
100
AcDbEntity
  8
0
100
AcDbLine
 10
29.44543184579356
 20
201.2365564459968
 30
0.0
 11
29.62285845471538
 21
201.3204729823226
 31
0.0
  0
LINE
  5
13A
330
1F
100
AcDbEntity
  8
0
100
AcDbLine
 10
29.62285845471538
 20
201.3204729823226
 30
0.0
 11
29.80765596493656
 21
201.3865945887645
 31
0.0
  0
LINE
  5
13B
330
1F
100
AcDbEntity
  8
0
100
AcDbLine
 10
29.80765596493656
 20
201.3865945887645
 30
0.0
 11
29.99804467541342
 21
201.4342844781065
 31
0.0
  0
LINE
  5
13C
330
1F
100
AcDbEntity
  8
0
100
AcDbLine
 10
29.99804467541342
 20
201.4342844781065
 30
0.0
 11
30.19219103878635
 21
201.4630833706445
 31
0.0
  0
LINE
  5
13D
330
1F
100
AcDbEntity
  8
0
100
AcDbLine
 10
30.19219103878635
 20
201.4630833706445
 30
0.0
 11
30.38822531944544
 21
201.4727139173002
 31
0.0
  0
LINE
  5
13E
330
1F
100
AcDbEntity
  8
0
100
AcDbLine
 10
30.38822531944544
 20
201.4727139173002
 30
0.0
 11
30.58425960010452
 21
201.4630833706445
 31
0.0
  0
LINE
  5
13F
330
1F
100
AcDbEntity
  8
0
100
AcDbLine
 10
30.58425960010452
 20
201.4630833706445
 30
0.0
 11
30.77840596347782
 21
201.4342844781065
 31
0.0
  0
LINE
  5
140
330
1F
100
AcDbEntity
  8
0
100
AcDbLine
 10
30.77840596347782
 20
201.4342844781065
 30
0.0
 11
30.96879467395467
 21
201.3865945887645
 31
0.0
  0
LINE
  5
141
330
1F
100
AcDbEntity
  8
0
100
AcDbLine
 10
30.96879467395467
 20
201.3865945887645
 30
0.0
 11
31.15359218417586
 21
201.3204729823226
 31
0.0
  0
LINE
  5
142
330
1F
100
AcDbEntity
  8
0
100
AcDbLine
 10
31.15359218417586
 20
201.3204729823226
 30
0.0
 11
31.33101879309768
 21
201.2365564459968
 31
0.0
  0
LINE
  5
143
330
1F
100
AcDbEntity
  8
0
100
AcDbLine
 10
31.33101879309768
 20
201.2365564459968
 30
0.0
 11
31.49936578548478
 21
201.1356531419053
 31
0.0
  0
LINE
  5
144
330
1F
100
AcDbEntity
  8
0
100
AcDbLine
 10
31.49936578548478
 20
201.1356531419053
 30
0.0
 11
31.657011887773
 21
201.0187348240257
 31
0.0
  0
LINE
  5
145
330
1F
100
AcDbEntity
  8
0
100
AcDbLine
 10
31.657011887773
 20
201.0187348240257
 30
0.0
 11
31.80243888181863
 21
200.8869274796733
 31
0.0
  0
LINE
  5
146
330
1F
100
AcDbEntity
  8
0
100
AcDbLine
 10
31.80243888181863
 20
200.8869274796733
 30
0.0
 11
31.93424622617106
 21
200.7415004856275
 31
0.0
  0
LINE
  5
147
330
1F
100
AcDbEntity
  8
0
100
AcDbLine
 10
31.93424622617106
 20
200.7415004856275
 30
0.0
 11
32.05116454405061
 21
200.5838543833395
 31
0.0
  0
LINE
  5
148
330
1F
100
AcDbEntity
  8
0
100
AcDbLine
 10
32.05116454405061
 20
200.5838543833395
 30
0.0
 11
32.15206784814234
 21
200.4155073909522
 31
0.0
  0
LINE
  5
149
330
1F
100
AcDbEntity
  8
0
100
AcDbLine
 10
32.15206784814234
 20
200.4155073909522
 30
0.0
 11
32.23598438446831
 21
200.2380807820304
 31
0.0
  0
LINE
  5
14A
330
1F
100
AcDbEntity
  8
0
100
AcDbLine
 10
32.23598438446831
 20
200.2380807820304
 30
0.0
 11
32.30210599091005
 21
200.053283271809
 31
0.0
  0
LINE
  5
14B
330
1F
100
AcDbEntity
  8
0
100
AcDbLine
 10
32.30210599091005
 20
200.053283271809
 30
0.0
 11
32.3497958802522
 21
199.8628945613325
 31
0.0
  0
LINE
  5
14C
330
1F
100
AcDbEntity
  8
0
100
AcDbLine
 10
32.3497958802522
 20
199.8628945613325
 30
0.0
 11
32.37859477279002
 21
199.6687481979592
 31
0.0
  0
LINE
  5
14D
330
1F
100
AcDbEntity
  8
0
100
AcDbLine
 10
32.37859477279002
 20
199.6687481979592
 30
0.0
 11
32.38822531944571
 21
199.4727139173001
 31
0.0
  0
LINE
  5
14E
330
1F
100
AcDbEntity
  8
0
100
AcDbLine
 10
32.38822531944571
 20
199.4727139173001
 30
0.0
 11
32.37859477279002
 21
199.276679636641
 31
0.0
  0
LINE
  5
14F
330
1F
100
AcDbEntity
  8
0
100
AcDbLine
 10
32.37859477279002
 20
199.276679636641
 30
0.0
 11
32.3497958802522
 21
199.0825332732679
 31
0.0
  0
LINE
  5
150
330
1F
100
AcDbEntity
  8
0
100
AcDbLine
 10
32.3497958802522
 20
199.0825332732679
 30
0.0
 11
32.30210599091005
 21
198.8921445627912
 31
0.0
  0
LINE
  5
151
330
1F
100
AcDbEntity
  8
0
100
AcDbLine
 10
32.30210599091005
 20
198.8921445627912
 30
0.0
 11
32.23598438446831
 21
198.70734705257
 31
0.0
  0
LINE
  5
152
330
1F
100
AcDbEntity
  8
0
100
AcDbLine
 10
32.23598438446831
 20
198.70734705257
 30
0.0
 11
32.15206784814234
 21
198.5299204436482
 31
0.0
  0
LINE
  5
153
330
1F
100
AcDbEntity
  8
0
100
AcDbLine
 10
32.15206784814234
 20
198.5299204436482
 30
0.0
 11
32.05116454405061
 21
198.3615734512609
 31
0.0
  0
LINE
  5
154
330
1F
100
AcDbEntity
  8
0
100
AcDbLine
 10
32.05116454405061
 20
198.3615734512609
 30
0.0
 11
31.93424622617106
 21
198.2039273489729
 31
0.0
  0
LINE
  5
155
330
1F
100
AcDbEntity
  8
0
100
AcDbLine
 10
31.93424622617106
 20
198.2039273489729
 30
0.0
 11
31.80243888181863
 21
198.0585003549271
 31
0.0
  0
LINE
  5
156
330
1F
100
AcDbEntity
  8
0
100
AcDbLine
 10
31.80243888181863
 20
198.0585003549271
 30
0.0
 11
31.657011887773
 21
197.9266930105747
 31
0.0
  0
LINE
  5
157
330
1F
100
AcDbEntity
  8
0
100
AcDbLine
 10
31.657011887773
 20
197.9266930105747
 30
0.0
 11
31.49936578548478
 21
197.8097746926951
 31
0.0
  0
LINE
  5
158
330
1F
100
AcDbEntity
  8
0
100
AcDbLine
 10
31.49936578548478
 20
197.8097746926951
 30
0.0
 11
31.33101879309768
 21
197.7088713886034
 31
0.0
  0
LINE
  5
159
330
1F
100
AcDbEntity
  8
0
100
AcDbLine
 10
31.33101879309768
 20
197.7088713886034
 30
0.0
 11
31.15359218417586
 21
197.6249548522776
 31
0.0
  0
LINE
  5
15A
330
1F
100
AcDbEntity
  8
0
100
AcDbLine
 10
31.15359218417586
 20
197.6249548522776
 30
0.0
 11
30.96879467395467
 21
197.5588332458357
 31
0.0
  0
LINE
  5
15B
330
1F
100
AcDbEntity
  8
0
100
AcDbLine
 10
30.96879467395467
 20
197.5588332458357
 30
0.0
 11
30.77840596347782
 21
197.5111433564937
 31
0.0
  0
LINE
  5
15C
330
1F
100
AcDbEntity
  8
0
100
AcDbLine
 10
30.77840596347782
 20
197.5111433564937
 30
0.0
 11
30.58425960010452
 21
197.4823444639557
 31
0.0
  0
LINE
  5
15D
330
1F
100
AcDbEntity
  8
0
100
AcDbLine
 10
30.58425960010452
 20
197.4823444639557
 30
0.0
 11
30.38822531944544
 21
197.4727139173002
 31
0.0
  0
LINE
  5
15E
330
1F
100
AcDbEntity
  8
0
100
AcDbLine
 10
30.38822531944544
 20
197.4727139173002
 30
0.0
 11
30.19219103878635
 21
197.4823444639557
 31
0.0
  0
LINE
  5
15F
330
1F
100
AcDbEntity
  8
0
100
AcDbLine
 10
30.19219103878635
 20
197.4823444639557
 30
0.0
 11
29.99804467541342
 21
197.5111433564937
 31
0.0
  0
LINE
  5
160
330
1F
100
AcDbEntity
  8
0
100
AcDbLine
 10
29.99804467541342
 20
197.5111433564937
 30
0.0
 11
29.80765596493656
 21
197.5588332458357
 31
0.0
  0
LINE
  5
161
330
1F
100
AcDbEntity
  8
0
100
AcDbLine
 10
29.80765596493656
 20
197.5588332458357
 30
0.0
 11
29.62285845471538
 21
197.6249548522776
 31
0.0
  0
LINE
  5
162
330
1F
100
AcDbEntity
  8
0
100
AcDbLine
 10
29.62285845471538
 20
197.6249548522776
 30
0.0
 11
29.44543184579356
 21
197.7088713886034
 31
0.0
  0
LINE
  5
163
330
1F
100
AcDbEntity
  8
0
100
AcDbLine
 10
29.44543184579356
 20
197.7088713886034
 30
0.0
 11
29.27708485340646
 21
197.8097746926951
 31
0.0
  0
LINE
  5
164
330
1F
100
AcDbEntity
  8
0
100
AcDbLine
 10
29.27708485340646
 20
197.8097746926951
 30
0.0
 11
29.11943875111825
 21
197.9266930105747
 31
0.0
  0
LINE
  5
165
330
1F
100
AcDbEntity
  8
0
100
AcDbLine
 10
29.11943875111825
 20
197.9266930105747
 30
0.0
 11
28.97401175707261
 21
198.0585003549271
 31
0.0
  0
LINE
  5
166
330
1F
100
AcDbEntity
  8
0
100
AcDbLine
 10
28.97401175707261
 20
198.0585003549271
 30
0.0
 11
28.84220441272018
 21
198.2039273489729
 31
0.0
  0
LINE
  5
167
330
1F
100
AcDbEntity
  8
0
100
AcDbLine
 10
28.84220441272018
 20
198.2039273489729
 30
0.0
 11
28.72528609484063
 21
198.3615734512609
 31
0.0
  0
LINE
  5
168
330
1F
100
AcDbEntity
  8
0
100
AcDbLine
 10
28.72528609484063
 20
198.3615734512609
 30
0.0
 11
28.62438279074889
 21
198.5299204436482
 31
0.0
  0
LINE
  5
169
330
1F
100
AcDbEntity
  8
0
100
AcDbLine
 10
28.62438279074889
 20
198.5299204436482
 30
0.0
 11
28.54046625442293
 21
198.70734705257
 31
0.0
  0
LINE
  5
16A
330
1F
100
AcDbEntity
  8
0
100
AcDbLine
 10
28.54046625442293
 20
198.70734705257
 30
0.0
 11
28.47434464798119
 21
198.8921445627912
 31
0.0
  0
LINE
  5
16B
330
1F
100
AcDbEntity
  8
0
100
AcDbLine
 10
28.47434464798119
 20
198.8921445627912
 30
0.0
 11
28.42665475863904
 21
199.0825332732679
 31
0.0
  0
LINE
  5
16C
330
1F
100
AcDbEntity
  8
0
100
AcDbLine
 10
28.42665475863904
 20
199.0825332732679
 30
0.0
 11
28.39785586610121
 21
199.276679636641
 31
0.0
  0
LINE
  5
16D
330
1F
100
AcDbEntity
  8
0
100
AcDbLine
 10
28.39785586610121
 20
199.276679636641
 30
0.0
 11
28.38822531944553
 21
199.4727139173001
 31
0.0
  0
LINE
  5
16E
330
1F
100
AcDbEntity
  8
0
100
AcDbLine
 10
28.38822531944553
 20
199.4727139173001
 30
0.0
 11
28.39785586610121
 21
199.6687481979592
 31
0.0
  0
LINE
  5
16F
330
1F
100
AcDbEntity
  8
0
100
AcDbLine
 10
28.39785586610121
 20
199.6687481979592
 30
0.0
 11
28.42665475863904
 21
199.8628945613325
 31
0.0
  0
LINE
  5
170
330
1F
100
AcDbEntity
  8
0
100
AcDbLine
 10
-133.3429881122274
 20
121.0187348240255
 30
0.0
 11
-133.1975611181814
 21
120.8869274796733
 31
0.0
  0
LINE
  5
171
330
1F
100
AcDbEntity
  8
0
100
AcDbLine
 10
-133.1975611181814
 20
120.8869274796733
 30
0.0
 11
-133.065753773829
 21
120.7415004856274
 31
0.0
  0
LINE
  5
172
330
1F
100
AcDbEntity
  8
0
100
AcDbLine
 10
-133.065753773829
 20
120.7415004856274
 30
0.0
 11
-132.9488354559494
 21
120.5838543833392
 31
0.0
  0
LINE
  5
173
330
1F
100
AcDbEntity
  8
0
100
AcDbLine
 10
-132.9488354559494
 20
120.5838543833392
 30
0.0
 11
-132.8479321518577
 21
120.4155073909521
 31
0.0
  0
LINE
  5
174
330
1F
100
AcDbEntity
  8
0
100
AcDbLine
 10
-132.8479321518577
 20
120.4155073909521
 30
0.0
 11
-132.7640156155321
 21
120.2380807820303
 31
0.0
  0
LINE
  5
175
330
1F
100
AcDbEntity
  8
0
100
AcDbLine
 10
-132.7640156155321
 20
120.2380807820303
 30
0.0
 11
-132.69789400909
 21
120.0532832718091
 31
0.0
  0
LINE
  5
176
330
1F
100
AcDbEntity
  8
0
100
AcDbLine
 10
-132.69789400909
 20
120.0532832718091
 30
0.0
 11
-132.6502041197482
 21
119.8628945613323
 31
0.0
  0
LINE
  5
177
330
1F
100
AcDbEntity
  8
0
100
AcDbLine
 10
-132.6502041197482
 20
119.8628945613323
 30
0.0
 11
-132.62140522721
 21
119.6687481979593
 31
0.0
  0
LINE
  5
178
330
1F
100
AcDbEntity
  8
0
100
AcDbLine
 10
-132.62140522721
 20
119.6687481979593
 30
0.0
 11
-132.6117746805547
 21
119.4727139173001
 31
0.0
  0
LINE
  5
179
330
1F
100
AcDbEntity
  8
0
100
AcDbLine
 10
-132.6117746805547
 20
119.4727139173001
 30
0.0
 11
-132.62140522721
 21
119.276679636641
 31
0.0
  0
LINE
  5
17A
330
1F
100
AcDbEntity
  8
0
100
AcDbLine
 10
-132.62140522721
 20
119.276679636641
 30
0.0
 11
-132.6502041197482
 21
119.0825332732679
 31
0.0
  0
LINE
  5
17B
330
1F
100
AcDbEntity
  8
0
100
AcDbLine
 10
-132.6502041197482
 20
119.0825332732679
 30
0.0
 11
-132.69789400909
 21
118.8921445627912
 31
0.0
  0
LINE
  5
17C
330
1F
100
AcDbEntity
  8
0
100
AcDbLine
 10
-132.69789400909
 20
118.8921445627912
 30
0.0
 11
-132.7640156155321
 21
118.7073470525698
 31
0.0
  0
LINE
  5
17D
330
1F
100
AcDbEntity
  8
0
100
AcDbLine
 10
-132.7640156155321
 20
118.7073470525698
 30
0.0
 11
-132.8479321518577
 21
118.529920443648
 31
0.0
  0
LINE
  5
17E
330
1F
100
AcDbEntity
  8
0
100
AcDbLine
 10
-132.8479321518577
 20
118.529920443648
 30
0.0
 11
-132.9488354559494
 21
118.3615734512609
 31
0.0
  0
LINE
  5
17F
330
1F
100
AcDbEntity
  8
0
100
AcDbLine
 10
-132.9488354559494
 20
118.3615734512609
 30
0.0
 11
-133.065753773829
 21
118.2039273489729
 31
0.0
  0
LINE
  5
180
330
1F
100
AcDbEntity
  8
0
100
AcDbLine
 10
-133.065753773829
 20
118.2039273489729
 30
0.0
 11
-133.1975611181814
 21
118.0585003549271
 31
0.0
  0
LINE
  5
181
330
1F
100
AcDbEntity
  8
0
100
AcDbLine
 10
-133.1975611181814
 20
118.0585003549271
 30
0.0
 11
-133.3429881122274
 21
117.9266930105746
 31
0.0
  0
LINE
  5
182
330
1F
100
AcDbEntity
  8
0
100
AcDbLine
 10
-133.3429881122274
 20
117.9266930105746
 30
0.0
 11
-133.5006342145152
 21
117.8097746926951
 31
0.0
  0
LINE
  5
183
330
1F
100
AcDbEntity
  8
0
100
AcDbLine
 10
-133.5006342145152
 20
117.8097746926951
 30
0.0
 11
-133.6689812069027
 21
117.7088713886033
 31
0.0
  0
LINE
  5
184
330
1F
100
AcDbEntity
  8
0
100
AcDbLine
 10
-133.6689812069027
 20
117.7088713886033
 30
0.0
 11
-133.8464078158242
 21
117.6249548522776
 31
0.0
  0
LINE
  5
185
330
1F
100
AcDbEntity
  8
0
100
AcDbLine
 10
-133.8464078158242
 20
117.6249548522776
 30
0.0
 11
-134.0312053260457
 21
117.5588332458356
 31
0.0
  0
LINE
  5
186
330
1F
100
AcDbEntity
  8
0
100
AcDbLine
 10
-134.0312053260457
 20
117.5588332458356
 30
0.0
 11
-134.2215940365222
 21
117.5111433564937
 31
0.0
  0
LINE
  5
187
330
1F
100
AcDbEntity
  8
0
100
AcDbLine
 10
-134.2215940365222
 20
117.5111433564937
 30
0.0
 11
-134.4157403998955
 21
117.4823444639557
 31
0.0
  0
LINE
  5
188
330
1F
100
AcDbEntity
  8
0
100
AcDbLine
 10
-134.4157403998955
 20
117.4823444639557
 30
0.0
 11
-134.6117746805546
 21
117.4727139173002
 31
0.0
  0
LINE
  5
189
330
1F
100
AcDbEntity
  8
0
100
AcDbLine
 10
-134.6117746805546
 20
117.4727139173002
 30
0.0
 11
-134.8078089612137
 21
117.4823444639557
 31
0.0
  0
LINE
  5
18A
330
1F
100
AcDbEntity
  8
0
100
AcDbLine
 10
-134.8078089612137
 20
117.4823444639557
 30
0.0
 11
-135.0019553245866
 21
117.5111433564937
 31
0.0
  0
LINE
  5
18B
330
1F
100
AcDbEntity
  8
0
100
AcDbLine
 10
-135.0019553245866
 20
117.5111433564937
 30
0.0
 11
-135.1923440350635
 21
117.5588332458356
 31
0.0
  0
LINE
  5
18C
330
1F
100
AcDbEntity
  8
0
100
AcDbLine
 10
-135.1923440350635
 20
117.5588332458356
 30
0.0
 11
-135.3771415452846
 21
117.6249548522776
 31
0.0
  0
LINE
  5
18D
330
1F
100
AcDbEntity
  8
0
100
AcDbLine
 10
-135.3771415452846
 20
117.6249548522776
 30
0.0
 11
-135.5545681542065
 21
117.7088713886033
 31
0.0
  0
LINE
  5
18E
330
1F
100
AcDbEntity
  8
0
100
AcDbLine
 10
-135.5545681542065
 20
117.7088713886033
 30
0.0
 11
-135.7229151465936
 21
117.8097746926951
 31
0.0
  0
LINE
  5
18F
330
1F
100
AcDbEntity
  8
0
100
AcDbLine
 10
-135.7229151465936
 20
117.8097746926951
 30
0.0
 11
-135.8805612488818
 21
117.9266930105746
 31
0.0
  0
LINE
  5
190
330
1F
100
AcDbEntity
  8
0
100
AcDbLine
 10
-135.8805612488818
 20
117.9266930105746
 30
0.0
 11
-136.0259882429278
 21
118.0585003549271
 31
0.0
  0
LINE
  5
191
330
1F
100
AcDbEntity
  8
0
100
AcDbLine
 10
-136.0259882429278
 20
118.0585003549271
 30
0.0
 11
-136.1577955872802
 21
118.2039273489729
 31
0.0
  0
LINE
  5
192
330
1F
100
AcDbEntity
  8
0
100
AcDbLine
 10
-136.1577955872802
 20
118.2039273489729
 30
0.0
 11
-136.2747139051598
 21
118.3615734512609
 31
0.0
  0
LINE
  5
193
330
1F
100
AcDbEntity
  8
0
100
AcDbLine
 10
-136.2747139051598
 20
118.3615734512609
 30
0.0
 11
-136.3756172092511
 21
118.529920443648
 31
0.0
  0
LINE
  5
194
330
1F
100
AcDbEntity
  8
0
100
AcDbLine
 10
-136.3756172092511
 20
118.529920443648
 30
0.0
 11
-136.4595337455771
 21
118.7073470525698
 31
0.0
  0
LINE
  5
195
330
1F
100
AcDbEntity
  8
0
100
AcDbLine
 10
-136.4595337455771
 20
118.7073470525698
 30
0.0
 11
-136.5256553520188
 21
118.8921445627912
 31
0.0
  0
LINE
  5
196
330
1F
100
AcDbEntity
  8
0
100
AcDbLine
 10
-136.5256553520188
 20
118.8921445627912
 30
0.0
 11
-136.573345241361
 21
119.0825332732679
 31
0.0
  0
LINE
  5
197
330
1F
100
AcDbEntity
  8
0
100
AcDbLine
 10
-136.573345241361
 20
119.0825332732679
 30
0.0
 11
-136.6021441338988
 21
119.276679636641
 31
0.0
  0
LINE
  5
198
330
1F
100
AcDbEntity
  8
0
100
AcDbLine
 10
-136.6021441338988
 20
119.276679636641
 30
0.0
 11
-136.6117746805545
 21
119.4727139173001
 31
0.0
  0
LINE
  5
199
330
1F
100
AcDbEntity
  8
0
100
AcDbLine
 10
-136.6117746805545
 20
119.4727139173001
 30
0.0
 11
-136.6021441338988
 21
119.6687481979593
 31
0.0
  0
LINE
  5
19A
330
1F
100
AcDbEntity
  8
0
100
AcDbLine
 10
-136.6021441338988
 20
119.6687481979593
 30
0.0
 11
-136.573345241361
 21
119.8628945613323
 31
0.0
  0
LINE
  5
19B
330
1F
100
AcDbEntity
  8
0
100
AcDbLine
 10
-136.573345241361
 20
119.8628945613323
 30
0.0
 11
-136.5256553520188
 21
120.0532832718091
 31
0.0
  0
LINE
  5
19C
330
1F
100
AcDbEntity
  8
0
100
AcDbLine
 10
-136.5256553520188
 20
120.0532832718091
 30
0.0
 11
-136.4595337455771
 21
120.2380807820303
 31
0.0
  0
LINE
  5
19D
330
1F
100
AcDbEntity
  8
0
100
AcDbLine
 10
-136.4595337455771
 20
120.2380807820303
 30
0.0
 11
-136.3756172092511
 21
120.4155073909521
 31
0.0
  0
LINE
  5
19E
330
1F
100
AcDbEntity
  8
0
100
AcDbLine
 10
-136.3756172092511
 20
120.4155073909521
 30
0.0
 11
-136.2747139051598
 21
120.5838543833392
 31
0.0
  0
LINE
  5
19F
330
1F
100
AcDbEntity
  8
0
100
AcDbLine
 10
-136.2747139051598
 20
120.5838543833392
 30
0.0
 11
-136.1577955872802
 21
120.7415004856274
 31
0.0
  0
LINE
  5
1A0
330
1F
100
AcDbEntity
  8
0
100
AcDbLine
 10
-136.1577955872802
 20
120.7415004856274
 30
0.0
 11
-136.0259882429278
 21
120.8869274796733
 31
0.0
  0
LINE
  5
1A1
330
1F
100
AcDbEntity
  8
0
100
AcDbLine
 10
-136.0259882429278
 20
120.8869274796733
 30
0.0
 11
-135.8805612488818
 21
121.0187348240255
 31
0.0
  0
LINE
  5
1A2
330
1F
100
AcDbEntity
  8
0
100
AcDbLine
 10
-135.8805612488818
 20
121.0187348240255
 30
0.0
 11
-135.7229151465936
 21
121.1356531419052
 31
0.0
  0
LINE
  5
1A3
330
1F
100
AcDbEntity
  8
0
100
AcDbLine
 10
-135.7229151465936
 20
121.1356531419052
 30
0.0
 11
-135.5545681542065
 21
121.2365564459968
 31
0.0
  0
LINE
  5
1A4
330
1F
100
AcDbEntity
  8
0
100
AcDbLine
 10
-135.5545681542065
 20
121.2365564459968
 30
0.0
 11
-135.3771415452846
 21
121.3204729823228
 31
0.0
  0
LINE
  5
1A5
330
1F
100
AcDbEntity
  8
0
100
AcDbLine
 10
-135.3771415452846
 20
121.3204729823228
 30
0.0
 11
-135.1923440350635
 21
121.3865945887645
 31
0.0
  0
LINE
  5
1A6
330
1F
100
AcDbEntity
  8
0
100
AcDbLine
 10
-135.1923440350635
 20
121.3865945887645
 30
0.0
 11
-135.0019553245866
 21
121.4342844781066
 31
0.0
  0
LINE
  5
1A7
330
1F
100
AcDbEntity
  8
0
100
AcDbLine
 10
-135.0019553245866
 20
121.4342844781066
 30
0.0
 11
-134.8078089612137
 21
121.4630833706445
 31
0.0
  0
LINE
  5
1A8
330
1F
100
AcDbEntity
  8
0
100
AcDbLine
 10
-134.8078089612137
 20
121.4630833706445
 30
0.0
 11
-134.6117746805546
 21
121.4727139173002
 31
0.0
  0
LINE
  5
1A9
330
1F
100
AcDbEntity
  8
0
100
AcDbLine
 10
-134.6117746805546
 20
121.4727139173002
 30
0.0
 11
-134.4157403998955
 21
121.4630833706445
 31
0.0
  0
LINE
  5
1AA
330
1F
100
AcDbEntity
  8
0
100
AcDbLine
 10
-134.4157403998955
 20
121.4630833706445
 30
0.0
 11
-134.2215940365222
 21
121.4342844781066
 31
0.0
  0
LINE
  5
1AB
330
1F
100
AcDbEntity
  8
0
100
AcDbLine
 10
-134.2215940365222
 20
121.4342844781066
 30
0.0
 11
-134.0312053260457
 21
121.3865945887645
 31
0.0
  0
LINE
  5
1AC
330
1F
100
AcDbEntity
  8
0
100
AcDbLine
 10
-134.0312053260457
 20
121.3865945887645
 30
0.0
 11
-133.8464078158242
 21
121.3204729823228
 31
0.0
  0
LINE
  5
1AD
330
1F
100
AcDbEntity
  8
0
100
AcDbLine
 10
-133.8464078158242
 20
121.3204729823228
 30
0.0
 11
-133.6689812069027
 21
121.2365564459968
 31
0.0
  0
LINE
  5
1AE
330
1F
100
AcDbEntity
  8
0
100
AcDbLine
 10
-133.6689812069027
 20
121.2365564459968
 30
0.0
 11
-133.5006342145152
 21
121.1356531419052
 31
0.0
  0
LINE
  5
1AF
330
1F
100
AcDbEntity
  8
0
100
AcDbLine
 10
-133.5006342145152
 20
121.1356531419052
 30
0.0
 11
-133.3429881122274
 21
121.0187348240255
 31
0.0
  0
LINE
  5
1B0
330
1F
100
AcDbEntity
  8
0
100
AcDbLine
 10
-134.2215940365222
 20
201.4342844781065
 30
0.0
 11
-134.0312053260457
 21
201.3865945887645
 31
0.0
  0
LINE
  5
1B1
330
1F
100
AcDbEntity
  8
0
100
AcDbLine
 10
-134.0312053260457
 20
201.3865945887645
 30
0.0
 11
-133.8464078158242
 21
201.3204729823226
 31
0.0
  0
LINE
  5
1B2
330
1F
100
AcDbEntity
  8
0
100
AcDbLine
 10
-133.8464078158242
 20
201.3204729823226
 30
0.0
 11
-133.6689812069027
 21
201.2365564459968
 31
0.0
  0
LINE
  5
1B3
330
1F
100
AcDbEntity
  8
0
100
AcDbLine
 10
-133.6689812069027
 20
201.2365564459968
 30
0.0
 11
-133.5006342145152
 21
201.1356531419053
 31
0.0
  0
LINE
  5
1B4
330
1F
100
AcDbEntity
  8
0
100
AcDbLine
 10
-133.5006342145152
 20
201.1356531419053
 30
0.0
 11
-133.3429881122274
 21
201.0187348240256
 31
0.0
  0
LINE
  5
1B5
330
1F
100
AcDbEntity
  8
0
100
AcDbLine
 10
-133.3429881122274
 20
201.0187348240256
 30
0.0
 11
-133.1975611181814
 21
200.8869274796733
 31
0.0
  0
LINE
  5
1B6
330
1F
100
AcDbEntity
  8
0
100
AcDbLine
 10
-133.1975611181814
 20
200.8869274796733
 30
0.0
 11
-133.065753773829
 21
200.7415004856273
 31
0.0
  0
LINE
  5
1B7
330
1F
100
AcDbEntity
  8
0
100
AcDbLine
 10
-133.065753773829
 20
200.7415004856273
 30
0.0
 11
-132.9488354559494
 21
200.5838543833393
 31
0.0
  0
LINE
  5
1B8
330
1F
100
AcDbEntity
  8
0
100
AcDbLine
 10
-132.9488354559494
 20
200.5838543833393
 30
0.0
 11
-132.8479321518577
 21
200.4155073909522
 31
0.0
  0
LINE
  5
1B9
330
1F
100
AcDbEntity
  8
0
100
AcDbLine
 10
-132.8479321518577
 20
200.4155073909522
 30
0.0
 11
-132.7640156155321
 21
200.2380807820304
 31
0.0
  0
LINE
  5
1BA
330
1F
100
AcDbEntity
  8
0
100
AcDbLine
 10
-132.7640156155321
 20
200.2380807820304
 30
0.0
 11
-132.69789400909
 21
200.053283271809
 31
0.0
  0
LINE
  5
1BB
330
1F
100
AcDbEntity
  8
0
100
AcDbLine
 10
-132.69789400909
 20
200.053283271809
 30
0.0
 11
-132.6502041197482
 21
199.8628945613323
 31
0.0
  0
LINE
  5
1BC
330
1F
100
AcDbEntity
  8
0
100
AcDbLine
 10
-132.6502041197482
 20
199.8628945613323
 30
0.0
 11
-132.62140522721
 21
199.6687481979592
 31
0.0
  0
LINE
  5
1BD
330
1F
100
AcDbEntity
  8
0
100
AcDbLine
 10
-132.62140522721
 20
199.6687481979592
 30
0.0
 11
-132.6117746805547
 21
199.4727139173001
 31
0.0
  0
LINE
  5
1BE
330
1F
100
AcDbEntity
  8
0
100
AcDbLine
 10
-132.6117746805547
 20
199.4727139173001
 30
0.0
 11
-132.62140522721
 21
199.276679636641
 31
0.0
  0
LINE
  5
1BF
330
1F
100
AcDbEntity
  8
0
100
AcDbLine
 10
-132.62140522721
 20
199.276679636641
 30
0.0
 11
-132.6502041197482
 21
199.0825332732679
 31
0.0
  0
LINE
  5
1C0
330
1F
100
AcDbEntity
  8
0
100
AcDbLine
 10
-132.6502041197482
 20
199.0825332732679
 30
0.0
 11
-132.69789400909
 21
198.8921445627912
 31
0.0
  0
LINE
  5
1C1
330
1F
100
AcDbEntity
  8
0
100
AcDbLine
 10
-132.69789400909
 20
198.8921445627912
 30
0.0
 11
-132.7640156155321
 21
198.7073470525699
 31
0.0
  0
LINE
  5
1C2
330
1F
100
AcDbEntity
  8
0
100
AcDbLine
 10
-132.7640156155321
 20
198.7073470525699
 30
0.0
 11
-132.8479321518577
 21
198.5299204436482
 31
0.0
  0
LINE
  5
1C3
330
1F
100
AcDbEntity
  8
0
100
AcDbLine
 10
-132.8479321518577
 20
198.5299204436482
 30
0.0
 11
-132.9488354559494
 21
198.3615734512609
 31
0.0
  0
LINE
  5
1C4
330
1F
100
AcDbEntity
  8
0
100
AcDbLine
 10
-132.9488354559494
 20
198.3615734512609
 30
0.0
 11
-133.065753773829
 21
198.2039273489729
 31
0.0
  0
LINE
  5
1C5
330
1F
100
AcDbEntity
  8
0
100
AcDbLine
 10
-133.065753773829
 20
198.2039273489729
 30
0.0
 11
-133.1975611181814
 21
198.0585003549269
 31
0.0
  0
LINE
  5
1C6
330
1F
100
AcDbEntity
  8
0
100
AcDbLine
 10
-133.1975611181814
 20
198.0585003549269
 30
0.0
 11
-133.3429881122274
 21
197.9266930105747
 31
0.0
  0
LINE
  5
1C7
330
1F
100
AcDbEntity
  8
0
100
AcDbLine
 10
-133.3429881122274
 20
197.9266930105747
 30
0.0
 11
-133.5006342145152
 21
197.8097746926949
 31
0.0
  0
LINE
  5
1C8
330
1F
100
AcDbEntity
  8
0
100
AcDbLine
 10
-133.5006342145152
 20
197.8097746926949
 30
0.0
 11
-133.6689812069027
 21
197.7088713886034
 31
0.0
  0
LINE
  5
1C9
330
1F
100
AcDbEntity
  8
0
100
AcDbLine
 10
-133.6689812069027
 20
197.7088713886034
 30
0.0
 11
-133.8464078158242
 21
197.6249548522776
 31
0.0
  0
LINE
  5
1CA
330
1F
100
AcDbEntity
  8
0
100
AcDbLine
 10
-133.8464078158242
 20
197.6249548522776
 30
0.0
 11
-134.0312053260457
 21
197.5588332458357
 31
0.0
  0
LINE
  5
1CB
330
1F
100
AcDbEntity
  8
0
100
AcDbLine
 10
-134.0312053260457
 20
197.5588332458357
 30
0.0
 11
-134.2215940365222
 21
197.5111433564937
 31
0.0
  0
LINE
  5
1CC
330
1F
100
AcDbEntity
  8
0
100
AcDbLine
 10
-134.2215940365222
 20
197.5111433564937
 30
0.0
 11
-134.4157403998955
 21
197.4823444639557
 31
0.0
  0
LINE
  5
1CD
330
1F
100
AcDbEntity
  8
0
100
AcDbLine
 10
-134.4157403998955
 20
197.4823444639557
 30
0.0
 11
-134.6117746805546
 21
197.4727139173002
 31
0.0
  0
LINE
  5
1CE
330
1F
100
AcDbEntity
  8
0
100
AcDbLine
 10
-134.6117746805546
 20
197.4727139173002
 30
0.0
 11
-134.8078089612137
 21
197.4823444639557
 31
0.0
  0
LINE
  5
1CF
330
1F
100
AcDbEntity
  8
0
100
AcDbLine
 10
-134.8078089612137
 20
197.4823444639557
 30
0.0
 11
-135.0019553245866
 21
197.5111433564937
 31
0.0
  0
LINE
  5
1D0
330
1F
100
AcDbEntity
  8
0
100
AcDbLine
 10
-135.0019553245866
 20
197.5111433564937
 30
0.0
 11
-135.1923440350635
 21
197.5588332458357
 31
0.0
  0
LINE
  5
1D1
330
1F
100
AcDbEntity
  8
0
100
AcDbLine
 10
-135.1923440350635
 20
197.5588332458357
 30
0.0
 11
-135.3771415452846
 21
197.6249548522776
 31
0.0
  0
LINE
  5
1D2
330
1F
100
AcDbEntity
  8
0
100
AcDbLine
 10
-135.3771415452846
 20
197.6249548522776
 30
0.0
 11
-135.5545681542065
 21
197.7088713886034
 31
0.0
  0
LINE
  5
1D3
330
1F
100
AcDbEntity
  8
0
100
AcDbLine
 10
-135.5545681542065
 20
197.7088713886034
 30
0.0
 11
-135.7229151465936
 21
197.8097746926949
 31
0.0
  0
LINE
  5
1D4
330
1F
100
AcDbEntity
  8
0
100
AcDbLine
 10
-135.7229151465936
 20
197.8097746926949
 30
0.0
 11
-135.8805612488818
 21
197.9266930105747
 31
0.0
  0
LINE
  5
1D5
330
1F
100
AcDbEntity
  8
0
100
AcDbLine
 10
-135.8805612488818
 20
197.9266930105747
 30
0.0
 11
-136.0259882429278
 21
198.0585003549269
 31
0.0
  0
LINE
  5
1D6
330
1F
100
AcDbEntity
  8
0
100
AcDbLine
 10
-136.0259882429278
 20
198.0585003549269
 30
0.0
 11
-136.1577955872802
 21
198.2039273489729
 31
0.0
  0
LINE
  5
1D7
330
1F
100
AcDbEntity
  8
0
100
AcDbLine
 10
-136.1577955872802
 20
198.2039273489729
 30
0.0
 11
-136.2747139051598
 21
198.3615734512609
 31
0.0
  0
LINE
  5
1D8
330
1F
100
AcDbEntity
  8
0
100
AcDbLine
 10
-136.2747139051598
 20
198.3615734512609
 30
0.0
 11
-136.3756172092511
 21
198.5299204436481
 31
0.0
  0
LINE
  5
1D9
330
1F
100
AcDbEntity
  8
0
100
AcDbLine
 10
-136.3756172092511
 20
198.5299204436481
 30
0.0
 11
-136.4595337455771
 21
198.7073470525699
 31
0.0
  0
LINE
  5
1DA
330
1F
100
AcDbEntity
  8
0
100
AcDbLine
 10
-136.4595337455771
 20
198.7073470525699
 30
0.0
 11
-136.5256553520188
 21
198.8921445627912
 31
0.0
  0
LINE
  5
1DB
330
1F
100
AcDbEntity
  8
0
100
AcDbLine
 10
-136.5256553520188
 20
198.8921445627912
 30
0.0
 11
-136.573345241361
 21
199.0825332732679
 31
0.0
  0
LINE
  5
1DC
330
1F
100
AcDbEntity
  8
0
100
AcDbLine
 10
-136.573345241361
 20
199.0825332732679
 30
0.0
 11
-136.6021441338988
 21
199.276679636641
 31
0.0
  0
LINE
  5
1DD
330
1F
100
AcDbEntity
  8
0
100
AcDbLine
 10
-136.6021441338988
 20
199.276679636641
 30
0.0
 11
-136.6117746805545
 21
199.4727139173001
 31
0.0
  0
LINE
  5
1DE
330
1F
100
AcDbEntity
  8
0
100
AcDbLine
 10
-136.6117746805545
 20
199.4727139173001
 30
0.0
 11
-136.6021441338988
 21
199.6687481979592
 31
0.0
  0
LINE
  5
1DF
330
1F
100
AcDbEntity
  8
0
100
AcDbLine
 10
-136.6021441338988
 20
199.6687481979592
 30
0.0
 11
-136.573345241361
 21
199.8628945613323
 31
0.0
  0
LINE
  5
1E0
330
1F
100
AcDbEntity
  8
0
100
AcDbLine
 10
-136.573345241361
 20
199.8628945613323
 30
0.0
 11
-136.5256553520188
 21
200.053283271809
 31
0.0
  0
LINE
  5
1E1
330
1F
100
AcDbEntity
  8
0
100
AcDbLine
 10
-136.5256553520188
 20
200.053283271809
 30
0.0
 11
-136.4595337455771
 21
200.2380807820304
 31
0.0
  0
LINE
  5
1E2
330
1F
100
AcDbEntity
  8
0
100
AcDbLine
 10
-136.4595337455771
 20
200.2380807820304
 30
0.0
 11
-136.3756172092511
 21
200.4155073909522
 31
0.0
  0
LINE
  5
1E3
330
1F
100
AcDbEntity
  8
0
100
AcDbLine
 10
-136.3756172092511
 20
200.4155073909522
 30
0.0
 11
-136.2747139051598
 21
200.5838543833393
 31
0.0
  0
LINE
  5
1E4
330
1F
100
AcDbEntity
  8
0
100
AcDbLine
 10
-136.2747139051598
 20
200.5838543833393
 30
0.0
 11
-136.1577955872802
 21
200.7415004856273
 31
0.0
  0
LINE
  5
1E5
330
1F
100
AcDbEntity
  8
0
100
AcDbLine
 10
-136.1577955872802
 20
200.7415004856273
 30
0.0
 11
-136.0259882429278
 21
200.8869274796733
 31
0.0
  0
LINE
  5
1E6
330
1F
100
AcDbEntity
  8
0
100
AcDbLine
 10
-136.0259882429278
 20
200.8869274796733
 30
0.0
 11
-135.8805612488818
 21
201.0187348240256
 31
0.0
  0
LINE
  5
1E7
330
1F
100
AcDbEntity
  8
0
100
AcDbLine
 10
-135.8805612488818
 20
201.0187348240256
 30
0.0
 11
-135.7229151465936
 21
201.1356531419053
 31
0.0
  0
LINE
  5
1E8
330
1F
100
AcDbEntity
  8
0
100
AcDbLine
 10
-135.7229151465936
 20
201.1356531419053
 30
0.0
 11
-135.5545681542065
 21
201.2365564459968
 31
0.0
  0
LINE
  5
1E9
330
1F
100
AcDbEntity
  8
0
100
AcDbLine
 10
-135.5545681542065
 20
201.2365564459968
 30
0.0
 11
-135.3771415452846
 21
201.3204729823226
 31
0.0
  0
LINE
  5
1EA
330
1F
100
AcDbEntity
  8
0
100
AcDbLine
 10
-135.3771415452846
 20
201.3204729823226
 30
0.0
 11
-135.1923440350635
 21
201.3865945887645
 31
0.0
  0
LINE
  5
1EB
330
1F
100
AcDbEntity
  8
0
100
AcDbLine
 10
-135.1923440350635
 20
201.3865945887645
 30
0.0
 11
-135.0019553245866
 21
201.4342844781065
 31
0.0
  0
LINE
  5
1EC
330
1F
100
AcDbEntity
  8
0
100
AcDbLine
 10
-135.0019553245866
 20
201.4342844781065
 30
0.0
 11
-134.8078089612137
 21
201.4630833706445
 31
0.0
  0
LINE
  5
1ED
330
1F
100
AcDbEntity
  8
0
100
AcDbLine
 10
-134.8078089612137
 20
201.4630833706445
 30
0.0
 11
-134.6117746805546
 21
201.4727139173
 31
0.0
  0
LINE
  5
1EE
330
1F
100
AcDbEntity
  8
0
100
AcDbLine
 10
-134.6117746805546
 20
201.4727139173
 30
0.0
 11
-134.4157403998955
 21
201.4630833706445
 31
0.0
  0
LINE
  5
1EF
330
1F
100
AcDbEntity
  8
0
100
AcDbLine
 10
-134.4157403998955
 20
201.4630833706445
 30
0.0
 11
-134.2215940365222
 21
201.4342844781065
 31
0.0
  0
LINE
  5
1F0
330
1F
100
AcDbEntity
  8
0
100
AcDbLine
 10
-234.1117746805543
 20
246.9727139173001
 30
0.0
 11
-234.8882318158618
 21
247.0749364384328
 31
0.0
  0
LINE
  5
1F1
330
1F
100
AcDbEntity
  8
0
100
AcDbLine
 10
-234.8882318158618
 20
247.0749364384328
 30
0.0
 11
-235.6117746805543
 21
247.3746377059468
 31
0.0
  0
LINE
  5
1F2
330
1F
100
AcDbEntity
  8
0
100
AcDbLine
 10
-235.6117746805543
 20
247.3746377059468
 30
0.0
 11
-236.2330950241139
 21
247.8513935737404
 31
0.0
  0
LINE
  5
1F3
330
1F
100
AcDbEntity
  8
0
100
AcDbLine
 10
-236.2330950241139
 20
247.8513935737404
 30
0.0
 11
-236.7098508919075
 21
248.4727139173002
 31
0.0
  0
LINE
  5
1F4
330
1F
100
AcDbEntity
  8
0
100
AcDbLine
 10
-236.7098508919075
 20
248.4727139173002
 30
0.0
 11
-237.0095521594217
 21
249.1962567819926
 31
0.0
  0
LINE
  5
1F5
330
1F
100
AcDbEntity
  8
0
100
AcDbLine
 10
-237.0095521594217
 20
249.1962567819926
 30
0.0
 11
-237.1117746805544
 21
249.9727139173002
 31
0.0
  0
LINE
  5
1F6
330
1F
100
AcDbEntity
  8
0
100
AcDbLine
 10
-237.1117746805544
 20
249.9727139173002
 30
0.0
 11
-237.0095521594217
 21
250.7491710526076
 31
0.0
  0
LINE
  5
1F7
330
1F
100
AcDbEntity
  8
0
100
AcDbLine
 10
-237.0095521594217
 20
250.7491710526076
 30
0.0
 11
-236.7098508919075
 21
251.4727139173
 31
0.0
  0
LINE
  5
1F8
330
1F
100
AcDbEntity
  8
0
100
AcDbLine
 10
-236.7098508919075
 20
251.4727139173
 30
0.0
 11
-236.2330950241139
 21
252.0940342608598
 31
0.0
  0
LINE
  5
1F9
330
1F
100
AcDbEntity
  8
0
100
AcDbLine
 10
-236.2330950241139
 20
252.0940342608598
 30
0.0
 11
-235.6117746805543
 21
252.5707901286533
 31
0.0
  0
LINE
  5
1FA
330
1F
100
AcDbEntity
  8
0
100
AcDbLine
 10
-235.6117746805543
 20
252.5707901286533
 30
0.0
 11
-234.8882318158618
 21
252.8704913961672
 31
0.0
  0
LINE
  5
1FB
330
1F
100
AcDbEntity
  8
0
100
AcDbLine
 10
-234.8882318158618
 20
252.8704913961672
 30
0.0
 11
-234.1117746805543
 21
252.9727139173
 31
0.0
  0
LINE
  5
1FC
330
1F
100
AcDbEntity
  8
0
100
AcDbLine
 10
-234.1117746805543
 20
252.9727139173
 30
0.0
 11
-233.3353175452469
 21
252.8704913961672
 31
0.0
  0
LINE
  5
1FD
330
1F
100
AcDbEntity
  8
0
100
AcDbLine
 10
-233.3353175452469
 20
252.8704913961672
 30
0.0
 11
-232.6117746805543
 21
252.5707901286533
 31
0.0
  0
LINE
  5
1FE
330
1F
100
AcDbEntity
  8
0
100
AcDbLine
 10
-232.6117746805543
 20
252.5707901286533
 30
0.0
 11
-231.9904543369947
 21
252.0940342608598
 31
0.0
  0
LINE
  5
1FF
330
1F
100
AcDbEntity
  8
0
100
AcDbLine
 10
-231.9904543369947
 20
252.0940342608598
 30
0.0
 11
-231.5136984692012
 21
251.4727139173002
 31
0.0
  0
LINE
  5
200
330
1F
100
AcDbEntity
  8
0
100
AcDbLine
 10
-231.5136984692012
 20
251.4727139173002
 30
0.0
 11
-231.2139972016873
 21
250.7491710526076
 31
0.0
  0
LINE
  5
201
330
1F
100
AcDbEntity
  8
0
100
AcDbLine
 10
-231.2139972016873
 20
250.7491710526076
 30
0.0
 11
-231.1117746805543
 21
249.9727139173002
 31
0.0
  0
LINE
  5
202
330
1F
100
AcDbEntity
  8
0
100
AcDbLine
 10
-231.1117746805543
 20
249.9727139173002
 30
0.0
 11
-231.2139972016873
 21
249.1962567819926
 31
0.0
  0
LINE
  5
203
330
1F
100
AcDbEntity
  8
0
100
AcDbLine
 10
-231.2139972016873
 20
249.1962567819926
 30
0.0
 11
-231.5136984692012
 21
248.4727139173002
 31
0.0
  0
LINE
  5
204
330
1F
100
AcDbEntity
  8
0
100
AcDbLine
 10
-231.5136984692012
 20
248.4727139173002
 30
0.0
 11
-231.9904543369947
 21
247.8513935737404
 31
0.0
  0
LINE
  5
205
330
1F
100
AcDbEntity
  8
0
100
AcDbLine
 10
-231.9904543369947
 20
247.8513935737404
 30
0.0
 11
-232.6117746805543
 21
247.3746377059468
 31
0.0
  0
LINE
  5
206
330
1F
100
AcDbEntity
  8
0
100
AcDbLine
 10
-232.6117746805543
 20
247.3746377059468
 30
0.0
 11
-233.3353175452469
 21
247.0749364384328
 31
0.0
  0
LINE
  5
207
330
1F
100
AcDbEntity
  8
0
100
AcDbLine
 10
-233.3353175452469
 20
247.0749364384328
 30
0.0
 11
-234.1117746805543
 21
246.9727139173001
 31
0.0
  0
LINE
  5
208
330
1F
100
AcDbEntity
  8
0
100
AcDbLine
 10
-235.6117746805543
 20
56.87463770594665
 30
0.0
 11
-236.2330950241139
 21
57.35139357374058
 31
0.0
  0
LINE
  5
209
330
1F
100
AcDbEntity
  8
0
100
AcDbLine
 10
-236.2330950241139
 20
57.35139357374058
 30
0.0
 11
-236.7098508919075
 21
57.97271391730016
 31
0.0
  0
LINE
  5
20A
330
1F
100
AcDbEntity
  8
0
100
AcDbLine
 10
-236.7098508919075
 20
57.97271391730016
 30
0.0
 11
-237.0095521594217
 21
58.6962567819924
 31
0.0
  0
LINE
  5
20B
330
1F
100
AcDbEntity
  8
0
100
AcDbLine
 10
-237.0095521594217
 20
58.6962567819924
 30
0.0
 11
-237.1117746805544
 21
59.47271391730018
 31
0.0
  0
LINE
  5
20C
330
1F
100
AcDbEntity
  8
0
100
AcDbLine
 10
-237.1117746805544
 20
59.47271391730018
 30
0.0
 11
-237.0095521594217
 21
60.2491710526076
 31
0.0
  0
LINE
  5
20D
330
1F
100
AcDbEntity
  8
0
100
AcDbLine
 10
-237.0095521594217
 20
60.2491710526076
 30
0.0
 11
-236.7098508919075
 21
60.9727139173002
 31
0.0
  0
LINE
  5
20E
330
1F
100
AcDbEntity
  8
0
100
AcDbLine
 10
-236.7098508919075
 20
60.9727139173002
 30
0.0
 11
-236.2330950241139
 21
61.59403426085979
 31
0.0
  0
LINE
  5
20F
330
1F
100
AcDbEntity
  8
0
100
AcDbLine
 10
-236.2330950241139
 20
61.59403426085979
 30
0.0
 11
-235.6117746805543
 21
62.07079012865334
 31
0.0
  0
LINE
  5
210
330
1F
100
AcDbEntity
  8
0
100
AcDbLine
 10
-235.6117746805543
 20
62.07079012865334
 30
0.0
 11
-234.8882318158618
 21
62.3704913961672
 31
0.0
  0
LINE
  5
211
330
1F
100
AcDbEntity
  8
0
100
AcDbLine
 10
-234.8882318158618
 20
62.3704913961672
 30
0.0
 11
-234.1117746805543
 21
62.47271391730022
 31
0.0
  0
LINE
  5
212
330
1F
100
AcDbEntity
  8
0
100
AcDbLine
 10
-234.1117746805543
 20
62.47271391730022
 30
0.0
 11
-233.3353175452469
 21
62.3704913961672
 31
0.0
  0
LINE
  5
213
330
1F
100
AcDbEntity
  8
0
100
AcDbLine
 10
-233.3353175452469
 20
62.3704913961672
 30
0.0
 11
-232.6117746805543
 21
62.07079012865334
 31
0.0
  0
LINE
  5
214
330
1F
100
AcDbEntity
  8
0
100
AcDbLine
 10
-232.6117746805543
 20
62.07079012865334
 30
0.0
 11
-231.9904543369947
 21
61.59403426085979
 31
0.0
  0
LINE
  5
215
330
1F
100
AcDbEntity
  8
0
100
AcDbLine
 10
-231.9904543369947
 20
61.59403426085979
 30
0.0
 11
-231.5136984692012
 21
60.9727139173002
 31
0.0
  0
LINE
  5
216
330
1F
100
AcDbEntity
  8
0
100
AcDbLine
 10
-231.5136984692012
 20
60.9727139173002
 30
0.0
 11
-231.2139972016873
 21
60.2491710526076
 31
0.0
  0
LINE
  5
217
330
1F
100
AcDbEntity
  8
0
100
AcDbLine
 10
-231.2139972016873
 20
60.2491710526076
 30
0.0
 11
-231.1117746805543
 21
59.47271391730018
 31
0.0
  0
LINE
  5
218
330
1F
100
AcDbEntity
  8
0
100
AcDbLine
 10
-231.1117746805543
 20
59.47271391730018
 30
0.0
 11
-231.2139972016873
 21
58.6962567819924
 31
0.0
  0
LINE
  5
219
330
1F
100
AcDbEntity
  8
0
100
AcDbLine
 10
-231.2139972016873
 20
58.6962567819924
 30
0.0
 11
-231.5136984692012
 21
57.97271391730016
 31
0.0
  0
LINE
  5
21A
330
1F
100
AcDbEntity
  8
0
100
AcDbLine
 10
-231.5136984692012
 20
57.97271391730016
 30
0.0
 11
-231.9904543369947
 21
57.35139357374058
 31
0.0
  0
LINE
  5
21B
330
1F
100
AcDbEntity
  8
0
100
AcDbLine
 10
-231.9904543369947
 20
57.35139357374058
 30
0.0
 11
-232.6117746805543
 21
56.87463770594665
 31
0.0
  0
LINE
  5
21C
330
1F
100
AcDbEntity
  8
0
100
AcDbLine
 10
-232.6117746805543
 20
56.87463770594665
 30
0.0
 11
-233.3353175452469
 21
56.57493643843279
 31
0.0
  0
LINE
  5
21D
330
1F
100
AcDbEntity
  8
0
100
AcDbLine
 10
-233.3353175452469
 20
56.57493643843279
 30
0.0
 11
-234.1117746805543
 21
56.47271391730014
 31
0.0
  0
LINE
  5
21E
330
1F
100
AcDbEntity
  8
0
100
AcDbLine
 10
-234.1117746805543
 20
56.47271391730014
 30
0.0
 11
-234.8882318158618
 21
56.57493643843279
 31
0.0
  0
LINE
  5
21F
330
1F
100
AcDbEntity
  8
0
100
AcDbLine
 10
-234.8882318158618
 20
56.57493643843279
 30
0.0
 11
-235.6117746805543
 21
56.87463770594665
 31
0.0
  0
LINE
  5
220
330
1F
100
AcDbEntity
  8
0
100
AcDbLine
 10
-234.8882318158618
 20
-128.1295086038328
 30
0.0
 11
-234.1117746805543
 21
-128.0272860826998
 31
0.0
  0
LINE
  5
221
330
1F
100
AcDbEntity
  8
0
100
AcDbLine
 10
-234.1117746805543
 20
-128.0272860826998
 30
0.0
 11
-233.3353175452469
 21
-128.1295086038328
 31
0.0
  0
LINE
  5
222
330
1F
100
AcDbEntity
  8
0
100
AcDbLine
 10
-233.3353175452469
 20
-128.1295086038328
 30
0.0
 11
-232.6117746805543
 21
-128.4292098713466
 31
0.0
  0
LINE
  5
223
330
1F
100
AcDbEntity
  8
0
100
AcDbLine
 10
-232.6117746805543
 20
-128.4292098713466
 30
0.0
 11
-231.9904543369947
 21
-128.9059657391402
 31
0.0
  0
LINE
  5
224
330
1F
100
AcDbEntity
  8
0
100
AcDbLine
 10
-231.9904543369947
 20
-128.9059657391402
 30
0.0
 11
-231.5136984692012
 21
-129.5272860826998
 31
0.0
  0
LINE
  5
225
330
1F
100
AcDbEntity
  8
0
100
AcDbLine
 10
-231.5136984692012
 20
-129.5272860826998
 30
0.0
 11
-231.2139972016873
 21
-130.2508289473924
 31
0.0
  0
LINE
  5
226
330
1F
100
AcDbEntity
  8
0
100
AcDbLine
 10
-231.2139972016873
 20
-130.2508289473924
 30
0.0
 11
-231.1117746805543
 21
-131.0272860826998
 31
0.0
  0
LINE
  5
227
330
1F
100
AcDbEntity
  8
0
100
AcDbLine
 10
-231.1117746805543
 20
-131.0272860826998
 30
0.0
 11
-231.2139972016873
 21
-131.8037432180076
 31
0.0
  0
LINE
  5
228
330
1F
100
AcDbEntity
  8
0
100
AcDbLine
 10
-231.2139972016873
 20
-131.8037432180076
 30
0.0
 11
-231.5136984692012
 21
-132.5272860826998
 31
0.0
  0
LINE
  5
229
330
1F
100
AcDbEntity
  8
0
100
AcDbLine
 10
-231.5136984692012
 20
-132.5272860826998
 30
0.0
 11
-231.9904543369947
 21
-133.1486064262596
 31
0.0
  0
LINE
  5
22A
330
1F
100
AcDbEntity
  8
0
100
AcDbLine
 10
-231.9904543369947
 20
-133.1486064262596
 30
0.0
 11
-232.6117746805543
 21
-133.6253622940533
 31
0.0
  0
LINE
  5
22B
330
1F
100
AcDbEntity
  8
0
100
AcDbLine
 10
-232.6117746805543
 20
-133.6253622940533
 30
0.0
 11
-233.3353175452469
 21
-133.9250635615672
 31
0.0
  0
LINE
  5
22C
330
1F
100
AcDbEntity
  8
0
100
AcDbLine
 10
-233.3353175452469
 20
-133.9250635615672
 30
0.0
 11
-234.1117746805543
 21
-134.0272860826998
 31
0.0
  0
LINE
  5
22D
330
1F
100
AcDbEntity
  8
0
100
AcDbLine
 10
-234.1117746805543
 20
-134.0272860826998
 30
0.0
 11
-234.8882318158618
 21
-133.9250635615672
 31
0.0
  0
LINE
  5
22E
330
1F
100
AcDbEntity
  8
0
100
AcDbLine
 10
-234.8882318158618
 20
-133.9250635615672
 30
0.0
 11
-235.6117746805543
 21
-133.6253622940533
 31
0.0
  0
LINE
  5
22F
330
1F
100
AcDbEntity
  8
0
100
AcDbLine
 10
-235.6117746805543
 20
-133.6253622940533
 30
0.0
 11
-236.2330950241139
 21
-133.1486064262596
 31
0.0
  0
LINE
  5
230
330
1F
100
AcDbEntity
  8
0
100
AcDbLine
 10
-236.2330950241139
 20
-133.1486064262596
 30
0.0
 11
-236.7098508919078
 21
-132.5272860826998
 31
0.0
  0
LINE
  5
231
330
1F
100
AcDbEntity
  8
0
100
AcDbLine
 10
-236.7098508919078
 20
-132.5272860826998
 30
0.0
 11
-237.0095521594217
 21
-131.8037432180076
 31
0.0
  0
LINE
  5
232
330
1F
100
AcDbEntity
  8
0
100
AcDbLine
 10
-237.0095521594217
 20
-131.8037432180076
 30
0.0
 11
-237.1117746805544
 21
-131.0272860826998
 31
0.0
  0
LINE
  5
233
330
1F
100
AcDbEntity
  8
0
100
AcDbLine
 10
-237.1117746805544
 20
-131.0272860826998
 30
0.0
 11
-237.0095521594217
 21
-130.2508289473924
 31
0.0
  0
LINE
  5
234
330
1F
100
AcDbEntity
  8
0
100
AcDbLine
 10
-237.0095521594217
 20
-130.2508289473924
 30
0.0
 11
-236.7098508919078
 21
-129.5272860826998
 31
0.0
  0
LINE
  5
235
330
1F
100
AcDbEntity
  8
0
100
AcDbLine
 10
-236.7098508919078
 20
-129.5272860826998
 30
0.0
 11
-236.2330950241139
 21
-128.9059657391402
 31
0.0
  0
LINE
  5
236
330
1F
100
AcDbEntity
  8
0
100
AcDbLine
 10
-236.2330950241139
 20
-128.9059657391402
 30
0.0
 11
-235.6117746805543
 21
-128.4292098713466
 31
0.0
  0
LINE
  5
237
330
1F
100
AcDbEntity
  8
0
100
AcDbLine
 10
-235.6117746805543
 20
-128.4292098713466
 30
0.0
 11
-234.8882318158618
 21
-128.1295086038328
 31
0.0
  0
LINE
  5
238
330
1F
100
AcDbEntity
  8
0
100
AcDbLine
 10
129.8882253194456
 20
-128.0272860826998
 30
0.0
 11
130.6646824547533
 21
-128.1295086038326
 31
0.0
  0
LINE
  5
239
330
1F
100
AcDbEntity
  8
0
100
AcDbLine
 10
130.6646824547533
 20
-128.1295086038326
 30
0.0
 11
131.3882253194456
 21
-128.4292098713465
 31
0.0
  0
LINE
  5
23A
330
1F
100
AcDbEntity
  8
0
100
AcDbLine
 10
131.3882253194456
 20
-128.4292098713465
 30
0.0
 11
132.0095456630052
 21
-128.9059657391402
 31
0.0
  0
LINE
  5
23B
330
1F
100
AcDbEntity
  8
0
100
AcDbLine
 10
132.0095456630052
 20
-128.9059657391402
 30
0.0
 11
132.4863015307991
 21
-129.5272860826998
 31
0.0
  0
LINE
  5
23C
330
1F
100
AcDbEntity
  8
0
100
AcDbLine
 10
132.4863015307991
 20
-129.5272860826998
 30
0.0
 11
132.7860027983129
 21
-130.2508289473922
 31
0.0
  0
LINE
  5
23D
330
1F
100
AcDbEntity
  8
0
100
AcDbLine
 10
132.7860027983129
 20
-130.2508289473922
 30
0.0
 11
132.8882253194456
 21
-131.0272860826998
 31
0.0
  0
LINE
  5
23E
330
1F
100
AcDbEntity
  8
0
100
AcDbLine
 10
132.8882253194456
 20
-131.0272860826998
 30
0.0
 11
132.7860027983129
 21
-131.8037432180074
 31
0.0
  0
LINE
  5
23F
330
1F
100
AcDbEntity
  8
0
100
AcDbLine
 10
132.7860027983129
 20
-131.8037432180074
 30
0.0
 11
132.4863015307991
 21
-132.5272860826998
 31
0.0
  0
LINE
  5
240
330
1F
100
AcDbEntity
  8
0
100
AcDbLine
 10
132.4863015307991
 20
-132.5272860826998
 30
0.0
 11
132.0095456630052
 21
-133.1486064262594
 31
0.0
  0
LINE
  5
241
330
1F
100
AcDbEntity
  8
0
100
AcDbLine
 10
132.0095456630052
 20
-133.1486064262594
 30
0.0
 11
131.3882253194456
 21
-133.6253622940532
 31
0.0
  0
LINE
  5
242
330
1F
100
AcDbEntity
  8
0
100
AcDbLine
 10
131.3882253194456
 20
-133.6253622940532
 30
0.0
 11
130.6646824547533
 21
-133.925063561567
 31
0.0
  0
LINE
  5
243
330
1F
100
AcDbEntity
  8
0
100
AcDbLine
 10
130.6646824547533
 20
-133.925063561567
 30
0.0
 11
129.8882253194456
 21
-134.0272860826998
 31
0.0
  0
LINE
  5
244
330
1F
100
AcDbEntity
  8
0
100
AcDbLine
 10
129.8882253194456
 20
-134.0272860826998
 30
0.0
 11
129.1117681841381
 21
-133.925063561567
 31
0.0
  0
LINE
  5
245
330
1F
100
AcDbEntity
  8
0
100
AcDbLine
 10
129.1117681841381
 20
-133.925063561567
 30
0.0
 11
128.3882253194455
 21
-133.6253622940532
 31
0.0
  0
LINE
  5
246
330
1F
100
AcDbEntity
  8
0
100
AcDbLine
 10
128.3882253194455
 20
-133.6253622940532
 30
0.0
 11
127.766904975886
 21
-133.1486064262594
 31
0.0
  0
LINE
  5
247
330
1F
100
AcDbEntity
  8
0
100
AcDbLine
 10
127.766904975886
 20
-133.1486064262594
 30
0.0
 11
127.2901491080924
 21
-132.5272860826998
 31
0.0
  0
LINE
  5
248
330
1F
100
AcDbEntity
  8
0
100
AcDbLine
 10
127.2901491080924
 20
-132.5272860826998
 30
0.0
 11
126.9904478405785
 21
-131.8037432180074
 31
0.0
  0
LINE
  5
249
330
1F
100
AcDbEntity
  8
0
100
AcDbLine
 10
126.9904478405785
 20
-131.8037432180074
 30
0.0
 11
126.8882253194455
 21
-131.0272860826998
 31
0.0
  0
LINE
  5
24A
330
1F
100
AcDbEntity
  8
0
100
AcDbLine
 10
126.8882253194455
 20
-131.0272860826998
 30
0.0
 11
126.9904478405785
 21
-130.2508289473922
 31
0.0
  0
LINE
  5
24B
330
1F
100
AcDbEntity
  8
0
100
AcDbLine
 10
126.9904478405785
 20
-130.2508289473922
 30
0.0
 11
127.2901491080924
 21
-129.5272860826998
 31
0.0
  0
LINE
  5
24C
330
1F
100
AcDbEntity
  8
0
100
AcDbLine
 10
127.2901491080924
 20
-129.5272860826998
 30
0.0
 11
127.766904975886
 21
-128.9059657391402
 31
0.0
  0
LINE
  5
24D
330
1F
100
AcDbEntity
  8
0
100
AcDbLine
 10
127.766904975886
 20
-128.9059657391402
 30
0.0
 11
128.3882253194455
 21
-128.4292098713465
 31
0.0
  0
LINE
  5
24E
330
1F
100
AcDbEntity
  8
0
100
AcDbLine
 10
128.3882253194455
 20
-128.4292098713465
 30
0.0
 11
129.1117681841381
 21
-128.1295086038326
 31
0.0
  0
LINE
  5
24F
330
1F
100
AcDbEntity
  8
0
100
AcDbLine
 10
129.1117681841381
 20
-128.1295086038326
 30
0.0
 11
129.8882253194456
 21
-128.0272860826998
 31
0.0
  0
LINE
  5
250
330
1F
100
AcDbEntity
  8
0
100
AcDbLine
 10
129.8882253194456
 20
56.47271391730014
 30
0.0
 11
129.1117681841381
 21
56.57493643843279
 31
0.0
  0
LINE
  5
251
330
1F
100
AcDbEntity
  8
0
100
AcDbLine
 10
129.1117681841381
 20
56.57493643843279
 30
0.0
 11
128.3882253194455
 21
56.87463770594665
 31
0.0
  0
LINE
  5
252
330
1F
100
AcDbEntity
  8
0
100
AcDbLine
 10
128.3882253194455
 20
56.87463770594665
 30
0.0
 11
127.766904975886
 21
57.3513935737404
 31
0.0
  0
LINE
  5
253
330
1F
100
AcDbEntity
  8
0
100
AcDbLine
 10
127.766904975886
 20
57.3513935737404
 30
0.0
 11
127.2901491080924
 21
57.97271391730016
 31
0.0
  0
LINE
  5
254
330
1F
100
AcDbEntity
  8
0
100
AcDbLine
 10
127.2901491080924
 20
57.97271391730016
 30
0.0
 11
126.9904478405785
 21
58.6962567819924
 31
0.0
  0
LINE
  5
255
330
1F
100
AcDbEntity
  8
0
100
AcDbLine
 10
126.9904478405785
 20
58.6962567819924
 30
0.0
 11
126.8882253194455
 21
59.47271391730018
 31
0.0
  0
LINE
  5
256
330
1F
100
AcDbEntity
  8
0
100
AcDbLine
 10
126.8882253194455
 20
59.47271391730018
 30
0.0
 11
126.9904478405785
 21
60.2491710526076
 31
0.0
  0
LINE
  5
257
330
1F
100
AcDbEntity
  8
0
100
AcDbLine
 10
126.9904478405785
 20
60.2491710526076
 30
0.0
 11
127.2901491080924
 21
60.9727139173002
 31
0.0
  0
LINE
  5
258
330
1F
100
AcDbEntity
  8
0
100
AcDbLine
 10
127.2901491080924
 20
60.9727139173002
 30
0.0
 11
127.766904975886
 21
61.59403426085979
 31
0.0
  0
LINE
  5
259
330
1F
100
AcDbEntity
  8
0
100
AcDbLine
 10
127.766904975886
 20
61.59403426085979
 30
0.0
 11
128.3882253194455
 21
62.07079012865334
 31
0.0
  0
LINE
  5
25A
330
1F
100
AcDbEntity
  8
0
100
AcDbLine
 10
128.3882253194455
 20
62.07079012865334
 30
0.0
 11
129.1117681841381
 21
62.3704913961672
 31
0.0
  0
LINE
  5
25B
330
1F
100
AcDbEntity
  8
0
100
AcDbLine
 10
129.1117681841381
 20
62.3704913961672
 30
0.0
 11
129.8882253194456
 21
62.47271391730022
 31
0.0
  0
LINE
  5
25C
330
1F
100
AcDbEntity
  8
0
100
AcDbLine
 10
129.8882253194456
 20
62.47271391730022
 30
0.0
 11
130.6646824547533
 21
62.3704913961672
 31
0.0
  0
LINE
  5
25D
330
1F
100
AcDbEntity
  8
0
100
AcDbLine
 10
130.6646824547533
 20
62.3704913961672
 30
0.0
 11
131.3882253194456
 21
62.07079012865334
 31
0.0
  0
LINE
  5
25E
330
1F
100
AcDbEntity
  8
0
100
AcDbLine
 10
131.3882253194456
 20
62.07079012865334
 30
0.0
 11
132.0095456630052
 21
61.59403426085979
 31
0.0
  0
LINE
  5
25F
330
1F
100
AcDbEntity
  8
0
100
AcDbLine
 10
132.0095456630052
 20
61.59403426085979
 30
0.0
 11
132.4863015307991
 21
60.9727139173002
 31
0.0
  0
LINE
  5
260
330
1F
100
AcDbEntity
  8
0
100
AcDbLine
 10
132.4863015307991
 20
60.9727139173002
 30
0.0
 11
132.7860027983129
 21
60.2491710526076
 31
0.0
  0
LINE
  5
261
330
1F
100
AcDbEntity
  8
0
100
AcDbLine
 10
132.7860027983129
 20
60.2491710526076
 30
0.0
 11
132.8882253194456
 21
59.47271391730018
 31
0.0
  0
LINE
  5
262
330
1F
100
AcDbEntity
  8
0
100
AcDbLine
 10
132.8882253194456
 20
59.47271391730018
 30
0.0
 11
132.7860027983129
 21
58.6962567819924
 31
0.0
  0
LINE
  5
263
330
1F
100
AcDbEntity
  8
0
100
AcDbLine
 10
132.7860027983129
 20
58.6962567819924
 30
0.0
 11
132.4863015307991
 21
57.97271391730016
 31
0.0
  0
LINE
  5
264
330
1F
100
AcDbEntity
  8
0
100
AcDbLine
 10
132.4863015307991
 20
57.97271391730016
 30
0.0
 11
132.0095456630052
 21
57.3513935737404
 31
0.0
  0
LINE
  5
265
330
1F
100
AcDbEntity
  8
0
100
AcDbLine
 10
132.0095456630052
 20
57.3513935737404
 30
0.0
 11
131.3882253194456
 21
56.87463770594665
 31
0.0
  0
LINE
  5
266
330
1F
100
AcDbEntity
  8
0
100
AcDbLine
 10
131.3882253194456
 20
56.87463770594665
 30
0.0
 11
130.6646824547533
 21
56.57493643843279
 31
0.0
  0
LINE
  5
267
330
1F
100
AcDbEntity
  8
0
100
AcDbLine
 10
130.6646824547533
 20
56.57493643843279
 30
0.0
 11
129.8882253194456
 21
56.47271391730014
 31
0.0
  0
LINE
  5
268
330
1F
100
AcDbEntity
  8
0
100
AcDbLine
 10
130.6646824547533
 20
247.0749364384328
 30
0.0
 11
129.8882253194456
 21
246.9727139173001
 31
0.0
  0
LINE
  5
269
330
1F
100
AcDbEntity
  8
0
100
AcDbLine
 10
129.8882253194456
 20
246.9727139173001
 30
0.0
 11
129.1117681841381
 21
247.0749364384328
 31
0.0
  0
LINE
  5
26A
330
1F
100
AcDbEntity
  8
0
100
AcDbLine
 10
129.1117681841381
 20
247.0749364384328
 30
0.0
 11
128.3882253194455
 21
247.3746377059468
 31
0.0
  0
LINE
  5
26B
330
1F
100
AcDbEntity
  8
0
100
AcDbLine
 10
128.3882253194455
 20
247.3746377059468
 30
0.0
 11
127.766904975886
 21
247.8513935737404
 31
0.0
  0
LINE
  5
26C
330
1F
100
AcDbEntity
  8
0
100
AcDbLine
 10
127.766904975886
 20
247.8513935737404
 30
0.0
 11
127.2901491080924
 21
248.4727139173002
 31
0.0
  0
LINE
  5
26D
330
1F
100
AcDbEntity
  8
0
100
AcDbLine
 10
127.2901491080924
 20
248.4727139173002
 30
0.0
 11
126.9904478405785
 21
249.1962567819926
 31
0.0
  0
LINE
  5
26E
330
1F
100
AcDbEntity
  8
0
100
AcDbLine
 10
126.9904478405785
 20
249.1962567819926
 30
0.0
 11
126.8882253194455
 21
249.9727139173002
 31
0.0
  0
LINE
  5
26F
330
1F
100
AcDbEntity
  8
0
100
AcDbLine
 10
126.8882253194455
 20
249.9727139173002
 30
0.0
 11
126.9904478405785
 21
250.7491710526076
 31
0.0
  0
LINE
  5
270
330
1F
100
AcDbEntity
  8
0
100
AcDbLine
 10
126.9904478405785
 20
250.7491710526076
 30
0.0
 11
127.2901491080924
 21
251.4727139173
 31
0.0
  0
LINE
  5
271
330
1F
100
AcDbEntity
  8
0
100
AcDbLine
 10
127.2901491080924
 20
251.4727139173
 30
0.0
 11
127.766904975886
 21
252.0940342608598
 31
0.0
  0
LINE
  5
272
330
1F
100
AcDbEntity
  8
0
100
AcDbLine
 10
127.766904975886
 20
252.0940342608598
 30
0.0
 11
128.3882253194455
 21
252.5707901286533
 31
0.0
  0
LINE
  5
273
330
1F
100
AcDbEntity
  8
0
100
AcDbLine
 10
128.3882253194455
 20
252.5707901286533
 30
0.0
 11
129.1117681841381
 21
252.8704913961672
 31
0.0
  0
LINE
  5
274
330
1F
100
AcDbEntity
  8
0
100
AcDbLine
 10
129.1117681841381
 20
252.8704913961672
 30
0.0
 11
129.8882253194456
 21
252.9727139173
 31
0.0
  0
LINE
  5
275
330
1F
100
AcDbEntity
  8
0
100
AcDbLine
 10
129.8882253194456
 20
252.9727139173
 30
0.0
 11
130.6646824547533
 21
252.8704913961672
 31
0.0
  0
LINE
  5
276
330
1F
100
AcDbEntity
  8
0
100
AcDbLine
 10
130.6646824547533
 20
252.8704913961672
 30
0.0
 11
131.3882253194456
 21
252.5707901286533
 31
0.0
  0
LINE
  5
277
330
1F
100
AcDbEntity
  8
0
100
AcDbLine
 10
131.3882253194456
 20
252.5707901286533
 30
0.0
 11
132.0095456630052
 21
252.0940342608598
 31
0.0
  0
LINE
  5
278
330
1F
100
AcDbEntity
  8
0
100
AcDbLine
 10
132.0095456630052
 20
252.0940342608598
 30
0.0
 11
132.4863015307991
 21
251.4727139173002
 31
0.0
  0
LINE
  5
279
330
1F
100
AcDbEntity
  8
0
100
AcDbLine
 10
132.4863015307991
 20
251.4727139173002
 30
0.0
 11
132.7860027983129
 21
250.7491710526076
 31
0.0
  0
LINE
  5
27A
330
1F
100
AcDbEntity
  8
0
100
AcDbLine
 10
132.7860027983129
 20
250.7491710526076
 30
0.0
 11
132.8882253194456
 21
249.9727139173002
 31
0.0
  0
LINE
  5
27B
330
1F
100
AcDbEntity
  8
0
100
AcDbLine
 10
132.8882253194456
 20
249.9727139173002
 30
0.0
 11
132.7860027983129
 21
249.1962567819926
 31
0.0
  0
LINE
  5
27C
330
1F
100
AcDbEntity
  8
0
100
AcDbLine
 10
132.7860027983129
 20
249.1962567819926
 30
0.0
 11
132.4863015307991
 21
248.4727139173002
 31
0.0
  0
LINE
  5
27D
330
1F
100
AcDbEntity
  8
0
100
AcDbLine
 10
132.4863015307991
 20
248.4727139173002
 30
0.0
 11
132.0095456630052
 21
247.8513935737404
 31
0.0
  0
LINE
  5
27E
330
1F
100
AcDbEntity
  8
0
100
AcDbLine
 10
132.0095456630052
 20
247.8513935737404
 30
0.0
 11
131.3882253194456
 21
247.3746377059468
 31
0.0
  0
LINE
  5
27F
330
1F
100
AcDbEntity
  8
0
100
AcDbLine
 10
131.3882253194456
 20
247.3746377059468
 30
0.0
 11
130.6646824547533
 21
247.0749364384328
 31
0.0
  0
LINE
  5
280
330
1F
100
AcDbEntity
  8
0
100
AcDbLine
 10
112.6646824547531
 20
265.0749364384328
 30
0.0
 11
111.8882253194457
 21
264.9727139173
 31
0.0
  0
LINE
  5
281
330
1F
100
AcDbEntity
  8
0
100
AcDbLine
 10
111.8882253194457
 20
264.9727139173
 30
0.0
 11
111.1117681841379
 21
265.0749364384328
 31
0.0
  0
LINE
  5
282
330
1F
100
AcDbEntity
  8
0
100
AcDbLine
 10
111.1117681841379
 20
265.0749364384328
 30
0.0
 11
110.3882253194457
 21
265.3746377059469
 31
0.0
  0
LINE
  5
283
330
1F
100
AcDbEntity
  8
0
100
AcDbLine
 10
110.3882253194457
 20
265.3746377059469
 30
0.0
 11
109.7669049758861
 21
265.8513935737404
 31
0.0
  0
LINE
  5
284
330
1F
100
AcDbEntity
  8
0
100
AcDbLine
 10
109.7669049758861
 20
265.8513935737404
 30
0.0
 11
109.2901491080922
 21
266.4727139173
 31
0.0
  0
LINE
  5
285
330
1F
100
AcDbEntity
  8
0
100
AcDbLine
 10
109.2901491080922
 20
266.4727139173
 30
0.0
 11
108.9904478405783
 21
267.1962567819926
 31
0.0
  0
LINE
  5
286
330
1F
100
AcDbEntity
  8
0
100
AcDbLine
 10
108.9904478405783
 20
267.1962567819926
 30
0.0
 11
108.8882253194456
 21
267.9727139173
 31
0.0
  0
LINE
  5
287
330
1F
100
AcDbEntity
  8
0
100
AcDbLine
 10
108.8882253194456
 20
267.9727139173
 30
0.0
 11
108.9904478405783
 21
268.7491710526077
 31
0.0
  0
LINE
  5
288
330
1F
100
AcDbEntity
  8
0
100
AcDbLine
 10
108.9904478405783
 20
268.7491710526077
 30
0.0
 11
109.2901491080922
 21
269.4727139173
 31
0.0
  0
LINE
  5
289
330
1F
100
AcDbEntity
  8
0
100
AcDbLine
 10
109.2901491080922
 20
269.4727139173
 30
0.0
 11
109.7669049758861
 21
270.0940342608596
 31
0.0
  0
LINE
  5
28A
330
1F
100
AcDbEntity
  8
0
100
AcDbLine
 10
109.7669049758861
 20
270.0940342608596
 30
0.0
 11
110.3882253194457
 21
270.5707901286534
 31
0.0
  0
LINE
  5
28B
330
1F
100
AcDbEntity
  8
0
100
AcDbLine
 10
110.3882253194457
 20
270.5707901286534
 30
0.0
 11
111.1117681841379
 21
270.8704913961673
 31
0.0
  0
LINE
  5
28C
330
1F
100
AcDbEntity
  8
0
100
AcDbLine
 10
111.1117681841379
 20
270.8704913961673
 30
0.0
 11
111.8882253194457
 21
270.9727139173001
 31
0.0
  0
LINE
  5
28D
330
1F
100
AcDbEntity
  8
0
100
AcDbLine
 10
111.8882253194457
 20
270.9727139173001
 30
0.0
 11
112.6646824547531
 21
270.8704913961673
 31
0.0
  0
LINE
  5
28E
330
1F
100
AcDbEntity
  8
0
100
AcDbLine
 10
112.6646824547531
 20
270.8704913961673
 30
0.0
 11
113.3882253194457
 21
270.5707901286534
 31
0.0
  0
LINE
  5
28F
330
1F
100
AcDbEntity
  8
0
100
AcDbLine
 10
113.3882253194457
 20
270.5707901286534
 30
0.0
 11
114.0095456630053
 21
270.0940342608596
 31
0.0
  0
LINE
  5
290
330
1F
100
AcDbEntity
  8
0
100
AcDbLine
 10
114.0095456630053
 20
270.0940342608596
 30
0.0
 11
114.4863015307988
 21
269.4727139173
 31
0.0
  0
LINE
  5
291
330
1F
100
AcDbEntity
  8
0
100
AcDbLine
 10
114.4863015307988
 20
269.4727139173
 30
0.0
 11
114.7860027983127
 21
268.7491710526077
 31
0.0
  0
LINE
  5
292
330
1F
100
AcDbEntity
  8
0
100
AcDbLine
 10
114.7860027983127
 20
268.7491710526077
 30
0.0
 11
114.8882253194454
 21
267.9727139173
 31
0.0
  0
LINE
  5
293
330
1F
100
AcDbEntity
  8
0
100
AcDbLine
 10
114.8882253194454
 20
267.9727139173
 30
0.0
 11
114.7860027983127
 21
267.1962567819926
 31
0.0
  0
LINE
  5
294
330
1F
100
AcDbEntity
  8
0
100
AcDbLine
 10
114.7860027983127
 20
267.1962567819926
 30
0.0
 11
114.4863015307988
 21
266.4727139173
 31
0.0
  0
LINE
  5
295
330
1F
100
AcDbEntity
  8
0
100
AcDbLine
 10
114.4863015307988
 20
266.4727139173
 30
0.0
 11
114.0095456630053
 21
265.8513935737404
 31
0.0
  0
LINE
  5
296
330
1F
100
AcDbEntity
  8
0
100
AcDbLine
 10
114.0095456630053
 20
265.8513935737404
 30
0.0
 11
113.3882253194457
 21
265.3746377059469
 31
0.0
  0
LINE
  5
297
330
1F
100
AcDbEntity
  8
0
100
AcDbLine
 10
113.3882253194457
 20
265.3746377059469
 30
0.0
 11
112.6646824547531
 21
265.0749364384328
 31
0.0
  0
LINE
  5
298
330
1F
100
AcDbEntity
  8
0
100
AcDbLine
 10
-216.1117746805544
 20
264.9727139173
 30
0.0
 11
-216.8882318158619
 21
265.0749364384328
 31
0.0
  0
LINE
  5
299
330
1F
100
AcDbEntity
  8
0
100
AcDbLine
 10
-216.8882318158619
 20
265.0749364384328
 30
0.0
 11
-217.6117746805545
 21
265.3746377059469
 31
0.0
  0
LINE
  5
29A
330
1F
100
AcDbEntity
  8
0
100
AcDbLine
 10
-217.6117746805545
 20
265.3746377059469
 30
0.0
 11
-218.233095024114
 21
265.8513935737404
 31
0.0
  0
LINE
  5
29B
330
1F
100
AcDbEntity
  8
0
100
AcDbLine
 10
-218.233095024114
 20
265.8513935737404
 30
0.0
 11
-218.7098508919076
 21
266.4727139173
 31
0.0
  0
LINE
  5
29C
330
1F
100
AcDbEntity
  8
0
100
AcDbLine
 10
-218.7098508919076
 20
266.4727139173
 30
0.0
 11
-219.0095521594215
 21
267.1962567819926
 31
0.0
  0
LINE
  5
29D
330
1F
100
AcDbEntity
  8
0
100
AcDbLine
 10
-219.0095521594215
 20
267.1962567819926
 30
0.0
 11
-219.1117746805545
 21
267.9727139173
 31
0.0
  0
LINE
  5
29E
330
1F
100
AcDbEntity
  8
0
100
AcDbLine
 10
-219.1117746805545
 20
267.9727139173
 30
0.0
 11
-219.0095521594215
 21
268.7491710526077
 31
0.0
  0
LINE
  5
29F
330
1F
100
AcDbEntity
  8
0
100
AcDbLine
 10
-219.0095521594215
 20
268.7491710526077
 30
0.0
 11
-218.7098508919076
 21
269.4727139173
 31
0.0
  0
LINE
  5
2A0
330
1F
100
AcDbEntity
  8
0
100
AcDbLine
 10
-218.7098508919076
 20
269.4727139173
 30
0.0
 11
-218.233095024114
 21
270.0940342608596
 31
0.0
  0
LINE
  5
2A1
330
1F
100
AcDbEntity
  8
0
100
AcDbLine
 10
-218.233095024114
 20
270.0940342608596
 30
0.0
 11
-217.6117746805545
 21
270.5707901286534
 31
0.0
  0
LINE
  5
2A2
330
1F
100
AcDbEntity
  8
0
100
AcDbLine
 10
-217.6117746805545
 20
270.5707901286534
 30
0.0
 11
-216.8882318158619
 21
270.8704913961673
 31
0.0
  0
LINE
  5
2A3
330
1F
100
AcDbEntity
  8
0
100
AcDbLine
 10
-216.8882318158619
 20
270.8704913961673
 30
0.0
 11
-216.1117746805544
 21
270.9727139173001
 31
0.0
  0
LINE
  5
2A4
330
1F
100
AcDbEntity
  8
0
100
AcDbLine
 10
-216.1117746805544
 20
270.9727139173001
 30
0.0
 11
-215.3353175452467
 21
270.8704913961673
 31
0.0
  0
LINE
  5
2A5
330
1F
100
AcDbEntity
  8
0
100
AcDbLine
 10
-215.3353175452467
 20
270.8704913961673
 30
0.0
 11
-214.6117746805544
 21
270.5707901286534
 31
0.0
  0
LINE
  5
2A6
330
1F
100
AcDbEntity
  8
0
100
AcDbLine
 10
-214.6117746805544
 20
270.5707901286534
 30
0.0
 11
-213.9904543369948
 21
270.0940342608596
 31
0.0
  0
LINE
  5
2A7
330
1F
100
AcDbEntity
  8
0
100
AcDbLine
 10
-213.9904543369948
 20
270.0940342608596
 30
0.0
 11
-213.5136984692009
 21
269.4727139173
 31
0.0
  0
LINE
  5
2A8
330
1F
100
AcDbEntity
  8
0
100
AcDbLine
 10
-213.5136984692009
 20
269.4727139173
 30
0.0
 11
-213.2139972016871
 21
268.7491710526077
 31
0.0
  0
LINE
  5
2A9
330
1F
100
AcDbEntity
  8
0
100
AcDbLine
 10
-213.2139972016871
 20
268.7491710526077
 30
0.0
 11
-213.1117746805544
 21
267.9727139173
 31
0.0
  0
LINE
  5
2AA
330
1F
100
AcDbEntity
  8
0
100
AcDbLine
 10
-213.1117746805544
 20
267.9727139173
 30
0.0
 11
-213.2139972016871
 21
267.1962567819926
 31
0.0
  0
LINE
  5
2AB
330
1F
100
AcDbEntity
  8
0
100
AcDbLine
 10
-213.2139972016871
 20
267.1962567819926
 30
0.0
 11
-213.5136984692009
 21
266.4727139173
 31
0.0
  0
LINE
  5
2AC
330
1F
100
AcDbEntity
  8
0
100
AcDbLine
 10
-213.5136984692009
 20
266.4727139173
 30
0.0
 11
-213.9904543369948
 21
265.8513935737404
 31
0.0
  0
LINE
  5
2AD
330
1F
100
AcDbEntity
  8
0
100
AcDbLine
 10
-213.9904543369948
 20
265.8513935737404
 30
0.0
 11
-214.6117746805544
 21
265.3746377059469
 31
0.0
  0
LINE
  5
2AE
330
1F
100
AcDbEntity
  8
0
100
AcDbLine
 10
-214.6117746805544
 20
265.3746377059469
 30
0.0
 11
-215.3353175452467
 21
265.0749364384328
 31
0.0
  0
LINE
  5
2AF
330
1F
100
AcDbEntity
  8
0
100
AcDbLine
 10
-215.3353175452467
 20
265.0749364384328
 30
0.0
 11
-216.1117746805544
 21
264.9727139173
 31
0.0
  0
LINE
  5
2B0
330
1F
100
AcDbEntity
  8
0
100
AcDbLine
 10
24.47641577047055
 20
-90.68654434559055
 30
0.0
 11
21.88822531944557
 21
-91.02728608269989
 31
0.0
  0
LINE
  5
2B1
330
1F
100
AcDbEntity
  8
0
100
AcDbLine
 10
21.88822531944557
 20
-91.02728608269989
 30
0.0
 11
19.30003486842059
 21
-90.68654434559055
 31
0.0
  0
LINE
  5
2B2
330
1F
100
AcDbEntity
  8
0
100
AcDbLine
 10
19.30003486842059
 20
-90.68654434559055
 30
0.0
 11
16.88822531944562
 21
-89.68754012054424
 31
0.0
  0
LINE
  5
2B3
330
1F
100
AcDbEntity
  8
0
100
AcDbLine
 10
16.88822531944562
 20
-89.68754012054424
 30
0.0
 11
14.81715750757999
 21
-88.09835389456521
 31
0.0
  0
LINE
  5
2B4
330
1F
100
AcDbEntity
  8
0
100
AcDbLine
 10
14.81715750757999
 20
-88.09835389456521
 30
0.0
 11
13.22797128160132
 21
-86.02728608269993
 31
0.0
  0
LINE
  5
2B5
330
1F
100
AcDbEntity
  8
0
100
AcDbLine
 10
13.22797128160132
 20
-86.02728608269993
 30
0.0
 11
12.22896705655501
 21
-83.61547653372497
 31
0.0
  0
LINE
  5
2B6
330
1F
100
AcDbEntity
  8
0
100
AcDbLine
 10
12.22896705655501
 20
-83.61547653372497
 30
0.0
 11
11.88822531944568
 21
-81.02728608269982
 31
0.0
  0
LINE
  5
2B7
330
1F
100
AcDbEntity
  8
0
100
AcDbLine
 10
11.88822531944568
 20
-81.02728608269982
 30
0.0
 11
12.22896705655501
 21
-78.43909563167465
 31
0.0
  0
LINE
  5
2B8
330
1F
100
AcDbEntity
  8
0
100
AcDbLine
 10
12.22896705655501
 20
-78.43909563167465
 30
0.0
 11
13.22797128160132
 21
-76.02728608269986
 31
0.0
  0
LINE
  5
2B9
330
1F
100
AcDbEntity
  8
0
100
AcDbLine
 10
13.22797128160132
 20
-76.02728608269986
 30
0.0
 11
14.81715750757999
 21
-73.95621827083441
 31
0.0
  0
LINE
  5
2BA
330
1F
100
AcDbEntity
  8
0
100
AcDbLine
 10
14.81715750757999
 20
-73.95621827083441
 30
0.0
 11
16.88822531944562
 21
-72.36703204485539
 31
0.0
  0
LINE
  5
2BB
330
1F
100
AcDbEntity
  8
0
100
AcDbLine
 10
16.88822531944562
 20
-72.36703204485539
 30
0.0
 11
19.30003486842023
 21
-71.36802781980907
 31
0.0
  0
LINE
  5
2BC
330
1F
100
AcDbEntity
  8
0
100
AcDbLine
 10
19.30003486842023
 20
-71.36802781980907
 30
0.0
 11
21.88822531944557
 21
-71.02728608269975
 31
0.0
  0
LINE
  5
2BD
330
1F
100
AcDbEntity
  8
0
100
AcDbLine
 10
21.88822531944557
 20
-71.02728608269975
 30
0.0
 11
24.47641577047055
 21
-71.36802781980907
 31
0.0
  0
LINE
  5
2BE
330
1F
100
AcDbEntity
  8
0
100
AcDbLine
 10
24.47641577047055
 20
-71.36802781980907
 30
0.0
 11
26.88822531944551
 21
-72.36703204485539
 31
0.0
  0
LINE
  5
2BF
330
1F
100
AcDbEntity
  8
0
100
AcDbLine
 10
26.88822531944551
 20
-72.36703204485539
 30
0.0
 11
28.95929313131115
 21
-73.95621827083441
 31
0.0
  0
LINE
  5
2C0
330
1F
100
AcDbEntity
  8
0
100
AcDbLine
 10
28.95929313131115
 20
-73.95621827083441
 30
0.0
 11
30.54847935728981
 21
-76.02728608269969
 31
0.0
  0
LINE
  5
2C1
330
1F
100
AcDbEntity
  8
0
100
AcDbLine
 10
30.54847935728981
 20
-76.02728608269969
 30
0.0
 11
31.54748358233613
 21
-78.43909563167465
 31
0.0
  0
LINE
  5
2C2
330
1F
100
AcDbEntity
  8
0
100
AcDbLine
 10
31.54748358233613
 20
-78.43909563167465
 30
0.0
 11
31.88822531944546
 21
-81.02728608269982
 31
0.0
  0
LINE
  5
2C3
330
1F
100
AcDbEntity
  8
0
100
AcDbLine
 10
31.88822531944546
 20
-81.02728608269982
 30
0.0
 11
31.54748358233613
 21
-83.61547653372497
 31
0.0
  0
LINE
  5
2C4
330
1F
100
AcDbEntity
  8
0
100
AcDbLine
 10
31.54748358233613
 20
-83.61547653372497
 30
0.0
 11
30.54847935728981
 21
-86.02728608269976
 31
0.0
  0
LINE
  5
2C5
330
1F
100
AcDbEntity
  8
0
100
AcDbLine
 10
30.54847935728981
 20
-86.02728608269976
 30
0.0
 11
28.95929313131115
 21
-88.09835389456521
 31
0.0
  0
LINE
  5
2C6
330
1F
100
AcDbEntity
  8
0
100
AcDbLine
 10
28.95929313131115
 20
-88.09835389456521
 30
0.0
 11
26.88822531944551
 21
-89.68754012054424
 31
0.0
  0
LINE
  5
2C7
330
1F
100
AcDbEntity
  8
0
100
AcDbLine
 10
26.88822531944551
 20
-89.68754012054424
 30
0.0
 11
24.47641577047055
 21
-90.68654434559055
 31
0.0
  0
LINE
  5
2C8
330
1F
100
AcDbEntity
  8
0
100
AcDbLine
 10
-119.0407068686888
 20
-88.09835389456539
 30
0.0
 11
-121.1117746805544
 21
-89.68754012054424
 31
0.0
  0
LINE
  5
2C9
330
1F
100
AcDbEntity
  8
0
100
AcDbLine
 10
-121.1117746805544
 20
-89.68754012054424
 30
0.0
 11
-123.523584229529
 21
-90.68654434559055
 31
0.0
  0
LINE
  5
2CA
330
1F
100
AcDbEntity
  8
0
100
AcDbLine
 10
-123.523584229529
 20
-90.68654434559055
 30
0.0
 11
-126.1117746805543
 21
-91.02728608269989
 31
0.0
  0
LINE
  5
2CB
330
1F
100
AcDbEntity
  8
0
100
AcDbLine
 10
-126.1117746805543
 20
-91.02728608269989
 30
0.0
 11
-128.6999651315797
 21
-90.68654434559055
 31
0.0
  0
LINE
  5
2CC
330
1F
100
AcDbEntity
  8
0
100
AcDbLine
 10
-128.6999651315797
 20
-90.68654434559055
 30
0.0
 11
-131.1117746805543
 21
-89.68754012054424
 31
0.0
  0
LINE
  5
2CD
330
1F
100
AcDbEntity
  8
0
100
AcDbLine
 10
-131.1117746805543
 20
-89.68754012054424
 30
0.0
 11
-133.1828424924199
 21
-88.09835389456539
 31
0.0
  0
LINE
  5
2CE
330
1F
100
AcDbEntity
  8
0
100
AcDbLine
 10
-133.1828424924199
 20
-88.09835389456539
 30
0.0
 11
-134.7720287183986
 21
-86.02728608269993
 31
0.0
  0
LINE
  5
2CF
330
1F
100
AcDbEntity
  8
0
100
AcDbLine
 10
-134.7720287183986
 20
-86.02728608269993
 30
0.0
 11
-135.7710329434449
 21
-83.61547653372516
 31
0.0
  0
LINE
  5
2D0
330
1F
100
AcDbEntity
  8
0
100
AcDbLine
 10
-135.7710329434449
 20
-83.61547653372516
 30
0.0
 11
-136.1117746805542
 21
-81.02728608269999
 31
0.0
  0
LINE
  5
2D1
330
1F
100
AcDbEntity
  8
0
100
AcDbLine
 10
-136.1117746805542
 20
-81.02728608269999
 30
0.0
 11
-135.7710329434449
 21
-78.43909563167465
 31
0.0
  0
LINE
  5
2D2
330
1F
100
AcDbEntity
  8
0
100
AcDbLine
 10
-135.7710329434449
 20
-78.43909563167465
 30
0.0
 11
-134.7720287183986
 21
-76.02728608270004
 31
0.0
  0
LINE
  5
2D3
330
1F
100
AcDbEntity
  8
0
100
AcDbLine
 10
-134.7720287183986
 20
-76.02728608270004
 30
0.0
 11
-133.1828424924199
 21
-73.95621827083441
 31
0.0
  0
LINE
  5
2D4
330
1F
100
AcDbEntity
  8
0
100
AcDbLine
 10
-133.1828424924199
 20
-73.95621827083441
 30
0.0
 11
-131.1117746805543
 21
-72.36703204485556
 31
0.0
  0
LINE
  5
2D5
330
1F
100
AcDbEntity
  8
0
100
AcDbLine
 10
-131.1117746805543
 20
-72.36703204485556
 30
0.0
 11
-128.6999651315797
 21
-71.36802781980924
 31
0.0
  0
LINE
  5
2D6
330
1F
100
AcDbEntity
  8
0
100
AcDbLine
 10
-128.6999651315797
 20
-71.36802781980924
 30
0.0
 11
-126.1117746805543
 21
-71.02728608269992
 31
0.0
  0
LINE
  5
2D7
330
1F
100
AcDbEntity
  8
0
100
AcDbLine
 10
-126.1117746805543
 20
-71.02728608269992
 30
0.0
 11
-123.523584229529
 21
-71.36802781980924
 31
0.0
  0
LINE
  5
2D8
330
1F
100
AcDbEntity
  8
0
100
AcDbLine
 10
-123.523584229529
 20
-71.36802781980924
 30
0.0
 11
-121.1117746805544
 21
-72.36703204485556
 31
0.0
  0
LINE
  5
2D9
330
1F
100
AcDbEntity
  8
0
100
AcDbLine
 10
-121.1117746805544
 20
-72.36703204485556
 30
0.0
 11
-119.0407068686888
 21
-73.95621827083441
 31
0.0
  0
LINE
  5
2DA
330
1F
100
AcDbEntity
  8
0
100
AcDbLine
 10
-119.0407068686888
 20
-73.95621827083441
 30
0.0
 11
-117.4515206427101
 21
-76.02728608269986
 31
0.0
  0
LINE
  5
2DB
330
1F
100
AcDbEntity
  8
0
100
AcDbLine
 10
-117.4515206427101
 20
-76.02728608269986
 30
0.0
 11
-116.4525164176638
 21
-78.43909563167465
 31
0.0
  0
LINE
  5
2DC
330
1F
100
AcDbEntity
  8
0
100
AcDbLine
 10
-116.4525164176638
 20
-78.43909563167465
 30
0.0
 11
-116.1117746805544
 21
-81.02728608269999
 31
0.0
  0
LINE
  5
2DD
330
1F
100
AcDbEntity
  8
0
100
AcDbLine
 10
-116.1117746805544
 20
-81.02728608269999
 30
0.0
 11
-116.4525164176638
 21
-83.61547653372497
 31
0.0
  0
LINE
  5
2DE
330
1F
100
AcDbEntity
  8
0
100
AcDbLine
 10
-116.4525164176638
 20
-83.61547653372497
 30
0.0
 11
-117.4515206427101
 21
-86.02728608269993
 31
0.0
  0
LINE
  5
2DF
330
1F
100
AcDbEntity
  8
0
100
AcDbLine
 10
-117.4515206427101
 20
-86.02728608269993
 30
0.0
 11
-119.0407068686888
 21
-88.09835389456539
 31
0.0
  0
ENDSEC
  0
SECTION
  2
OBJECTS
  0
DICTIONARY
  5
C
330
0
100
AcDbDictionary
281
     1
  3
ACAD_DETAILVIEWSTYLE
350
2E4
  3
ACAD_GROUP
350
D
  3
ACAD_LAYOUT
350
1A
  3
ACAD_MATERIAL
350
43
  3
ACAD_MLEADERSTYLE
350
2E3
  3
ACAD_MLINESTYLE
350
17
  3
ACAD_PLOTSETTINGS
350
19
  3
ACAD_PLOTSTYLENAME
350
E
  3
ACAD_SCALELIST
350
47
  3
ACAD_SECTIONVIEWSTYLE
350
2E5
  3
ACAD_TABLESTYLE
350
2E2
  3
ACAD_VISUALSTYLE
350
2A
  3
AcDbVariableDictionary
350
2E0
  0
SUN
  5
69
330
29
100
AcDbSun
 90
        1
290
     0
 63
     7
421
 16777215
 40
1.0
291
     1
 91
  2455826
 92
 54000000
292
     0
 70
     2
 71
   256
280
     1
  0
DICTIONARY
  5
2E4
102
{ACAD_REACTORS
330
C
102
}
330
C
100
AcDbDictionary
281
     1
  0
DICTIONARY
  5
D
102
{ACAD_REACTORS
330
C
102
}
330
C
100
AcDbDictionary
281
     1
  0
DICTIONARY
  5
1A
102
{ACAD_REACTORS
330
C
102
}
330
C
100
AcDbDictionary
281
     1
  3
Layout1
350
1E
  3
Layout2
350
26
  3
Model
350
22
  0
DICTIONARY
  5
43
102
{ACAD_REACTORS
330
C
102
}
330
C
100
AcDbDictionary
281
     1
  3
ByBlock
350
45
  3
ByLayer
350
44
  3
Global
350
46
  0
DICTIONARY
  5
2E3
102
{ACAD_REACTORS
330
C
102
}
330
C
100
AcDbDictionary
281
     1
  0
DICTIONARY
  5
17
102
{ACAD_REACTORS
330
C
102
}
330
C
100
AcDbDictionary
281
     1
  3
Standard
350
18
  0
DICTIONARY
  5
19
102
{ACAD_REACTORS
330
C
102
}
330
C
100
AcDbDictionary
281
     1
  0
ACDBDICTIONARYWDFLT
  5
E
102
{ACAD_REACTORS
330
C
102
}
330
C
100
AcDbDictionary
281
     1
  3
Normal
350
F
100
AcDbDictionaryWithDefault
340
F
  0
DICTIONARY
  5
47
102
{ACAD_REACTORS
330
C
102
}
330
C
100
AcDbDictionary
281
     1
  3
A0
350
48
  3
A1
350
49
  3
A2
350
4A
  3
A3
350
4B
  3
A4
350
4C
  3
A5
350
4D
  3
A6
350
4E
  3
A7
350
4F
  3
A8
350
50
  3
A9
350
51
  3
B0
350
52
  3
B1
350
53
  3
B2
350
54
  3
B3
350
55
  3
B4
350
56
  3
B5
350
57
  3
B6
350
58
  3
B7
350
59
  3
B8
350
5A
  3
B9
350
5B
  3
C0
350
5C
  3
C1
350
5D
  3
C2
350
5E
  3
C3
350
5F
  3
C4
350
60
  3
C5
350
61
  3
C6
350
62
  3
C7
350
63
  3
C8
350
64
  3
C9
350
65
  3
D0
350
66
  3
D1
350
67
  3
D2
350
68
  0
DICTIONARY
  5
2E5
102
{ACAD_REACTORS
330
C
102
}
330
C
100
AcDbDictionary
281
     1
  0
DICTIONARY
  5
2E2
102
{ACAD_REACTORS
330
C
102
}
330
C
100
AcDbDictionary
281
     1
  0
DICTIONARY
  5
2A
102
{ACAD_REACTORS
330
C
102
}
330
C
100
AcDbDictionary
281
     1
  3
2dWireframe
350
2F
  3
Basic
350
32
  3
Brighten
350
36
  3
ColorChange
350
3A
  3
Conceptual
350
34
  3
Dim
350
35
  3
EdgeColorOff
350
3D
  3
Facepattern
350
39
  3
Flat
350
2B
  3
FlatWithEdges
350
2C
  3
Gouraud
350
2D
  3
GouraudWithEdges
350
2E
  3
Hidden
350
31
  3
JitterOff
350
3B
  3
Linepattern
350
38
  3
OverhangOff
350
3C
  3
Realistic
350
33
  3
Shaded
350
42
  3
Shaded with edges
350
41
  3
Shades of Gray
350
3E
  3
Sketchy
350
3F
  3
Thicken
350
37
  3
Wireframe
350
30
  3
X-Ray
350
40
  0
DICTIONARY
  5
2E0
102
{ACAD_REACTORS
330
C
102
}
330
C
100
AcDbDictionary
281
     1
  3
CANNOSCALE
350
2E1
  0
LAYOUT
  5
1E
102
{ACAD_REACTORS
330
1A
102
}
330
1A
100
AcDbPlotSettings
  1

  2
none_device
  4

  6

 40
0.0
 41
0.0
 42
0.0
 43
0.0
 44
0.0
 45
0.0
 46
0.0
 47
0.0
 48
0.0
 49
0.0
140
0.0
141
0.0
142
1.0
143
1.0
 70
   688
 72
     0
 73
     0
 74
     5
  7

 75
    16
 76
     0
 77
     2
 78
   300
147
1.0
148
0.0
149
0.0
100
AcDbLayout
  1
Layout1
 70
     1
 71
     1
 10
0.0
 20
0.0
 11
12.0
 21
9.0
 12
0.0
 22
0.0
 32
0.0
 14
1.000000000000000E+20
 24
1.000000000000000E+20
 34
1.000000000000000E+20
 15
-1.000000000000000E+20
 25
-1.000000000000000E+20
 35
-1.000000000000000E+20
146
0.0
 13
0.0
 23
0.0
 33
0.0
 16
1.0
 26
0.0
 36
0.0
 17
0.0
 27
1.0
 37
0.0
 76
     0
330
1B
  0
LAYOUT
  5
26
102
{ACAD_REACTORS
330
1A
102
}
330
1A
100
AcDbPlotSettings
  1

  2
none_device
  4

  6

 40
0.0
 41
0.0
 42
0.0
 43
0.0
 44
0.0
 45
0.0
 46
0.0
 47
0.0
 48
0.0
 49
0.0
140
0.0
141
0.0
142
1.0
143
1.0
 70
   688
 72
     0
 73
     0
 74
     5
  7

 75
    16
 76
     0
 77
     2
 78
   300
147
1.0
148
0.0
149
0.0
100
AcDbLayout
  1
Layout2
 70
     1
 71
     2
 10
0.0
 20
0.0
 11
0.0
 21
0.0
 12
0.0
 22
0.0
 32
0.0
 14
0.0
 24
0.0
 34
0.0
 15
0.0
 25
0.0
 35
0.0
146
0.0
 13
0.0
 23
0.0
 33
0.0
 16
1.0
 26
0.0
 36
0.0
 17
0.0
 27
1.0
 37
0.0
 76
     0
330
23
  0
LAYOUT
  5
22
102
{ACAD_REACTORS
330
1A
102
}
330
1A
100
AcDbPlotSettings
  1

  2
none_device
  4
Letter_(8.50_x_11.00_Inches)
  6

 40
6.35
 41
6.35
 42
6.35000508
 43
6.35000508
 44
215.9
 45
279.4
 46
0.0
 47
0.0
 48
0.0
 49
0.0
140
0.0
141
0.0
142
1.0
143
1.0
 70
  1712
 72
     0
 73
     0
 74
     0
  7

 75
     0
 76
     0
 77
     2
 78
   300
147
1.0
148
0.0
149
0.0
100
AcDbLayout
  1
Model
 70
     1
 71
     0
 10
0.0
 20
0.0
 11
12.0
 21
9.0
 12
0.0
 22
0.0
 32
0.0
 14
1.000000000000000E+20
 24
1.000000000000000E+20
 34
1.000000000000000E+20
 15
-1.000000000000000E+20
 25
-1.000000000000000E+20
 35
-1.000000000000000E+20
146
0.0
 13
0.0
 23
0.0
 33
0.0
 16
1.0
 26
0.0
 36
0.0
 17
0.0
 27
1.0
 37
0.0
 76
     0
330
1F
331
29
  0
MATERIAL
  5
45
102
{ACAD_REACTORS
330
43
102
}
330
43
100
AcDbMaterial
  1
ByBlock
 72
     1
 94
      127
  0
MATERIAL
  5
44
102
{ACAD_REACTORS
330
43
102
}
330
43
100
AcDbMaterial
  1
ByLayer
 72
     1
 94
      127
  0
MATERIAL
  5
46
102
{ACAD_REACTORS
330
43
102
}
330
43
100
AcDbMaterial
  1
Global
 72
     1
 94
      127
  0
MLINESTYLE
  5
18
102
{ACAD_REACTORS
330
17
102
}
330
17
100
AcDbMlineStyle
  2
Standard
 70
     0
  3

 62
   256
 51
90.0
 52
90.0
 71
     2
 49
0.5
 62
   256
  6
BYLAYER
 49
-0.5
 62
   256
  6
BYLAYER
  0
ACDBPLACEHOLDER
  5
F
102
{ACAD_REACTORS
330
E
102
}
330
E
  0
SCALE
  5
48
102
{ACAD_REACTORS
330
47
102
}
330
47
100
AcDbScale
 70
     0
300
1:1
140
1.0
141
1.0
290
     1
  0
SCALE
  5
49
102
{ACAD_REACTORS
330
47
102
}
330
47
100
AcDbScale
 70
     0
300
1:2
140
1.0
141
2.0
290
     0
  0
SCALE
  5
4A
102
{ACAD_REACTORS
330
47
102
}
330
47
100
AcDbScale
 70
     0
300
1:4
140
1.0
141
4.0
290
     0
  0
SCALE
  5
4B
102
{ACAD_REACTORS
330
47
102
}
330
47
100
AcDbScale
 70
     0
300
1:5
140
1.0
141
5.0
290
     0
  0
SCALE
  5
4C
102
{ACAD_REACTORS
330
47
102
}
330
47
100
AcDbScale
 70
     0
300
1:8
140
1.0
141
8.0
290
     0
  0
SCALE
  5
4D
102
{ACAD_REACTORS
330
47
102
}
330
47
100
AcDbScale
 70
     0
300
1:10
140
1.0
141
10.0
290
     0
  0
SCALE
  5
4E
102
{ACAD_REACTORS
330
47
102
}
330
47
100
AcDbScale
 70
     0
300
1:16
140
1.0
141
16.0
290
     0
  0
SCALE
  5
4F
102
{ACAD_REACTORS
330
47
102
}
330
47
100
AcDbScale
 70
     0
300
1:20
140
1.0
141
20.0
290
     0
  0
SCALE
  5
50
102
{ACAD_REACTORS
330
47
102
}
330
47
100
AcDbScale
 70
     0
300
1:30
140
1.0
141
30.0
290
     0
  0
SCALE
  5
51
102
{ACAD_REACTORS
330
47
102
}
330
47
100
AcDbScale
 70
     0
300
1:40
140
1.0
141
40.0
290
     0
  0
SCALE
  5
52
102
{ACAD_REACTORS
330
47
102
}
330
47
100
AcDbScale
 70
     0
300
1:50
140
1.0
141
50.0
290
     0
  0
SCALE
  5
53
102
{ACAD_REACTORS
330
47
102
}
330
47
100
AcDbScale
 70
     0
300
1:100
140
1.0
141
100.0
290
     0
  0
SCALE
  5
54
102
{ACAD_REACTORS
330
47
102
}
330
47
100
AcDbScale
 70
     0
300
2:1
140
2.0
141
1.0
290
     0
  0
SCALE
  5
55
102
{ACAD_REACTORS
330
47
102
}
330
47
100
AcDbScale
 70
     0
300
4:1
140
4.0
141
1.0
290
     0
  0
SCALE
  5
56
102
{ACAD_REACTORS
330
47
102
}
330
47
100
AcDbScale
 70
     0
300
8:1
140
8.0
141
1.0
290
     0
  0
SCALE
  5
57
102
{ACAD_REACTORS
330
47
102
}
330
47
100
AcDbScale
 70
     0
300
10:1
140
10.0
141
1.0
290
     0
  0
SCALE
  5
58
102
{ACAD_REACTORS
330
47
102
}
330
47
100
AcDbScale
 70
     0
300
100:1
140
100.0
141
1.0
290
     0
  0
SCALE
  5
59
102
{ACAD_REACTORS
330
47
102
}
330
47
100
AcDbScale
 70
     0
300
1/128" = 1'-0"
140
0.0078125
141
12.0
290
     0
  0
SCALE
  5
5A
102
{ACAD_REACTORS
330
47
102
}
330
47
100
AcDbScale
 70
     0
300
1/64" = 1'-0"
140
0.015625
141
12.0
290
     0
  0
SCALE
  5
5B
102
{ACAD_REACTORS
330
47
102
}
330
47
100
AcDbScale
 70
     0
300
1/32" = 1'-0"
140
0.03125
141
12.0
290
     0
  0
SCALE
  5
5C
102
{ACAD_REACTORS
330
47
102
}
330
47
100
AcDbScale
 70
     0
300
1/16" = 1'-0"
140
0.0625
141
12.0
290
     0
  0
SCALE
  5
5D
102
{ACAD_REACTORS
330
47
102
}
330
47
100
AcDbScale
 70
     0
300
3/32" = 1'-0"
140
0.09375
141
12.0
290
     0
  0
SCALE
  5
5E
102
{ACAD_REACTORS
330
47
102
}
330
47
100
AcDbScale
 70
     0
300
1/8" = 1'-0"
140
0.125
141
12.0
290
     0
  0
SCALE
  5
5F
102
{ACAD_REACTORS
330
47
102
}
330
47
100
AcDbScale
 70
     0
300
3/16" = 1'-0"
140
0.1875
141
12.0
290
     0
  0
SCALE
  5
60
102
{ACAD_REACTORS
330
47
102
}
330
47
100
AcDbScale
 70
     0
300
1/4" = 1'-0"
140
0.25
141
12.0
290
     0
  0
SCALE
  5
61
102
{ACAD_REACTORS
330
47
102
}
330
47
100
AcDbScale
 70
     0
300
3/8" = 1'-0"
140
0.375
141
12.0
290
     0
  0
SCALE
  5
62
102
{ACAD_REACTORS
330
47
102
}
330
47
100
AcDbScale
 70
     0
300
1/2" = 1'-0"
140
0.5
141
12.0
290
     0
  0
SCALE
  5
63
102
{ACAD_REACTORS
330
47
102
}
330
47
100
AcDbScale
 70
     0
300
3/4" = 1'-0"
140
0.75
141
12.0
290
     0
  0
SCALE
  5
64
102
{ACAD_REACTORS
330
47
102
}
330
47
100
AcDbScale
 70
     0
300
1" = 1'-0"
140
1.0
141
12.0
290
     0
  0
SCALE
  5
65
102
{ACAD_REACTORS
330
47
102
}
330
47
100
AcDbScale
 70
     0
300
1-1/2" = 1'-0"
140
1.5
141
12.0
290
     0
  0
SCALE
  5
66
102
{ACAD_REACTORS
330
47
102
}
330
47
100
AcDbScale
 70
     0
300
3" = 1'-0"
140
3.0
141
12.0
290
     0
  0
SCALE
  5
67
102
{ACAD_REACTORS
330
47
102
}
330
47
100
AcDbScale
 70
     0
300
6" = 1'-0"
140
6.0
141
12.0
290
     0
  0
SCALE
  5
68
102
{ACAD_REACTORS
330
47
102
}
330
47
100
AcDbScale
 70
     0
300
1'-0" = 1'-0"
140
12.0
141
12.0
290
     0
  0
VISUALSTYLE
  5
2F
102
{ACAD_REACTORS
330
2A
102
}
330
2A
100
AcDbVisualStyle
  2
2dWireframe
 70
     4
177
     3
291
     0
 70
    58
 90
        0
176
     1
 90
        2
176
     1
 90
        0
176
     1
 90
        0
176
     1
 40
0.6
176
     1
 40
30.0
176
     1
 62
     7
420
 16777215
176
     1
 90
        1
176
     1
 90
        4
176
     1
 62
     7
176
     1
 62
   257
176
     1
 90
        1
176
     1
 90
        1
176
     1
 40
1.0
176
     1
 90
        0
176
     1
 62
   257
176
     1
 40
1.0
176
     1
 90
        1
176
     1
 90
        6
176
     1
 90
        2
176
     1
 62
     7
176
     1
 90
        5
176
     1
 90
        0
176
     1
 90
        0
176
     1
290
     0
176
     1
 90
        1
176
     1
 40
0.0
176
     1
 90
        0
176
     1
290
     1
176
     1
290
     1
176
     1
290
     0
176
     1
290
     0
176
     1
290
     0
176
     1
290
     0
176
     1
290
     0
176
     1
290
     0
176
     1
290
     0
176
     1
 90
       50
176
     1
 40
0.0
176
     1
 40
1.0
176
     1
 90
        0
176
     1
 62
    18
420
        0
176
     1
 90
       50
176
     1
 90
        3
176
     1
 62
     5
420
      255
176
     1
290
     0
176
     1
 90
       50
176
     1
 90
       50
176
     1
 90
       50
176
     1
290
     0
176
     1
 90
       50
176
     1
 62
   256
176
     0
 40
1.0
176
     0
 90
        2
176
     1
  1
strokes_ogs.tif
176
     1
290
     0
176
     1
 40
1.0
176
     1
 40
1.0
176
     1
  0
VISUALSTYLE
  5
32
102
{ACAD_REACTORS
330
2A
102
}
330
2A
100
AcDbVisualStyle
  2
Basic
 70
     7
177
     3
291
     1
 70
    58
 90
        1
176
     1
 90
        0
176
     1
 90
        1
176
     1
 90
        0
176
     1
 40
0.6
176
     1
 40
30.0
176
     1
 62
     7
420
 16777215
176
     1
 90
        0
176
     1
 90
        4
176
     1
 62
     7
176
     1
 62
   257
176
     1
 90
        1
176
     1
 90
        1
176
     1
 40
1.0
176
     1
 90
        8
176
     1
 62
     7
176
     1
 40
1.0
176
     1
 90
        1
176
     1
 90
        6
176
     1
 90
        2
176
     1
 62
     7
176
     1
 90
        5
176
     1
 90
        0
176
     1
 90
        0
176
     1
290
     0
176
     1
 90
        1
176
     1
 40
0.0
176
     1
 90
        0
176
     1
290
     0
176
     1
290
     1
176
     1
290
     1
176
     1
290
     0
176
     1
290
     0
176
     1
290
     0
176
     1
290
     0
176
     1
290
     0
176
     1
290
     0
176
     1
 90
       50
176
     1
 40
0.0
176
     1
 40
1.0
176
     1
 90
        0
176
     1
 62
    18
420
        0
176
     1
 90
       50
176
     1
 90
        3
176
     1
 62
     5
420
      255
176
     1
290
     0
176
     1
 90
       50
176
     1
 90
       50
176
     1
 90
       50
176
     1
290
     0
176
     1
 90
       50
176
     1
 62
   256
176
     0
 40
1.0
176
     0
 90
        2
176
     1
  1
strokes_ogs.tif
176
     1
290
     0
176
     1
 40
1.0
176
     1
 40
1.0
176
     1
  0
VISUALSTYLE
  5
36
102
{ACAD_REACTORS
330
2A
102
}
330
2A
100
AcDbVisualStyle
  2
Brighten
 70
    12
177
     3
291
     1
 70
    58
 90
        2
176
     1
 90
        2
176
     1
 90
        0
176
     1
 90
        0
176
     1
 40
0.6
176
     1
 40
30.0
176
     1
 62
     7
420
 16777215
176
     1
 90
        1
176
     1
 90
        4
176
     1
 62
     7
176
     1
 62
   257
176
     1
 90
        1
176
     1
 90
        1
176
     1
 40
1.0
176
     1
 90
        8
176
     1
 62
     7
176
     1
 40
1.0
176
     1
 90
        1
176
     1
 90
        6
176
     1
 90
        2
176
     1
 62
     7
176
     1
 90
        5
176
     1
 90
        0
176
     1
 90
        0
176
     1
290
     0
176
     1
 90
        1
176
     1
 40
50.0
176
     1
 90
        0
176
     1
290
     0
176
     1
290
     1
176
     1
290
     1
176
     1
290
     0
176
     1
290
     0
176
     1
290
     0
176
     1
290
     0
176
     1
290
     0
176
     1
290
     0
176
     1
 90
       50
176
     1
 40
0.0
176
     1
 40
1.0
176
     1
 90
        0
176
     1
 62
    18
420
        0
176
     1
 90
       50
176
     1
 90
        3
176
     1
 62
     5
420
      255
176
     1
290
     0
176
     1
 90
       50
176
     1
 90
       50
176
     1
 90
       50
176
     1
290
     0
176
     1
 90
       50
176
     1
 62
   256
176
     0
 40
1.0
176
     0
 90
        2
176
     1
  1
strokes_ogs.tif
176
     1
290
     0
176
     1
 40
1.0
176
     1
 40
1.0
176
     1
  0
VISUALSTYLE
  5
3A
102
{ACAD_REACTORS
330
2A
102
}
330
2A
100
AcDbVisualStyle
  2
ColorChange
 70
    16
177
     3
291
     1
 70
    58
 90
        2
176
     1
 90
        2
176
     1
 90
        3
176
     1
 90
        0
176
     1
 40
0.6
176
     1
 40
30.0
176
     1
 62
     8
420
  8421504
176
     1
 90
        1
176
     1
 90
        4
176
     1
 62
     7
176
     1
 62
   257
176
     1
 90
        1
176
     1
 90
        1
176
     1
 40
1.0
176
     1
 90
        8
176
     1
 62
     8
420
  8421504
176
     1
 40
1.0
176
     1
 90
        1
176
     1
 90
        6
176
     1
 90
        2
176
     1
 62
     7
176
     1
 90
        5
176
     1
 90
        0
176
     1
 90
        0
176
     1
290
     0
176
     1
 90
        1
176
     1
 40
0.0
176
     1
 90
        0
176
     1
290
     0
176
     1
290
     1
176
     1
290
     1
176
     1
290
     0
176
     1
290
     0
176
     1
290
     0
176
     1
290
     0
176
     1
290
     0
176
     1
290
     0
176
     1
 90
       50
176
     1
 40
0.0
176
     1
 40
1.0
176
     1
 90
        0
176
     1
 62
    18
420
        0
176
     1
 90
       50
176
     1
 90
        3
176
     1
 62
     5
420
      255
176
     1
290
     0
176
     1
 90
       50
176
     1
 90
       50
176
     1
 90
       50
176
     1
290
     0
176
     1
 90
       50
176
     1
 62
   256
176
     0
 40
1.0
176
     0
 90
        2
176
     1
  1
strokes_ogs.tif
176
     1
290
     0
176
     1
 40
1.0
176
     1
 40
1.0
176
     1
  0
VISUALSTYLE
  5
34
102
{ACAD_REACTORS
330
2A
102
}
330
2A
100
AcDbVisualStyle
  2
Conceptual
 70
     9
177
     3
291
     0
 70
    58
 90
        3
176
     1
 90
        2
176
     1
 90
        0
176
     1
 90
        0
176
     1
 40
0.6
176
     1
 40
30.0
176
     1
 62
     7
420
 16777215
176
     1
 90
        2
176
     1
 90
        2
176
     1
 62
     7
176
     1
 62
   257
176
     1
 90
        1
176
     1
 90
        1
176
     1
 40
179.0
176
     1
 90
        8
176
     1
 62
     7
176
     1
 40
1.0
176
     1
 90
        1
176
     1
 90
        6
176
     1
 90
        2
176
     1
 62
     7
176
     1
 90
        3
176
     1
 90
        0
176
     1
 90
        0
176
     1
290
     0
176
     1
 90
        1
176
     1
 40
0.0
176
     1
 90
        0
176
     1
290
     0
176
     1
290
     1
176
     1
290
     1
176
     1
290
     0
176
     1
290
     0
176
     1
290
     0
176
     1
290
     0
176
     1
290
     0
176
     1
290
     0
176
     1
 90
       50
176
     1
 40
0.0
176
     1
 40
1.0
176
     1
 90
        0
176
     1
 62
    18
420
        0
176
     1
 90
       50
176
     1
 90
        3
176
     1
 62
     5
420
      255
176
     1
290
     0
176
     1
 90
       50
176
     1
 90
       50
176
     1
 90
       50
176
     1
290
     0
176
     1
 90
       50
176
     1
 62
   256
176
     0
 40
1.0
176
     0
 90
        2
176
     1
  1
strokes_ogs.tif
176
     1
290
     0
176
     1
 40
1.0
176
     1
 40
1.0
176
     1
  0
VISUALSTYLE
  5
35
102
{ACAD_REACTORS
330
2A
102
}
330
2A
100
AcDbVisualStyle
  2
Dim
 70
    11
177
     3
291
     1
 70
    58
 90
        2
176
     1
 90
        2
176
     1
 90
        0
176
     1
 90
        0
176
     1
 40
0.6
176
     1
 40
30.0
176
     1
 62
     7
420
 16777215
176
     1
 90
        1
176
     1
 90
        4
176
     1
 62
     7
176
     1
 62
   257
176
     1
 90
        1
176
     1
 90
        1
176
     1
 40
1.0
176
     1
 90
        8
176
     1
 62
     7
176
     1
 40
1.0
176
     1
 90
        1
176
     1
 90
        6
176
     1
 90
        2
176
     1
 62
     7
176
     1
 90
        5
176
     1
 90
        0
176
     1
 90
        0
176
     1
290
     0
176
     1
 90
        1
176
     1
 40
-50.0
176
     1
 90
        0
176
     1
290
     0
176
     1
290
     1
176
     1
290
     1
176
     1
290
     0
176
     1
290
     0
176
     1
290
     0
176
     1
290
     0
176
     1
290
     0
176
     1
290
     0
176
     1
 90
       50
176
     1
 40
0.0
176
     1
 40
1.0
176
     1
 90
        0
176
     1
 62
    18
420
        0
176
     1
 90
       50
176
     1
 90
        3
176
     1
 62
     5
420
      255
176
     1
290
     0
176
     1
 90
       50
176
     1
 90
       50
176
     1
 90
       50
176
     1
290
     0
176
     1
 90
       50
176
     1
 62
   256
176
     0
 40
1.0
176
     0
 90
        2
176
     1
  1
strokes_ogs.tif
176
     1
290
     0
176
     1
 40
1.0
176
     1
 40
1.0
176
     1
  0
VISUALSTYLE
  5
3D
102
{ACAD_REACTORS
330
2A
102
}
330
2A
100
AcDbVisualStyle
  2
EdgeColorOff
 70
    22
177
     3
291
     1
 70
    58
 90
        2
176
     0
 90
        2
176
     0
 90
        0
176
     0
 90
        0
176
     0
 40
0.6
176
     0
 40
30.0
176
     0
 62
     7
420
 16777215
176
     0
 90
        1
176
     0
 90
        4
176
     0
 62
     7
176
     0
 62
   257
176
     0
 90
        1
176
     0
 90
        1
176
     0
 40
1.0
176
     0
 90
        8
176
     2
 62
     7
176
     0
 40
1.0
176
     0
 90
        1
176
     0
 90
        6
176
     0
 90
        2
176
     0
 62
     7
176
     0
 90
        5
176
     0
 90
        0
176
     0
 90
        0
176
     0
290
     0
176
     0
 90
        1
176
     0
 40
0.0
176
     0
 90
        0
176
     0
290
     0
176
     0
290
     1
176
     0
290
     1
176
     0
290
     0
176
     0
290
     0
176
     0
290
     0
176
     0
290
     0
176
     0
290
     0
176
     0
290
     0
176
     0
 90
       50
176
     0
 40
0.0
176
     0
 40
1.0
176
     0
 90
        0
176
     0
 62
    18
420
        0
176
     0
 90
       50
176
     0
 90
        3
176
     0
 62
     5
420
      255
176
     0
290
     0
176
     0
 90
       50
176
     0
 90
       50
176
     0
 90
       50
176
     0
290
     0
176
     0
 90
       50
176
     0
 62
   256
176
     0
 40
1.0
176
     0
 90
        2
176
     0
  1
strokes_ogs.tif
176
     0
290
     0
176
     0
 40
1.0
176
     0
 40
1.0
176
     0
  0
VISUALSTYLE
  5
39
102
{ACAD_REACTORS
330
2A
102
}
330
2A
100
AcDbVisualStyle
  2
Facepattern
 70
    15
177
     3
291
     1
 70
    58
 90
        2
176
     1
 90
        2
176
     1
 90
        0
176
     1
 90
        0
176
     1
 40
0.6
176
     1
 40
30.0
176
     1
 62
     7
420
 16777215
176
     1
 90
        1
176
     1
 90
        4
176
     1
 62
     7
176
     1
 62
   257
176
     1
 90
        1
176
     1
 90
        1
176
     1
 40
1.0
176
     1
 90
        8
176
     1
 62
     7
176
     1
 40
1.0
176
     1
 90
        1
176
     1
 90
        6
176
     1
 90
        2
176
     1
 62
     7
176
     1
 90
        5
176
     1
 90
        0
176
     1
 90
        0
176
     1
290
     0
176
     1
 90
        1
176
     1
 40
0.0
176
     1
 90
        0
176
     1
290
     0
176
     1
290
     1
176
     1
290
     1
176
     1
290
     0
176
     1
290
     0
176
     1
290
     0
176
     1
290
     0
176
     1
290
     0
176
     1
290
     0
176
     1
 90
       50
176
     1
 40
0.0
176
     1
 40
1.0
176
     1
 90
        0
176
     1
 62
    18
420
        0
176
     1
 90
       50
176
     1
 90
        3
176
     1
 62
     5
420
      255
176
     1
290
     0
176
     1
 90
       50
176
     1
 90
       50
176
     1
 90
       50
176
     1
290
     0
176
     1
 90
       50
176
     1
 62
   256
176
     0
 40
1.0
176
     0
 90
        2
176
     1
  1
strokes_ogs.tif
176
     1
290
     0
176
     1
 40
1.0
176
     1
 40
1.0
176
     1
  0
VISUALSTYLE
  5
2B
102
{ACAD_REACTORS
330
2A
102
}
330
2A
100
AcDbVisualStyle
  2
Flat
 70
     0
177
     3
291
     1
 70
    58
 90
        2
176
     1
 90
        1
176
     1
 90
        1
176
     1
 90
        2
176
     1
 40
0.6
176
     1
 40
30.0
176
     1
 62
     7
420
 16777215
176
     1
 90
        0
176
     1
 90
        0
176
     1
 62
     7
176
     1
 62
   257
176
     1
 90
        1
176
     1
 90
        1
176
     1
 40
1.0
176
     1
 90
        8
176
     1
 62
     7
176
     1
 40
1.0
176
     1
 90
        1
176
     1
 90
        6
176
     1
 90
        2
176
     1
 62
     7
176
     1
 90
        5
176
     1
 90
        0
176
     1
 90
        0
176
     1
290
     0
176
     1
 90
       13
176
     1
 40
0.0
176
     1
 90
        0
176
     1
290
     0
176
     1
290
     1
176
     1
290
     1
176
     1
290
     0
176
     1
290
     0
176
     1
290
     0
176
     1
290
     0
176
     1
290
     0
176
     1
290
     0
176
     1
 90
       50
176
     1
 40
0.0
176
     1
 40
1.0
176
     1
 90
        0
176
     1
 62
    18
420
        0
176
     1
 90
       50
176
     1
 90
        3
176
     1
 62
     5
420
      255
176
     1
290
     0
176
     1
 90
       50
176
     1
 90
       50
176
     1
 90
       50
176
     1
290
     0
176
     1
 90
       50
176
     1
 62
   256
176
     0
 40
1.0
176
     0
 90
        2
176
     1
  1
strokes_ogs.tif
176
     1
290
     0
176
     1
 40
1.0
176
     1
 40
1.0
176
     1
  0
VISUALSTYLE
  5
2C
102
{ACAD_REACTORS
330
2A
102
}
330
2A
100
AcDbVisualStyle
  2
FlatWithEdges
 70
     1
177
     3
291
     1
 70
    58
 90
        2
176
     1
 90
        1
176
     1
 90
        1
176
     1
 90
        2
176
     1
 40
0.6
176
     1
 40
30.0
176
     1
 62
     7
420
 16777215
176
     1
 90
        1
176
     1
 90
        0
176
     1
 62
     7
176
     1
 62
   257
176
     1
 90
        1
176
     1
 90
        1
176
     1
 40
1.0
176
     1
 90
        0
176
     1
 62
   257
176
     1
 40
1.0
176
     1
 90
        1
176
     1
 90
        6
176
     1
 90
        2
176
     1
 62
     7
176
     1
 90
        5
176
     1
 90
        0
176
     1
 90
        0
176
     1
290
     0
176
     1
 90
       13
176
     1
 40
0.0
176
     1
 90
        0
176
     1
290
     0
176
     1
290
     1
176
     1
290
     1
176
     1
290
     0
176
     1
290
     0
176
     1
290
     0
176
     1
290
     0
176
     1
290
     0
176
     1
290
     0
176
     1
 90
       50
176
     1
 40
0.0
176
     1
 40
1.0
176
     1
 90
        0
176
     1
 62
    18
420
        0
176
     1
 90
       50
176
     1
 90
        3
176
     1
 62
     5
420
      255
176
     1
290
     0
176
     1
 90
       50
176
     1
 90
       50
176
     1
 90
       50
176
     1
290
     0
176
     1
 90
       50
176
     1
 62
   256
176
     0
 40
1.0
176
     0
 90
        2
176
     1
  1
strokes_ogs.tif
176
     1
290
     0
176
     1
 40
1.0
176
     1
 40
1.0
176
     1
  0
VISUALSTYLE
  5
2D
102
{ACAD_REACTORS
330
2A
102
}
330
2A
100
AcDbVisualStyle
  2
Gouraud
 70
     2
177
     3
291
     1
 70
    58
 90
        2
176
     1
 90
        2
176
     1
 90
        1
176
     1
 90
        2
176
     1
 40
0.6
176
     1
 40
30.0
176
     1
 62
     7
420
 16777215
176
     1
 90
        0
176
     1
 90
        0
176
     1
 62
     7
176
     1
 62
   257
176
     1
 90
        1
176
     1
 90
        1
176
     1
 40
1.0
176
     1
 90
        0
176
     1
 62
     7
176
     1
 40
1.0
176
     1
 90
        1
176
     1
 90
        6
176
     1
 90
        2
176
     1
 62
     7
176
     1
 90
        5
176
     1
 90
        0
176
     1
 90
        0
176
     1
290
     0
176
     1
 90
       13
176
     1
 40
0.0
176
     1
 90
        0
176
     1
290
     0
176
     1
290
     1
176
     1
290
     1
176
     1
290
     0
176
     1
290
     0
176
     1
290
     0
176
     1
290
     0
176
     1
290
     0
176
     1
290
     0
176
     1
 90
       50
176
     1
 40
0.0
176
     1
 40
1.0
176
     1
 90
        0
176
     1
 62
    18
420
        0
176
     1
 90
       50
176
     1
 90
        3
176
     1
 62
     5
420
      255
176
     1
290
     0
176
     1
 90
       50
176
     1
 90
       50
176
     1
 90
       50
176
     1
290
     0
176
     1
 90
       50
176
     1
 62
   256
176
     0
 40
1.0
176
     0
 90
        2
176
     1
  1
strokes_ogs.tif
176
     1
290
     0
176
     1
 40
1.0
176
     1
 40
1.0
176
     1
  0
VISUALSTYLE
  5
2E
102
{ACAD_REACTORS
330
2A
102
}
330
2A
100
AcDbVisualStyle
  2
GouraudWithEdges
 70
     3
177
     3
291
     1
 70
    58
 90
        2
176
     1
 90
        2
176
     1
 90
        1
176
     1
 90
        2
176
     1
 40
0.6
176
     1
 40
30.0
176
     1
 62
     7
420
 16777215
176
     1
 90
        1
176
     1
 90
        0
176
     1
 62
     7
176
     1
 62
   257
176
     1
 90
        1
176
     1
 90
        1
176
     1
 40
1.0
176
     1
 90
        0
176
     1
 62
   257
176
     1
 40
1.0
176
     1
 90
        1
176
     1
 90
        6
176
     1
 90
        2
176
     1
 62
     7
176
     1
 90
        5
176
     1
 90
        0
176
     1
 90
        0
176
     1
290
     0
176
     1
 90
       13
176
     1
 40
0.0
176
     1
 90
        0
176
     1
290
     0
176
     1
290
     1
176
     1
290
     1
176
     1
290
     0
176
     1
290
     0
176
     1
290
     0
176
     1
290
     0
176
     1
290
     0
176
     1
290
     0
176
     1
 90
       50
176
     1
 40
0.0
176
     1
 40
1.0
176
     1
 90
        0
176
     1
 62
    18
420
        0
176
     1
 90
       50
176
     1
 90
        3
176
     1
 62
     5
420
      255
176
     1
290
     0
176
     1
 90
       50
176
     1
 90
       50
176
     1
 90
       50
176
     1
290
     0
176
     1
 90
       50
176
     1
 62
   256
176
     0
 40
1.0
176
     0
 90
        2
176
     1
  1
strokes_ogs.tif
176
     1
290
     0
176
     1
 40
1.0
176
     1
 40
1.0
176
     1
  0
VISUALSTYLE
  5
31
102
{ACAD_REACTORS
330
2A
102
}
330
2A
100
AcDbVisualStyle
  2
Hidden
 70
     6
177
     3
291
     0
 70
    58
 90
        1
176
     1
 90
        2
176
     1
 90
        2
176
     1
 90
        0
176
     1
 40
0.6
176
     1
 40
30.0
176
     1
 62
     7
420
 16777215
176
     1
 90
        2
176
     1
 90
        2
176
     1
 62
     7
176
     1
 62
   257
176
     1
 90
        2
176
     1
 90
        1
176
     1
 40
40.0
176
     1
 90
        0
176
     1
 62
   257
176
     1
 40
1.0
176
     1
 90
        1
176
     1
 90
        6
176
     1
 90
        2
176
     1
 62
     7
176
     1
 90
        3
176
     1
 90
        0
176
     1
 90
        0
176
     1
290
     0
176
     1
 90
        1
176
     1
 40
0.0
176
     1
 90
        0
176
     1
290
     0
176
     1
290
     1
176
     1
290
     1
176
     1
290
     0
176
     1
290
     0
176
     1
290
     0
176
     1
290
     0
176
     1
290
     0
176
     1
290
     0
176
     1
 90
       50
176
     1
 40
0.0
176
     1
 40
1.0
176
     1
 90
        0
176
     1
 62
    18
420
        0
176
     1
 90
       50
176
     1
 90
        3
176
     1
 62
     5
420
      255
176
     1
290
     0
176
     1
 90
       50
176
     1
 90
       50
176
     1
 90
       50
176
     1
290
     0
176
     1
 90
       50
176
     1
 62
   256
176
     0
 40
1.0
176
     0
 90
        2
176
     1
  1
strokes_ogs.tif
176
     1
290
     0
176
     1
 40
1.0
176
     1
 40
1.0
176
     1
  0
VISUALSTYLE
  5
3B
102
{ACAD_REACTORS
330
2A
102
}
330
2A
100
AcDbVisualStyle
  2
JitterOff
 70
    20
177
     3
291
     1
 70
    58
 90
        2
176
     0
 90
        2
176
     0
 90
        0
176
     0
 90
        0
176
     0
 40
0.6
176
     0
 40
30.0
176
     0
 62
     7
420
 16777215
176
     0
 90
        1
176
     0
 90
        4
176
     0
 62
     7
176
     0
 62
   257
176
     0
 90
        1
176
     0
 90
        1
176
     0
 40
1.0
176
     0
 90
       10
176
     2
 62
     7
176
     0
 40
1.0
176
     0
 90
        1
176
     0
 90
        6
176
     0
 90
        2
176
     0
 62
     7
176
     0
 90
        5
176
     0
 90
        0
176
     0
 90
        0
176
     0
290
     0
176
     0
 90
        1
176
     0
 40
0.0
176
     0
 90
        0
176
     0
290
     0
176
     0
290
     1
176
     0
290
     1
176
     0
290
     0
176
     0
290
     0
176
     0
290
     0
176
     0
290
     0
176
     0
290
     0
176
     0
290
     0
176
     0
 90
       50
176
     0
 40
0.0
176
     0
 40
1.0
176
     0
 90
        0
176
     0
 62
    18
420
        0
176
     0
 90
       50
176
     0
 90
        3
176
     0
 62
     5
420
      255
176
     0
290
     0
176
     0
 90
       50
176
     0
 90
       50
176
     0
 90
       50
176
     0
290
     0
176
     0
 90
       50
176
     0
 62
   256
176
     0
 40
1.0
176
     0
 90
        2
176
     0
  1
strokes_ogs.tif
176
     0
290
     0
176
     0
 40
1.0
176
     0
 40
1.0
176
     0
  0
VISUALSTYLE
  5
38
102
{ACAD_REACTORS
330
2A
102
}
330
2A
100
AcDbVisualStyle
  2
Linepattern
 70
    14
177
     3
291
     1
 70
    58
 90
        2
176
     1
 90
        2
176
     1
 90
        0
176
     1
 90
        0
176
     1
 40
0.6
176
     1
 40
30.0
176
     1
 62
     7
420
 16777215
176
     1
 90
        1
176
     1
 90
        4
176
     1
 62
     7
176
     1
 62
   257
176
     1
 90
        7
176
     1
 90
        7
176
     1
 40
1.0
176
     1
 90
        8
176
     1
 62
     7
176
     1
 40
1.0
176
     1
 90
        1
176
     1
 90
        6
176
     1
 90
        2
176
     1
 62
     7
176
     1
 90
        5
176
     1
 90
        0
176
     1
 90
        0
176
     1
290
     0
176
     1
 90
        1
176
     1
 40
0.0
176
     1
 90
        0
176
     1
290
     0
176
     1
290
     1
176
     1
290
     1
176
     1
290
     0
176
     1
290
     0
176
     1
290
     0
176
     1
290
     0
176
     1
290
     0
176
     1
290
     0
176
     1
 90
       50
176
     1
 40
0.0
176
     1
 40
1.0
176
     1
 90
        0
176
     1
 62
    18
420
        0
176
     1
 90
       50
176
     1
 90
        3
176
     1
 62
     5
420
      255
176
     1
290
     0
176
     1
 90
       50
176
     1
 90
       50
176
     1
 90
       50
176
     1
290
     0
176
     1
 90
       50
176
     1
 62
   256
176
     0
 40
1.0
176
     0
 90
        2
176
     1
  1
strokes_ogs.tif
176
     1
290
     0
176
     1
 40
1.0
176
     1
 40
1.0
176
     1
  0
VISUALSTYLE
  5
3C
102
{ACAD_REACTORS
330
2A
102
}
330
2A
100
AcDbVisualStyle
  2
OverhangOff
 70
    21
177
     3
291
     1
 70
    58
 90
        2
176
     0
 90
        2
176
     0
 90
        0
176
     0
 90
        0
176
     0
 40
0.6
176
     0
 40
30.0
176
     0
 62
     7
420
 16777215
176
     0
 90
        1
176
     0
 90
        4
176
     0
 62
     7
176
     0
 62
   257
176
     0
 90
        1
176
     0
 90
        1
176
     0
 40
1.0
176
     0
 90
        9
176
     2
 62
     7
176
     0
 40
1.0
176
     0
 90
        1
176
     0
 90
        6
176
     0
 90
        2
176
     0
 62
     7
176
     0
 90
        5
176
     0
 90
        0
176
     0
 90
        0
176
     0
290
     0
176
     0
 90
        1
176
     0
 40
0.0
176
     0
 90
        0
176
     0
290
     0
176
     0
290
     1
176
     0
290
     1
176
     0
290
     0
176
     0
290
     0
176
     0
290
     0
176
     0
290
     0
176
     0
290
     0
176
     0
290
     0
176
     0
 90
       50
176
     0
 40
0.0
176
     0
 40
1.0
176
     0
 90
        0
176
     0
 62
    18
420
        0
176
     0
 90
       50
176
     0
 90
        3
176
     0
 62
     5
420
      255
176
     0
290
     0
176
     0
 90
       50
176
     0
 90
       50
176
     0
 90
       50
176
     0
290
     0
176
     0
 90
       50
176
     0
 62
   256
176
     0
 40
1.0
176
     0
 90
        2
176
     0
  1
strokes_ogs.tif
176
     0
290
     0
176
     0
 40
1.0
176
     0
 40
1.0
176
     0
  0
VISUALSTYLE
  5
33
102
{ACAD_REACTORS
330
2A
102
}
330
2A
100
AcDbVisualStyle
  2
Realistic
 70
     8
177
     3
291
     0
 70
    58
 90
        2
176
     1
 90
        3
176
     1
 90
        0
176
     1
 90
        2
176
     1
 40
0.6
176
     1
 40
30.0
176
     1
 62
     7
420
 16777215
176
     1
 90
        0
176
     1
 90
        0
176
     1
 62
     7
176
     1
 62
   257
176
     1
 90
        1
176
     1
 90
        1
176
     1
 40
1.0
176
     1
 90
        8
176
     1
 62
   257
176
     1
 40
1.0
176
     1
 90
        1
176
     1
 90
        6
176
     1
 90
        2
176
     1
 62
     7
176
     1
 90
        3
176
     1
 90
        0
176
     1
 90
        0
176
     1
290
     0
176
     1
 90
       13
176
     1
 40
0.0
176
     1
 90
        0
176
     1
290
     0
176
     1
290
     1
176
     1
290
     1
176
     1
290
     0
176
     1
290
     0
176
     1
290
     0
176
     1
290
     0
176
     1
290
     0
176
     1
290
     0
176
     1
 90
       50
176
     1
 40
0.0
176
     1
 40
1.0
176
     1
 90
        0
176
     1
 62
    18
420
        0
176
     1
 90
       50
176
     1
 90
        3
176
     1
 62
     5
420
      255
176
     1
290
     0
176
     1
 90
       50
176
     1
 90
       50
176
     1
 90
       50
176
     1
290
     0
176
     1
 90
       50
176
     1
 62
   256
176
     0
 40
1.0
176
     0
 90
        2
176
     1
  1
strokes_ogs.tif
176
     1
290
     0
176
     1
 40
1.0
176
     1
 40
1.0
176
     1
  0
VISUALSTYLE
  5
42
102
{ACAD_REACTORS
330
2A
102
}
330
2A
100
AcDbVisualStyle
  2
Shaded
 70
    27
177
     3
291
     0
 70
    58
 90
        2
176
     1
 90
        2
176
     1
 90
        1
176
     1
 90
        2
176
     1
 40
0.6
176
     1
 40
30.0
176
     1
 62
     7
420
 16777215
176
     1
 90
        0
176
     1
 90
        4
176
     1
 62
     7
176
     1
 62
   257
176
     1
 90
        1
176
     1
 90
        1
176
     1
 40
1.0
176
     1
 90
        8
176
     1
 62
   257
176
     1
 40
1.0
176
     1
 90
        1
176
     1
 90
        6
176
     1
 90
        2
176
     1
 62
     8
420
  7895160
176
     1
 90
        3
176
     1
 90
        0
176
     1
 90
        0
176
     1
290
     0
176
     1
 90
        5
176
     1
 40
0.0
176
     1
 90
        0
176
     1
290
     0
176
     1
290
     1
176
     1
290
     1
176
     1
290
     0
176
     1
290
     0
176
     1
290
     0
176
     1
290
     0
176
     1
290
     0
176
     1
290
     0
176
     1
 90
       50
176
     1
 40
0.0
176
     1
 40
1.0
176
     1
 90
        0
176
     1
 62
    18
420
        0
176
     1
 90
       50
176
     1
 90
        3
176
     1
 62
     5
420
      255
176
     1
290
     0
176
     1
 90
       50
176
     1
 90
       50
176
     1
 90
       50
176
     1
290
     0
176
     1
 90
       50
176
     1
 62
   256
176
     0
 40
1.0
176
     0
 90
        2
176
     1
  1
strokes_ogs.tif
176
     1
290
     0
176
     1
 40
1.0
176
     1
 40
1.0
176
     1
  0
VISUALSTYLE
  5
41
102
{ACAD_REACTORS
330
2A
102
}
330
2A
100
AcDbVisualStyle
  2
Shaded with edges
 70
    26
177
     3
291
     0
 70
    58
 90
        2
176
     1
 90
        2
176
     1
 90
        1
176
     1
 90
        2
176
     1
 40
0.6
176
     1
 40
30.0
176
     1
 62
     7
420
 16777215
176
     1
 90
        1
176
     1
 90
       10
176
     1
 62
     7
176
     1
 62
   257
176
     1
 90
        2
176
     1
 90
        1
176
     1
 40
1.0
176
     1
 90
        8
176
     1
 62
   257
176
     1
 40
1.0
176
     1
 90
        1
176
     1
 90
        6
176
     1
 90
        2
176
     1
 62
     7
176
     1
 90
        3
176
     1
 90
        0
176
     1
 90
        0
176
     1
290
     0
176
     1
 90
        5
176
     1
 40
0.0
176
     1
 90
        0
176
     1
290
     0
176
     1
290
     1
176
     1
290
     1
176
     1
290
     0
176
     1
290
     0
176
     1
290
     0
176
     1
290
     0
176
     1
290
     0
176
     1
290
     0
176
     1
 90
       50
176
     1
 40
0.0
176
     1
 40
1.0
176
     1
 90
        0
176
     1
 62
    18
420
        0
176
     1
 90
       50
176
     1
 90
        3
176
     1
 62
     5
420
      255
176
     1
290
     0
176
     1
 90
       50
176
     1
 90
       50
176
     1
 90
       50
176
     1
290
     0
176
     1
 90
       50
176
     1
 62
   256
176
     0
 40
1.0
176
     0
 90
        2
176
     1
  1
strokes_ogs.tif
176
     1
290
     0
176
     1
 40
1.0
176
     1
 40
1.0
176
     1
  0
VISUALSTYLE
  5
3E
102
{ACAD_REACTORS
330
2A
102
}
330
2A
100
AcDbVisualStyle
  2
Shades of Gray
 70
    23
177
     3
291
     0
 70
    58
 90
        2
176
     1
 90
        2
176
     1
 90
        3
176
     1
 90
        0
176
     1
 40
0.6
176
     1
 40
30.0
176
     1
 62
     7
420
 16777215
176
     1
 90
        2
176
     1
 90
        2
176
     1
 62
     7
176
     1
 62
     7
176
     1
 90
        1
176
     1
 90
        1
176
     1
 40
40.0
176
     1
 90
        8
176
     1
 62
     7
176
     1
 40
1.0
176
     1
 90
        1
176
     1
 90
        6
176
     1
 90
        2
176
     1
 62
     7
176
     1
 90
        3
176
     1
 90
        0
176
     1
 90
        0
176
     1
290
     0
176
     1
 90
        1
176
     1
 40
0.0
176
     1
 90
        0
176
     1
290
     0
176
     1
290
     1
176
     1
290
     1
176
     1
290
     0
176
     1
290
     0
176
     1
290
     0
176
     1
290
     0
176
     1
290
     0
176
     1
290
     0
176
     1
 90
       50
176
     1
 40
0.0
176
     1
 40
1.0
176
     1
 90
        0
176
     1
 62
    18
420
        0
176
     1
 90
       50
176
     1
 90
        3
176
     1
 62
     5
420
      255
176
     1
290
     0
176
     1
 90
       50
176
     1
 90
       50
176
     1
 90
       50
176
     1
290
     0
176
     1
 90
       50
176
     1
 62
   256
176
     0
 40
1.0
176
     0
 90
        2
176
     1
  1
strokes_ogs.tif
176
     1
290
     0
176
     1
 40
1.0
176
     1
 40
1.0
176
     1
  0
VISUALSTYLE
  5
3F
102
{ACAD_REACTORS
330
2A
102
}
330
2A
100
AcDbVisualStyle
  2
Sketchy
 70
    24
177
     3
291
     0
 70
    58
 90
        1
176
     1
 90
        2
176
     1
 90
        2
176
     1
 90
        0
176
     1
 40
0.6
176
     1
 40
30.0
176
     1
 62
     7
420
 16777215
176
     1
 90
        2
176
     1
 90
        2
176
     1
 62
     7
176
     1
 62
     7
176
     1
 90
        1
176
     1
 90
        1
176
     1
 40
40.0
176
     1
 90
       11
176
     1
 62
     7
176
     1
 40
1.0
176
     1
 90
        1
176
     1
 90
        6
176
     1
 90
        2
176
     1
 62
     7
176
     1
 90
        6
176
     1
 90
        0
176
     1
 90
        0
176
     1
290
     0
176
     1
 90
        1
176
     1
 40
0.0
176
     1
 90
        0
176
     1
290
     0
176
     1
290
     1
176
     1
290
     1
176
     1
290
     0
176
     1
290
     0
176
     1
290
     0
176
     1
290
     0
176
     1
290
     0
176
     1
290
     0
176
     1
 90
       50
176
     1
 40
0.0
176
     1
 40
1.0
176
     1
 90
        0
176
     1
 62
    18
420
        0
176
     1
 90
       50
176
     1
 90
        3
176
     1
 62
     5
420
      255
176
     1
290
     0
176
     1
 90
       50
176
     1
 90
       50
176
     1
 90
       50
176
     1
290
     0
176
     1
 90
       50
176
     1
 62
   256
176
     0
 40
1.0
176
     0
 90
        2
176
     1
  1
strokes_ogs.tif
176
     1
290
     0
176
     1
 40
1.0
176
     1
 40
1.0
176
     1
  0
VISUALSTYLE
  5
37
102
{ACAD_REACTORS
330
2A
102
}
330
2A
100
AcDbVisualStyle
  2
Thicken
 70
    13
177
     3
291
     1
 70
    58
 90
        2
176
     1
 90
        2
176
     1
 90
        0
176
     1
 90
        0
176
     1
 40
0.6
176
     1
 40
30.0
176
     1
 62
     7
420
 16777215
176
     1
 90
        1
176
     1
 90
        4
176
     1
 62
     7
176
     1
 62
   257
176
     1
 90
        1
176
     1
 90
        1
176
     1
 40
1.0
176
     1
 90
       12
176
     1
 62
     7
176
     1
 40
1.0
176
     1
 90
        1
176
     1
 90
        6
176
     1
 90
        2
176
     1
 62
     7
176
     1
 90
        5
176
     1
 90
        0
176
     1
 90
        0
176
     1
290
     0
176
     1
 90
        1
176
     1
 40
0.0
176
     1
 90
        0
176
     1
290
     0
176
     1
290
     1
176
     1
290
     1
176
     1
290
     0
176
     1
290
     0
176
     1
290
     0
176
     1
290
     0
176
     1
290
     0
176
     1
290
     0
176
     1
 90
       50
176
     1
 40
0.0
176
     1
 40
1.0
176
     1
 90
        0
176
     1
 62
    18
420
        0
176
     1
 90
       50
176
     1
 90
        3
176
     1
 62
     5
420
      255
176
     1
290
     0
176
     1
 90
       50
176
     1
 90
       50
176
     1
 90
       50
176
     1
290
     0
176
     1
 90
       50
176
     1
 62
   256
176
     0
 40
1.0
176
     0
 90
        2
176
     1
  1
strokes_ogs.tif
176
     1
290
     0
176
     1
 40
1.0
176
     1
 40
1.0
176
     1
  0
VISUALSTYLE
  5
30
102
{ACAD_REACTORS
330
2A
102
}
330
2A
100
AcDbVisualStyle
  2
Wireframe
 70
     5
177
     3
291
     0
 70
    58
 90
        0
176
     1
 90
        2
176
     1
 90
        0
176
     1
 90
        0
176
     1
 40
0.6
176
     1
 40
30.0
176
     1
 62
     7
420
 16777215
176
     1
 90
        1
176
     1
 90
        4
176
     1
 62
     7
176
     1
 62
   257
176
     1
 90
        1
176
     1
 90
        1
176
     1
 40
1.0
176
     1
 90
        0
176
     1
 62
   257
176
     1
 40
1.0
176
     1
 90
        1
176
     1
 90
        6
176
     1
 90
        2
176
     1
 62
     7
176
     1
 90
        3
176
     1
 90
        0
176
     1
 90
        0
176
     1
290
     0
176
     1
 90
        1
176
     1
 40
0.0
176
     1
 90
        0
176
     1
290
     0
176
     1
290
     1
176
     1
290
     1
176
     1
290
     0
176
     1
290
     0
176
     1
290
     0
176
     1
290
     0
176
     1
290
     0
176
     1
290
     0
176
     1
 90
       50
176
     1
 40
0.0
176
     1
 40
1.0
176
     1
 90
        0
176
     1
 62
    18
420
        0
176
     1
 90
       50
176
     1
 90
        3
176
     1
 62
     5
420
      255
176
     1
290
     0
176
     1
 90
       50
176
     1
 90
       50
176
     1
 90
       50
176
     1
290
     0
176
     1
 90
       50
176
     1
 62
   256
176
     0
 40
1.0
176
     0
 90
        2
176
     1
  1
strokes_ogs.tif
176
     1
290
     0
176
     1
 40
1.0
176
     1
 40
1.0
176
     1
  0
VISUALSTYLE
  5
40
102
{ACAD_REACTORS
330
2A
102
}
330
2A
100
AcDbVisualStyle
  2
X-Ray
 70
    25
177
     3
291
     0
 70
    58
 90
        2
176
     1
 90
        2
176
     1
 90
        1
176
     1
 90
        1
176
     1
 40
0.5
176
     1
 40
30.0
176
     1
 62
     7
420
 16777215
176
     1
 90
        1
176
     1
 90
        0
176
     1
 62
     7
176
     1
 62
   257
176
     1
 90
        1
176
     1
 90
        1
176
     1
 40
1.0
176
     1
 90
        8
176
     1
 62
     7
176
     1
 40
1.0
176
     1
 90
        1
176
     1
 90
        6
176
     1
 90
        2
176
     1
 62
     7
176
     1
 90
        3
176
     1
 90
        0
176
     1
 90
        0
176
     1
290
     0
176
     1
 90
       13
176
     1
 40
0.0
176
     1
 90
        0
176
     1
290
     0
176
     1
290
     1
176
     1
290
     1
176
     1
290
     0
176
     1
290
     0
176
     1
290
     0
176
     1
290
     0
176
     1
290
     0
176
     1
290
     0
176
     1
 90
       50
176
     1
 40
0.0
176
     1
 40
1.0
176
     1
 90
        0
176
     1
 62
    18
420
        0
176
     1
 90
       50
176
     1
 90
        3
176
     1
 62
     5
420
      255
176
     1
290
     0
176
     1
 90
       50
176
     1
 90
       50
176
     1
 90
       50
176
     1
290
     0
176
     1
 90
       50
176
     1
 62
   256
176
     0
 40
1.0
176
     0
 90
        2
176
     1
  1
strokes_ogs.tif
176
     1
290
     0
176
     1
 40
1.0
176
     1
 40
1.0
176
     1
  0
DICTIONARYVAR
  5
2E1
102
{ACAD_REACTORS
330
2E0
102
}
330
2E0
100
DictionaryVariables
280
     0
  1
1:1
  0
ENDSEC
  0
EOF
